<svg width="97" height="97" viewBox="0 0 97 97" fill="none" xmlns="http://www.w3.org/2000/svg">
<circle cx="48.5" cy="48.5" r="46.5" fill="#D9D9D9" stroke="#B3B3B3" stroke-width="3"/>
<path d="M91.4102 30.5541H5.58984C12.6118 13.7827 29.18 2 48.5 2C67.82 2 84.3882 13.7827 91.4102 30.5541Z" fill="#74ACDF"/>
<path d="M95 48.5006C95 54.3102 93.9346 59.871 91.9881 64.9982H5.01195C3.06543 59.871 2 54.3102 2 48.5006C2 42.1394 3.27731 36.0764 5.58985 30.5547H91.4102C93.7227 36.0764 95 42.1394 95 48.5006Z" fill="#F4F4F4"/>
<path d="M91.9878 64.998C85.3316 82.5355 68.3713 95.0004 48.4998 95.0004C28.6282 95.0004 11.6679 82.5355 5.01172 64.998H91.9878Z" fill="#74ACDF"/>
<path d="M49.0052 43.526H47.9844L48.2349 36.3001C48.2349 36.3001 48.283 36.0898 48.4853 36.0898C48.6876 36.0898 48.7459 36.3001 48.7459 36.3001L49.0052 43.526Z" fill="#85340A"/>
<path d="M48.8421 43.5267H48.1484L48.3831 36.4674C48.3831 36.4674 48.3982 36.3145 48.472 36.3145C48.5458 36.3145 48.5701 36.4674 48.5701 36.4674L48.8421 43.5267Z" fill="#F6B40E"/>
<path d="M48.5873 43.5251H48.3984L48.4929 40.2744L48.5873 43.5251Z" fill="#85340A"/>
<path d="M49.0052 53.4746H47.9844L48.2349 60.7006C48.2349 60.7006 48.283 60.9108 48.4853 60.9108C48.6876 60.9108 48.7459 60.7006 48.7459 60.7006L49.0052 53.4746Z" fill="#85340A"/>
<path d="M48.8421 53.4746H48.1484L48.3831 60.534C48.3831 60.534 48.3982 60.6869 48.472 60.6869C48.5458 60.6869 48.5701 60.534 48.5701 60.534L48.8421 53.4746Z" fill="#F6B40E"/>
<path d="M48.5873 53.4746H48.3984L48.4929 56.7253L48.5873 53.4746Z" fill="#85340A"/>
<path d="M49.0052 43.526H47.9844L48.2349 36.3001C48.2349 36.3001 48.283 36.0898 48.4853 36.0898C48.6876 36.0898 48.7459 36.3001 48.7459 36.3001L49.0052 43.526Z" fill="#85340A"/>
<path d="M48.8421 43.5267H48.1484L48.3831 36.4674C48.3831 36.4674 48.3982 36.3145 48.472 36.3145C48.5458 36.3145 48.5701 36.4674 48.5701 36.4674L48.8421 43.5267Z" fill="#F6B40E"/>
<path d="M48.5873 43.5251H48.3984L48.4929 40.2744L48.5873 43.5251Z" fill="#85340A"/>
<path d="M49.0052 53.4746H47.9844L48.2349 60.7006C48.2349 60.7006 48.283 60.9108 48.4853 60.9108C48.6876 60.9108 48.7459 60.7006 48.7459 60.7006L49.0052 53.4746Z" fill="#85340A"/>
<path d="M48.8421 53.4746H48.1484L48.3831 60.534C48.3831 60.534 48.3982 60.6869 48.472 60.6869C48.5458 60.6869 48.5701 60.534 48.5701 60.534L48.8421 53.4746Z" fill="#F6B40E"/>
<path d="M48.5873 53.4746H48.3984L48.4929 56.7253L48.5873 53.4746Z" fill="#85340A"/>
<path d="M47.0696 43.7081L46.1264 44.0988L43.5926 37.327C43.5926 37.327 43.5567 37.1144 43.7434 37.037C43.9327 36.9586 44.0646 37.1314 44.0646 37.1314L47.0693 43.7081H47.0696Z" fill="#85340A"/>
<path d="M46.9211 43.7707L46.2802 44.0363L43.7955 37.4244C43.7955 37.4244 43.751 37.2775 43.8193 37.2492C43.8885 37.2204 43.9684 37.353 43.9684 37.353L46.9213 43.7709L46.9211 43.7707Z" fill="#F6B40E"/>
<path d="M46.6867 43.8665L46.512 43.9389L45.3555 40.8994L46.6867 43.8665Z" fill="#85340A"/>
<path d="M50.8768 52.9004L49.9336 53.2911L52.9302 59.8711C52.9302 59.8711 53.0551 60.047 53.242 59.9696C53.4314 59.8912 53.4024 59.6755 53.4024 59.6755L50.8768 52.9004Z" fill="#85340A"/>
<path d="M50.7269 52.9629L50.0859 53.2285L53.0042 59.6608C53.0042 59.6608 53.0766 59.7962 53.1449 59.768C53.2141 59.7392 53.177 59.5891 53.177 59.5891L50.7269 52.9629Z" fill="#F6B40E"/>
<path d="M50.495 53.0596L50.3203 53.132L51.6516 56.0991L50.495 53.0596Z" fill="#85340A"/>
<path d="M45.3343 44.6232L44.6125 45.345L39.6802 40.0583C39.6802 40.0583 39.5656 39.8757 39.7085 39.7326C39.8513 39.5895 40.0414 39.6969 40.0414 39.6969L45.3343 44.623V44.6232Z" fill="#85340A"/>
<path d="M45.2209 44.7382L44.7303 45.2289L39.9043 40.0712C39.9043 40.0712 39.8068 39.9526 39.8593 39.9001C39.9118 39.8476 40.0366 39.9389 40.0366 39.9389L45.2209 44.7382Z" fill="#F6B40E"/>
<path d="M45.0411 44.9173L44.9075 45.0508L42.6758 42.6855L45.0411 44.9173Z" fill="#85340A"/>
<path d="M52.3741 51.6582L51.6523 52.3799L56.939 57.3123C56.939 57.3123 57.1216 57.4268 57.2647 57.284C57.4095 57.1392 57.3004 56.9511 57.3004 56.9511L52.3743 51.6582H52.3741Z" fill="#85340A"/>
<path d="M52.2563 51.7734L51.7656 52.2641L56.9233 57.09C56.9233 57.09 57.0419 57.1876 57.0944 57.1351C57.1469 57.0826 57.0556 56.9577 57.0556 56.9577L52.2563 51.7734Z" fill="#F6B40E"/>
<path d="M52.0827 51.9512L51.9492 52.0847L54.3145 54.3164L52.0827 51.9512Z" fill="#85340A"/>
<path d="M44.0928 46.1258L43.7021 47.069L37.1221 44.0724C37.1221 44.0724 36.9462 43.9475 37.0236 43.7606C37.102 43.5712 37.3177 43.6002 37.3177 43.6002L44.0928 46.1258Z" fill="#85340A"/>
<path d="M44.0277 46.2775L43.7621 46.9184L37.3298 44.0001C37.3298 44.0001 37.1944 43.9278 37.2226 43.8595C37.2514 43.7902 37.4014 43.8273 37.4014 43.8273L44.0277 46.2775Z" fill="#F6B40E"/>
<path d="M43.9341 46.51L43.8617 46.6848L40.8945 45.3535L43.9341 46.51Z" fill="#85340A"/>
<path d="M53.2852 49.9336L52.8945 50.8768L59.6663 53.4105C59.6663 53.4105 59.8789 53.4465 59.9563 53.2598C60.0347 53.0704 59.8619 52.9386 59.8619 52.9386L53.2852 49.9338V49.9336Z" fill="#85340A"/>
<path d="M53.2226 50.0852L52.957 50.7261L59.5689 53.2108C59.5689 53.2108 59.7158 53.2553 59.7441 53.187C59.7729 53.1178 59.6403 53.0379 59.6403 53.0379L53.2224 50.085L53.2226 50.0852Z" fill="#F6B40E"/>
<path d="M53.1271 50.3174L53.0547 50.4921L56.0942 51.6486L53.1271 50.3174Z" fill="#85340A"/>
<path d="M43.5143 47.9905V49.0113L36.2883 48.7608C36.2883 48.7608 36.0781 48.7127 36.0781 48.5104C36.0781 48.3081 36.2883 48.2496 36.2883 48.2496L43.5143 47.9902V47.9905Z" fill="#85340A"/>
<path d="M43.517 48.1543V48.848L36.4576 48.6133C36.4576 48.6133 36.3047 48.5982 36.3047 48.5244C36.3047 48.4506 36.4576 48.4263 36.4576 48.4263L43.517 48.1543Z" fill="#F6B40E"/>
<path d="M43.5163 48.4062V48.5954L40.2656 48.5009L43.5163 48.4062Z" fill="#85340A"/>
<path d="M53.4609 47.9905V49.0113L60.6869 48.7608C60.6869 48.7608 60.8971 48.7127 60.8971 48.5104C60.8971 48.3081 60.6869 48.2496 60.6869 48.2496L53.4609 47.9902V47.9905Z" fill="#85340A"/>
<path d="M53.4609 48.1543V48.848L60.5203 48.6133C60.5203 48.6133 60.6732 48.5982 60.6732 48.5244C60.6732 48.4506 60.5203 48.4263 60.5203 48.4263L53.4609 48.1543Z" fill="#F6B40E"/>
<path d="M53.4609 48.4062V48.5951L56.7116 48.5007L53.4609 48.4062Z" fill="#85340A"/>
<path d="M43.7071 49.9336L44.0978 50.8768L37.326 53.4105C37.326 53.4105 37.1134 53.4465 37.036 53.2598C36.9576 53.0704 37.1305 52.9386 37.1305 52.9386L43.7071 49.9338V49.9336Z" fill="#85340A"/>
<path d="M43.7678 50.0852L44.0334 50.7261L37.4215 53.2108C37.4215 53.2108 37.2746 53.2553 37.2463 53.187C37.2175 53.1178 37.3501 53.0379 37.3501 53.0379L43.768 50.085L43.7678 50.0852Z" fill="#F6B40E"/>
<path d="M43.8656 50.3174L43.938 50.4921L40.8984 51.6486L43.8656 50.3174Z" fill="#85340A"/>
<path d="M52.8945 46.1258L53.2852 47.069L59.8652 44.0724C59.8652 44.0724 60.0411 43.9475 59.9637 43.7606C59.8853 43.5712 59.6696 43.6002 59.6696 43.6002L52.8945 46.1258Z" fill="#85340A"/>
<path d="M52.957 46.2775L53.2226 46.9184L59.6549 44.0001C59.6549 44.0001 59.7904 43.9278 59.7621 43.8595C59.7333 43.7902 59.5833 43.8273 59.5833 43.8273L52.957 46.2775Z" fill="#F6B40E"/>
<path d="M53.0547 46.51L53.1271 46.6848L56.0942 45.3535L53.0547 46.51Z" fill="#85340A"/>
<path d="M44.6174 51.6592L45.3391 52.3809L40.0525 57.3132C40.0525 57.3132 39.8698 57.4278 39.7267 57.285C39.5836 57.1421 39.691 56.952 39.691 56.952L44.6171 51.6592H44.6174Z" fill="#85340A"/>
<path d="M44.7333 51.7744L45.224 52.2651L40.0663 57.091C40.0663 57.091 39.9477 57.1885 39.8952 57.1361C39.8427 57.0836 39.934 56.9587 39.934 56.9587L44.7333 51.7744Z" fill="#F6B40E"/>
<path d="M44.9114 51.9521L45.045 52.0857L42.6797 54.3174L44.9114 51.9521Z" fill="#85340A"/>
<path d="M51.6562 44.6232L52.378 45.345L57.3103 40.0583C57.3103 40.0583 57.4249 39.8757 57.282 39.7326C57.1392 39.5895 56.9491 39.6969 56.9491 39.6969L51.6562 44.623V44.6232Z" fill="#85340A"/>
<path d="M51.7695 44.7382L52.2602 45.2289L57.0861 40.0712C57.0861 40.0712 57.1837 39.9526 57.1312 39.9001C57.0787 39.8476 56.9538 39.9389 56.9538 39.9389L51.7695 44.7382Z" fill="#F6B40E"/>
<path d="M51.9531 44.9173L52.0866 45.0508L54.3184 42.6855L51.9531 44.9173Z" fill="#85340A"/>
<path d="M46.121 52.9023L47.0641 53.293L44.0675 59.873C44.0675 59.873 43.9427 60.049 43.7557 59.9715C43.5663 59.8932 43.5953 59.6774 43.5953 59.6774L46.121 52.9023Z" fill="#85340A"/>
<path d="M46.2726 52.9648L46.9135 53.2304L43.9953 59.6628C43.9953 59.6628 43.9229 59.7982 43.8546 59.7699C43.7853 59.7411 43.8225 59.5911 43.8225 59.5911L46.2726 52.9648Z" fill="#F6B40E"/>
<path d="M46.5042 53.0605L46.6789 53.1329L45.3477 56.1001L46.5042 53.0605Z" fill="#85340A"/>
<path d="M49.9297 43.711L50.8729 44.1017L53.4066 37.33C53.4066 37.33 53.4426 37.1173 53.2559 37.0399C53.0665 36.9615 52.9347 37.1344 52.9347 37.1344L49.9299 43.711H49.9297Z" fill="#85340A"/>
<path d="M50.0823 43.7736L50.7232 44.0392L53.2078 37.4273C53.2078 37.4273 53.2524 37.2804 53.1841 37.2521C53.1148 37.2234 53.035 37.3559 53.035 37.3559L50.082 43.7739L50.0823 43.7736Z" fill="#F6B40E"/>
<path d="M50.3164 43.8695L50.4911 43.9419L51.6476 40.9023L50.3164 43.8695Z" fill="#85340A"/>
<path d="M49.8752 43.6239L49.1875 43.541C49.1875 43.541 49.2863 41.9791 49.4641 41.3401C49.5935 40.8754 50.0142 40.1342 50.2031 39.612C50.4037 39.0573 50.1563 38.3665 50.2795 37.6827C50.3836 37.1058 50.8047 36.7755 50.8047 36.7755C50.8047 36.7755 50.9118 36.6678 50.9996 36.7036C51.0427 36.721 51.0403 36.8093 50.9907 36.8452C50.8658 36.9353 50.6546 37.1434 50.6225 37.4945C50.5501 38.2915 50.8112 39.0444 50.5523 39.9142C50.4449 40.2752 50.1129 41.0206 50.0264 41.3871C49.8857 41.9823 49.8752 43.6244 49.8752 43.6244V43.6239Z" fill="#F6B40E"/>
<path d="M49.9409 43.7033L49.1094 43.6028L49.1135 43.5367C49.1175 43.4727 49.2146 41.9602 49.3925 41.3215C49.466 41.0573 49.6321 40.705 49.7927 40.3641C49.9195 40.0952 50.0504 39.8172 50.1333 39.5883C50.2371 39.3013 50.2146 38.9689 50.1909 38.617C50.1702 38.3097 50.1487 37.9917 50.2067 37.6702C50.3105 37.0945 50.7105 36.758 50.7541 36.7228C50.7788 36.6988 50.9011 36.5892 51.0221 36.6386C51.0619 36.6549 51.0892 36.6935 51.095 36.7422C51.1024 36.8033 51.0753 36.8675 51.0276 36.902C50.9358 36.9682 50.7194 37.1587 50.6885 37.501C50.6609 37.8054 50.6825 38.0988 50.7052 38.4095C50.7407 38.8917 50.7774 39.3907 50.6156 39.9341C50.5681 40.0935 50.4794 40.3219 50.3855 40.564C50.264 40.8768 50.1386 41.2004 50.0907 41.403C49.9533 41.9835 49.9413 43.6083 49.9413 43.6246L49.9409 43.7033ZM49.258 43.4796L49.8018 43.5453C49.8059 43.2073 49.8294 41.8991 49.9543 41.3708C50.0044 41.1587 50.1317 40.8306 50.2549 40.5135C50.3479 40.2742 50.4356 40.0482 50.4814 39.8943C50.6357 39.3754 50.6 38.8896 50.5655 38.4198C50.5432 38.1173 50.5202 37.8042 50.549 37.4883C50.5852 37.0888 50.8387 36.8658 50.9459 36.7884C50.9516 36.7844 50.955 36.7745 50.956 36.7666C50.9238 36.7673 50.8737 36.8018 50.8507 36.8251L50.8443 36.8309C50.8402 36.834 50.4425 37.1532 50.3447 37.6954C50.2899 37.9998 50.3107 38.309 50.3308 38.6079C50.3555 38.9749 50.379 39.3215 50.2652 39.6362C50.1801 39.8713 50.0478 40.1522 49.9195 40.4241C49.7613 40.7596 49.5979 41.1067 49.5276 41.3593C49.3745 41.9099 49.2791 43.1764 49.258 43.4799V43.4796Z" fill="#85340A"/>
<path d="M49.567 43.5354L49.3867 43.5119C49.3882 43.5052 49.5365 42.9927 49.5571 42.5869C49.5641 42.4508 49.5667 42.2653 49.5648 42.0555C49.5622 41.7648 49.6561 41.4422 49.7211 41.2439C49.7966 41.0134 50.125 40.2857 50.153 40.295C50.1648 40.2988 50.0885 40.4743 50.0885 40.4743C50.0854 40.4808 49.8184 41.0805 49.7705 41.3015C49.7319 41.4791 49.6775 41.7696 49.6801 42.0527C49.682 42.2669 49.7048 42.457 49.6986 42.6018C49.6708 43.2576 49.5732 43.5073 49.567 43.5354Z" fill="#85340A"/>
<path d="M47.0887 53.3677L47.7768 53.4468C47.7768 53.4468 47.687 55.0091 47.5127 55.649C47.3859 56.1145 46.9693 56.858 46.7833 57.3813C46.5858 57.9371 46.8373 58.6265 46.7177 59.311C46.6167 59.8887 46.1978 60.2214 46.1978 60.2214C46.1978 60.2214 46.0913 60.3297 46.0034 60.2942C45.9602 60.277 45.9622 60.1888 46.0115 60.1526C46.1359 60.0617 46.3459 59.8525 46.3759 59.5011C46.4439 58.7037 46.1784 57.9525 46.4324 57.0812C46.5379 56.7197 46.8655 55.9724 46.9502 55.6054C47.0875 55.0095 47.0887 53.3672 47.0887 53.3672V53.3677Z" fill="#F6B40E"/>
<path d="M47.0185 53.2891L47.8507 53.3847L47.8468 53.4509C47.8432 53.5149 47.7545 55.0278 47.5803 55.6678C47.5084 55.9324 47.3442 56.2857 47.1855 56.6275C47.0604 56.8971 46.931 57.1759 46.8495 57.4053C46.7474 57.6927 46.7716 58.0251 46.7972 58.3767C46.8197 58.684 46.843 59.0019 46.7867 59.3238C46.686 59.9002 46.2881 60.2387 46.2445 60.2741C46.22 60.2983 46.0983 60.4086 45.977 60.3599C45.9372 60.3439 45.9096 60.3053 45.9037 60.2569C45.896 60.1957 45.9226 60.1313 45.97 60.0968C46.0614 60.0301 46.2768 59.8384 46.3058 59.4961C46.3317 59.1917 46.3085 58.8983 46.284 58.5877C46.2459 58.1054 46.2064 57.6068 46.3651 57.0625C46.4116 56.9029 46.499 56.6737 46.5916 56.4312C46.7112 56.1176 46.8348 55.7936 46.8818 55.5906C47.0158 55.0093 47.0187 53.3845 47.0187 53.3682V53.2895L47.0185 53.2891ZM47.7025 53.5089L47.1582 53.4463C47.156 53.7843 47.14 55.0927 47.018 55.6215C46.9691 55.8339 46.8435 56.1627 46.7222 56.4805C46.6306 56.7205 46.5441 56.947 46.4993 57.1011C46.3478 57.621 46.3861 58.1064 46.4235 58.5762C46.4475 58.8786 46.4722 59.1914 46.4454 59.5076C46.4113 59.9074 46.1592 60.1318 46.0525 60.2097C46.0467 60.214 46.0434 60.2236 46.0427 60.2315C46.0748 60.2305 46.1246 60.1957 46.1474 60.1725L46.1536 60.1667C46.1577 60.1636 46.5535 59.8422 46.6484 59.2993C46.7016 58.9944 46.679 58.6855 46.6572 58.3868C46.6304 58.0201 46.6052 57.6735 46.7172 57.3583C46.8008 57.1227 46.9317 56.841 47.0582 56.5685C47.2145 56.232 47.3761 55.8842 47.4449 55.6311C47.5949 55.0796 47.6831 53.8128 47.7025 53.5091V53.5089Z" fill="#85340A"/>
<path d="M47.3933 53.4553L47.5738 53.4776C47.5723 53.4843 47.4271 53.9975 47.4086 54.4035C47.4024 54.5399 47.4007 54.7252 47.4038 54.9349C47.4082 55.2257 47.3161 55.5488 47.2521 55.7472C47.1778 55.9783 46.8537 56.7077 46.8255 56.6986C46.8137 56.6947 46.889 56.519 46.889 56.519C46.8921 56.5126 47.1555 55.9112 47.2023 55.69C47.2399 55.5121 47.2926 55.2211 47.2885 54.9383C47.2854 54.7242 47.2617 54.5342 47.267 54.3894C47.2912 53.7334 47.3873 53.4831 47.3933 53.4551V53.4553Z" fill="#85340A"/>
<path d="M47.9021 43.4746L47.2351 43.6611C47.2351 43.6611 46.7286 42.1803 46.6483 41.5219C46.5898 41.043 46.695 40.1973 46.6699 39.6424C46.643 39.0533 46.15 38.5097 46.0023 37.8306C45.8777 37.2578 46.1402 36.7913 46.1402 36.7913C46.1402 36.7913 46.1979 36.6509 46.2926 36.6504C46.3391 36.6502 46.3707 36.7326 46.3386 36.7846C46.2576 36.9155 46.1421 37.1887 46.2471 37.5255C46.4851 38.2894 47.0145 38.885 47.1083 39.7877C47.1471 40.1623 47.1258 40.978 47.1859 41.3498C47.2837 41.9535 47.9024 43.4746 47.9024 43.4746H47.9021Z" fill="#F6B40E"/>
<path d="M47.9972 43.5208L47.1906 43.7464L47.169 43.6836C47.1482 43.6229 46.6592 42.1884 46.5789 41.5302C46.5458 41.2581 46.5643 40.8689 46.5823 40.4925C46.5964 40.1956 46.611 39.8885 46.6 39.6455C46.5861 39.3406 46.4382 39.0422 46.2817 38.7263C46.1448 38.4501 46.0034 38.1647 45.9339 37.8454C45.8095 37.2737 46.0502 36.8099 46.0772 36.7606C46.0909 36.7289 46.1619 36.5808 46.2925 36.5801C46.3354 36.5801 46.3754 36.6052 46.3994 36.6479C46.4296 36.7016 46.4291 36.7713 46.3984 36.8212C46.339 36.9173 46.2119 37.1762 46.3141 37.5043C46.4049 37.796 46.5372 38.059 46.6772 38.3372C46.8946 38.7694 47.1194 39.2162 47.1779 39.7802C47.1952 39.9456 47.2007 40.1908 47.2064 40.4504C47.2139 40.7859 47.2218 41.1328 47.2551 41.3384C47.3505 41.9273 47.9612 43.4331 47.9672 43.4482L47.9967 43.521L47.9972 43.5208ZM47.2805 43.5755L47.8081 43.4278C47.6825 43.114 47.2035 41.8964 47.1168 41.3605C47.082 41.1452 47.0741 40.7936 47.0664 40.4532C47.0607 40.1965 47.0552 39.9542 47.0386 39.7946C46.9828 39.256 46.7637 38.8209 46.5521 38.4001C46.4157 38.129 46.2747 37.8488 46.1803 37.5458C46.0609 37.1628 46.2098 36.8598 46.2791 36.7474C46.2829 36.7414 46.2822 36.7311 46.28 36.7234C46.2505 36.7366 46.2177 36.7874 46.2052 36.8176L46.2016 36.8253C46.1992 36.8298 45.954 37.2769 46.071 37.8152C46.1367 38.1175 46.2743 38.3953 46.4073 38.6635C46.5705 38.993 46.7249 39.3044 46.74 39.6385C46.7515 39.8883 46.7366 40.1987 46.7223 40.4988C46.7045 40.8693 46.6863 41.2524 46.7179 41.5129C46.787 42.0803 47.1837 43.2866 47.2803 43.5752L47.2805 43.5755Z" fill="#85340A"/>
<path d="M47.5845 43.5072L47.409 43.5546C47.4078 43.5477 47.3486 43.0177 47.2125 42.6347C47.1667 42.5062 47.0984 42.3339 47.0162 42.1407C46.9023 41.8732 46.8659 41.5391 46.8501 41.331C46.8316 41.0889 46.8566 40.2912 46.886 40.2891C46.8983 40.2881 46.8949 40.4794 46.8949 40.4794C46.8944 40.4866 46.8774 41.1428 46.9177 41.3653C46.95 41.5443 47.0109 41.8334 47.1216 42.0939C47.2055 42.291 47.2993 42.458 47.3489 42.5942C47.5742 43.2107 47.5795 43.4789 47.5847 43.5069L47.5845 43.5072Z" fill="#85340A"/>
<path d="M49.0664 53.535L49.7325 53.3447C49.7325 53.3447 50.2474 54.8227 50.3313 55.4806C50.3924 55.9593 50.2919 56.8054 50.3205 57.3603C50.3507 57.9492 50.8466 58.4899 50.9983 59.1683C51.1261 59.7404 50.8662 60.2083 50.8662 60.2083C50.8662 60.2083 50.8094 60.349 50.7145 60.3502C50.668 60.3506 50.6359 60.2684 50.6678 60.2162C50.7478 60.0848 50.8619 59.8109 50.7553 59.4748C50.5129 58.7121 49.9801 58.1196 49.8814 57.2174C49.8404 56.843 49.8571 56.0273 49.7948 55.6558C49.6937 55.0528 49.0664 53.535 49.0664 53.535Z" fill="#F6B40E"/>
<path d="M48.969 53.4899L49.7744 53.2598L49.7962 53.3223C49.8173 53.383 50.3144 54.8146 50.3983 55.4723C50.433 55.7442 50.4165 56.1337 50.4007 56.51C50.3882 56.8069 50.3753 57.114 50.3877 57.357C50.4033 57.6617 50.5529 57.9594 50.7113 58.2746C50.8496 58.5497 50.9927 58.8345 51.0639 59.1535C51.1914 59.7245 50.9534 60.1897 50.9268 60.2391C50.9134 60.2707 50.8431 60.4193 50.7125 60.4208C50.6696 60.4212 50.6293 60.3961 50.6051 60.3537C50.5747 60.3 50.5747 60.2305 50.6051 60.1804C50.6641 60.0838 50.7897 59.8242 50.6857 59.4968C50.5931 59.2055 50.4594 58.9433 50.3177 58.666C50.0979 58.2353 49.8707 57.7897 49.8089 57.2259C49.7909 57.0608 49.7839 56.8156 49.7765 56.556C49.7672 56.2207 49.7573 55.8738 49.7228 55.6684C49.6241 55.08 49.0049 53.5778 48.9987 53.5627L48.9688 53.4901L48.969 53.4899ZM49.6852 53.4311L49.1583 53.5817C49.2856 53.8947 49.7715 55.1097 49.8614 55.6449C49.8973 55.8599 49.9074 56.2116 49.917 56.5519C49.9242 56.8086 49.9309 57.051 49.9484 57.2106C50.0073 57.7487 50.2286 58.1825 50.4428 58.6022C50.5807 58.8726 50.7233 59.1521 50.8194 59.4543C50.9409 59.8369 50.7938 60.1406 50.725 60.2535C50.7211 60.2594 50.7218 60.2698 50.7242 60.2774C50.7535 60.2642 50.7863 60.213 50.7986 60.1827L50.8021 60.1751C50.8045 60.1705 51.0473 59.7221 50.9273 59.1844C50.8597 58.8824 50.7206 58.6056 50.5862 58.3381C50.421 58.0095 50.265 57.6991 50.248 57.3649C50.235 57.1154 50.2482 56.8048 50.2609 56.5047C50.2765 56.1341 50.2926 55.7509 50.2595 55.4906C50.1871 54.9237 49.7837 53.7195 49.6857 53.4314L49.6852 53.4311Z" fill="#85340A"/>
<path d="M49.3752 53.5015L49.5505 53.4531C49.5517 53.4601 49.6137 53.9896 49.7523 54.3719C49.7988 54.5001 49.868 54.6722 49.9512 54.8647C50.0665 55.1317 50.1049 55.4653 50.1219 55.6734C50.1415 55.9152 50.1214 56.7132 50.0919 56.7156C50.0797 56.7165 50.0818 56.5255 50.0818 56.5255C50.0823 56.5183 50.0955 55.862 50.054 55.6396C50.0207 55.4608 49.9582 55.172 49.846 54.9121C49.7611 54.7156 49.6665 54.549 49.6159 54.4131C49.3872 53.7978 49.3803 53.5298 49.375 53.5015H49.3752Z" fill="#85340A"/>
<path d="M46.0227 44.0867L45.4776 44.5143C45.4776 44.5143 44.4431 43.34 44.1169 42.7624C43.8796 42.3422 43.6533 41.5208 43.4175 41.0177C43.1672 40.4836 42.5038 40.1701 42.1073 39.5992C41.7729 39.1176 41.8369 38.5862 41.8369 38.5862C41.8369 38.5862 41.8365 38.4345 41.9239 38.3976C41.9668 38.3796 42.0275 38.4436 42.0177 38.504C41.993 38.656 41.9908 38.9527 42.2166 39.2236C42.7288 39.8384 43.446 40.1859 43.8779 40.9841C44.0572 41.3154 44.3496 42.0771 44.5474 42.3976C44.8688 42.9179 46.0224 44.0864 46.0224 44.0864L46.0227 44.0867Z" fill="#F6B40E"/>
<path d="M46.1277 44.0927L45.4688 44.6097L45.4249 44.5598C45.3825 44.5117 44.3818 43.3736 44.0558 42.7962C43.9211 42.5575 43.7893 42.1907 43.6617 41.8362C43.5613 41.5565 43.4573 41.2672 43.354 41.0469C43.2245 40.7708 42.9736 40.5515 42.708 40.3195C42.476 40.1167 42.2361 39.9072 42.0498 39.6388C41.7162 39.1582 41.761 38.6376 41.767 38.5817C41.7675 38.5474 41.7763 38.3833 41.8969 38.3327C41.9364 38.3161 41.9832 38.3241 42.0215 38.3545C42.0699 38.3926 42.0963 38.4571 42.087 38.5151C42.0687 38.6268 42.0505 38.9144 42.2706 39.1786C42.4662 39.4135 42.6891 39.6057 42.9247 39.8089C43.2909 40.1249 43.6696 40.4518 43.9395 40.9503C44.0186 41.0966 44.1176 41.3209 44.2224 41.5584C44.3578 41.8655 44.4975 42.1831 44.6071 42.3602C44.9206 42.8679 46.061 44.0251 46.0725 44.0368L46.1277 44.0927ZM45.4865 44.4175L45.9175 44.0793C45.6814 43.8374 44.7727 42.8957 44.4877 42.434C44.3731 42.2485 44.2312 41.9266 44.0939 41.6152C43.9904 41.3804 43.8926 41.1584 43.8161 41.0172C43.5584 40.541 43.1895 40.2229 42.8329 39.9151C42.6033 39.7169 42.3657 39.512 42.1625 39.2682C41.9055 38.96 41.9271 38.6232 41.9482 38.4926C41.9494 38.4856 41.9448 38.4763 41.9398 38.47C41.9175 38.4933 41.9067 38.553 41.9067 38.5858L41.9062 38.5944C41.9055 38.5995 41.8502 39.1064 42.1644 39.5589C42.3408 39.813 42.5743 40.017 42.7998 40.214C43.0769 40.4561 43.3384 40.6845 43.4805 40.9875C43.5867 41.2138 43.6917 41.5062 43.7933 41.789C43.9189 42.138 44.0486 42.499 44.1775 42.7274C44.4585 43.225 45.2866 44.1881 45.4863 44.4175H45.4865Z" fill="#85340A"/>
<path d="M45.7457 44.236L45.6017 44.347C45.5978 44.3413 45.3404 43.8741 45.0681 43.5723C44.9768 43.4712 44.8476 43.3381 44.6978 43.191C44.4902 42.9872 44.3287 42.6927 44.2345 42.5067C44.1249 42.2902 43.8423 41.5436 43.8689 41.5304C43.88 41.5249 43.95 41.7027 43.95 41.7027C43.9524 41.7094 44.1877 42.3223 44.31 42.5127C44.4085 42.6656 44.5753 42.9096 44.7771 43.1078C44.9301 43.2579 45.0803 43.3763 45.1786 43.4829C45.6225 43.9664 45.7304 44.2121 45.7457 44.236Z" fill="#85340A"/>
<path d="M50.9492 52.9385L51.4919 52.5078C51.4919 52.5078 52.5331 53.6761 52.8624 54.252C53.1021 54.6708 53.3329 55.491 53.5717 55.9927C53.825 56.5253 54.4902 56.8349 54.8897 57.4037C55.2267 57.8836 55.1656 58.415 55.1656 58.415C55.1656 58.415 55.1671 58.5667 55.0798 58.6041C55.0369 58.6223 54.976 58.5588 54.9854 58.4982C55.0091 58.346 55.0096 58.0495 54.7824 57.7798C54.2665 57.1679 53.5477 56.8244 53.1112 56.0286C52.93 55.6986 52.6335 54.9383 52.4339 54.619C52.1096 54.1006 50.9492 52.9383 50.9492 52.9383V52.9385Z" fill="#F6B40E"/>
<path d="M50.844 52.932L51.5 52.4111L51.5441 52.4605C51.5868 52.5084 52.594 53.641 52.9231 54.2165C53.0592 54.4545 53.193 54.8203 53.3224 55.1743C53.4245 55.4535 53.5302 55.7421 53.6347 55.9619C53.7658 56.2373 54.0177 56.4552 54.2847 56.6858C54.518 56.8871 54.7591 57.0954 54.9468 57.3629C55.2831 57.8416 55.2411 58.3624 55.2356 58.4183C55.2354 58.4525 55.2272 58.6167 55.1071 58.668C55.0676 58.6848 55.0208 58.6771 54.9823 58.6469C54.9336 58.6091 54.907 58.5448 54.9159 58.4868C54.9334 58.3751 54.9501 58.0873 54.7287 57.8246C54.5316 57.5909 54.3078 57.3998 54.0709 57.1978C53.703 56.8838 53.3224 56.5592 53.0496 56.0619C52.9698 55.9161 52.8696 55.6923 52.7634 55.4552C52.6263 55.1489 52.4847 54.8323 52.3742 54.6556C52.0578 54.1499 50.9111 52.9989 50.8994 52.9874L50.8438 52.9317L50.844 52.932ZM51.4832 52.6036L51.0542 52.9442C51.2917 53.1846 52.2054 54.1213 52.4933 54.5815C52.6088 54.7663 52.7526 55.0875 52.8917 55.3982C52.9964 55.6326 53.0956 55.8538 53.1728 55.9945C53.4331 56.4691 53.8037 56.7852 54.1623 57.0911C54.3931 57.2881 54.6318 57.4916 54.8363 57.7342C55.0949 58.041 55.0753 58.378 55.0549 58.5086C55.0537 58.5156 55.0585 58.5249 55.0633 58.5312C55.0853 58.5077 55.0959 58.448 55.0956 58.4151L55.0961 58.4065C55.0966 58.4015 55.1493 57.8943 54.8324 57.4434C54.6546 57.1903 54.4202 56.9878 54.1934 56.792C53.9151 56.5516 53.6522 56.3243 53.5084 56.0223C53.401 55.7965 53.2943 55.5048 53.191 55.2227C53.0635 54.8742 52.9319 54.5142 52.8015 54.2865C52.5178 53.7903 51.6843 52.8323 51.4832 52.6038V52.6036Z" fill="#85340A"/>
<path d="M51.2227 52.7855L51.366 52.6738C51.3698 52.6796 51.6299 53.1453 51.9039 53.4454C51.9959 53.5461 52.1258 53.6784 52.2763 53.8246C52.4849 54.0271 52.6483 54.3207 52.7435 54.5063C52.8542 54.7222 53.1409 55.4672 53.1145 55.4806C53.1035 55.4861 53.0326 55.3088 53.0326 55.3088C53.0302 55.302 52.7914 54.6903 52.668 54.501C52.5688 54.3485 52.4005 54.1055 52.1975 53.9085C52.0438 53.7594 51.8926 53.6417 51.7941 53.5355C51.3473 53.0545 51.2382 52.8095 51.2227 52.7855Z" fill="#85340A"/>
<path d="M44.5227 45.3682L44.1829 45.9718C44.1829 45.9718 42.7778 45.2829 42.2553 44.874C41.8754 44.5765 41.3516 43.9042 40.9415 43.5298C40.5058 43.1321 39.773 43.0964 39.1884 42.7206C38.6951 42.4035 38.5511 41.8881 38.5511 41.8881C38.5511 41.8881 38.4926 41.7482 38.5592 41.6806C38.5921 41.6475 38.6726 41.6834 38.6865 41.7431C38.722 41.8929 38.8334 42.1679 39.1455 42.3316C39.854 42.7036 40.6496 42.7503 41.354 43.3222C41.6464 43.5595 42.208 44.1515 42.5134 44.3718C43.0093 44.7294 44.5225 45.3677 44.5225 45.3677L44.5227 45.3682Z" fill="#F6B40E"/>
<path d="M44.6221 45.3335L44.2113 46.0634L44.1519 46.0342C44.0943 46.0059 42.7341 45.3374 42.212 44.9287C41.9961 44.7597 41.7341 44.4714 41.4807 44.1926C41.2808 43.9726 41.074 43.7451 40.8942 43.5812C40.6689 43.3755 40.3532 43.2691 40.0191 43.1562C39.7272 43.0577 39.4252 42.9558 39.1505 42.7792C38.6584 42.4628 38.5004 41.9647 38.4846 41.9108C38.4719 41.8789 38.4175 41.7238 38.5093 41.631C38.5395 41.6006 38.5858 41.5901 38.633 41.6032C38.6924 41.62 38.7413 41.6694 38.7547 41.7264C38.7806 41.8365 38.8739 42.1095 39.1783 42.2691C39.4489 42.4112 39.7284 42.5035 40.0239 42.6013C40.4832 42.753 40.958 42.91 41.3983 43.2676C41.5272 43.3724 41.7046 43.5419 41.8923 43.7214C42.1349 43.9532 42.3856 44.1931 42.5546 44.3149C43.0385 44.6638 44.5349 45.2966 44.55 45.3031L44.6224 45.3335H44.6221ZM44.154 45.8788L44.4227 45.4014C44.1121 45.2683 42.9122 44.7461 42.4721 44.4285C42.2952 44.301 42.0409 44.0579 41.795 43.8225C41.6095 43.6452 41.4342 43.4776 41.3096 43.3765C40.8892 43.0351 40.4268 42.8822 39.9796 42.7346C39.6915 42.6394 39.3935 42.5409 39.1126 42.3935C38.7574 42.207 38.6483 41.8875 38.6179 41.759C38.6162 41.7521 38.6085 41.7454 38.6016 41.7413C38.5901 41.7713 38.6028 41.8307 38.6155 41.8609L38.6184 41.8691C38.6198 41.8738 38.7624 42.3635 39.226 42.6615C39.4863 42.8288 39.7799 42.9278 40.0637 43.0236C40.4122 43.1411 40.7413 43.2523 40.9884 43.4779C41.173 43.6464 41.382 43.8762 41.5841 44.0987C41.8336 44.3731 42.0915 44.6569 42.2981 44.8187C42.7482 45.171 43.8817 45.7437 44.154 45.8793V45.8788Z" fill="#85340A"/>
<path d="M44.3248 45.6127L44.2342 45.7704C44.2285 45.7663 43.8119 45.4334 43.4447 45.2589C43.3215 45.2004 43.1513 45.1268 42.9567 45.0484C42.687 44.9396 42.425 44.7294 42.2666 44.5935C42.0825 44.4353 41.5358 43.8538 41.5552 43.8315C41.5633 43.8222 41.6961 43.9597 41.6961 43.9597C41.7009 43.965 42.153 44.4413 42.3387 44.57C42.4881 44.6735 42.7357 44.8351 42.9981 44.941C43.1968 45.0211 43.3812 45.0729 43.5125 45.134C44.1077 45.4108 44.3011 45.5964 44.3246 45.6127H44.3248Z" fill="#85340A"/>
<path d="M52.4688 51.6621L52.8053 51.0566C52.8053 51.0566 54.2142 51.7376 54.7389 52.1436C55.1205 52.4389 55.6478 53.1082 56.0603 53.4804C56.4982 53.8756 57.2312 53.907 57.8179 54.2795C58.3129 54.5938 58.4598 55.1084 58.4598 55.1084C58.4598 55.1084 58.5193 55.2481 58.4529 55.3159C58.4203 55.3493 58.3395 55.3138 58.3251 55.2541C58.2889 55.1045 58.1758 54.8303 57.8628 54.6681C57.1521 54.3001 56.3563 54.2577 55.6487 53.6896C55.3551 53.454 54.7902 52.8651 54.4834 52.6465C53.9853 52.2915 52.4688 51.6619 52.4688 51.6619V51.6621Z" fill="#F6B40E"/>
<path d="M52.3672 51.6971L52.7739 50.9648L52.8336 50.9936C52.8914 51.0214 54.2552 51.6825 54.7797 52.0883C54.9966 52.2561 55.2603 52.543 55.5153 52.8203C55.7164 53.0391 55.9244 53.2654 56.1052 53.4284C56.3317 53.6328 56.6478 53.7376 56.9827 53.8483C57.2751 53.9452 57.5776 54.0453 57.8535 54.2206C58.3475 54.5341 58.5081 55.0314 58.5241 55.0851C58.5371 55.117 58.5924 55.2716 58.5009 55.3651C58.4709 55.3958 58.4247 55.4065 58.3774 55.3934C58.318 55.3771 58.2689 55.3277 58.2549 55.2706C58.2283 55.1609 58.1337 54.8883 57.8285 54.7304C57.5572 54.5899 57.2773 54.4991 56.981 54.403C56.521 54.2536 56.0452 54.0995 55.6028 53.7445C55.4731 53.6405 55.295 53.472 55.1064 53.2937C54.8626 53.0631 54.6105 52.8248 54.4408 52.7038C53.9549 52.3574 52.4549 51.7331 52.4398 51.7268L52.3672 51.6966V51.6971ZM52.8322 51.1492L52.5661 51.6281C52.8775 51.7594 54.0803 52.275 54.5222 52.5899C54.6999 52.7165 54.9554 52.9581 55.2027 53.1921C55.3892 53.3685 55.5654 53.535 55.6907 53.6355C56.1131 53.9744 56.5762 54.1247 57.0244 54.2699C57.313 54.3637 57.6114 54.4603 57.8933 54.6062C58.2497 54.7908 58.3604 55.1096 58.3916 55.238C58.3933 55.245 58.4009 55.2517 58.4081 55.2555C58.4196 55.2253 58.4064 55.1661 58.3937 55.1362L58.3909 55.128C58.3894 55.1232 58.2439 54.6345 57.7787 54.339C57.5174 54.1731 57.2233 54.0758 56.939 53.9816C56.5898 53.8661 56.26 53.7568 56.0117 53.5327C55.8262 53.3651 55.6157 53.1364 55.4125 52.9152C55.1613 52.6422 54.9019 52.3596 54.6943 52.1992C54.2423 51.8495 53.1057 51.2832 52.8324 51.1492H52.8322Z" fill="#85340A"/>
<path d="M52.6643 51.417L52.7539 51.2588C52.7597 51.2629 53.1782 51.5934 53.5464 51.7657C53.6698 51.8235 53.8405 51.8961 54.0356 51.9735C54.3057 52.0807 54.5691 52.2897 54.728 52.4246C54.9131 52.5816 55.4629 53.1603 55.4438 53.1828C55.4358 53.1921 55.3021 53.0553 55.3021 53.0553C55.2973 53.05 54.8426 52.5764 54.6561 52.4486C54.5061 52.3458 54.2578 52.1857 53.9946 52.0812C53.7954 52.0021 53.6108 51.9515 53.479 51.8911C52.8822 51.6176 52.6878 51.433 52.6641 51.417H52.6643Z" fill="#85340A"/>
<path d="M43.619 47.1285L43.5361 47.8162C43.5361 47.8162 41.9743 47.7174 41.3352 47.5396C40.8705 47.4101 40.1294 46.9895 39.6071 46.8006C39.0524 46.6 38.3616 46.8473 37.6778 46.7241C37.1009 46.6201 36.7706 46.199 36.7706 46.199C36.7706 46.199 36.663 46.0918 36.6987 46.0041C36.7162 45.961 36.8044 45.9634 36.8403 46.013C36.9305 46.1379 37.1385 46.349 37.4896 46.3811C38.2866 46.4535 39.0395 46.1925 39.9093 46.4514C40.2703 46.5588 41.0157 46.8907 41.3822 46.9773C41.9774 47.118 43.6195 47.1285 43.6195 47.1285H43.619Z" fill="#F6B40E"/>
<path d="M43.6984 47.0586L43.598 47.8901L43.5318 47.8861C43.4678 47.882 41.9553 47.7849 41.3166 47.6071C41.0524 47.5335 40.7001 47.3674 40.3593 47.2068C40.0903 47.08 39.8123 46.9491 39.5834 46.8662C39.2965 46.7624 38.964 46.7849 38.6121 46.8087C38.3049 46.8293 37.9868 46.8508 37.6654 46.7928C37.0896 46.689 36.7533 46.289 36.7179 46.2454C36.6939 46.2207 36.5844 46.0984 36.6337 45.9774C36.65 45.9376 36.6886 45.9103 36.7373 45.9045C36.7984 45.8971 36.8626 45.9242 36.8972 45.9719C36.9633 46.0637 37.1539 46.2801 37.4961 46.3111C37.8006 46.3386 38.0939 46.317 38.4046 46.2943C38.8868 46.2588 39.3859 46.2221 39.9292 46.3839C40.0886 46.4314 40.3171 46.5201 40.5592 46.614C40.8719 46.7355 41.1955 46.8609 41.3981 46.9088C41.9786 47.0462 43.6035 47.0582 43.6198 47.0582L43.6984 47.0586ZM43.4748 47.7415L43.5404 47.1977C43.2025 47.1936 41.8942 47.1701 41.366 47.0452C41.1538 46.9951 40.8257 46.8679 40.5086 46.7447C40.2694 46.6517 40.0433 46.5639 39.8895 46.5181C39.3705 46.3638 38.8847 46.3995 38.4149 46.434C38.1124 46.4563 37.7994 46.4793 37.4834 46.4506C37.0839 46.4144 36.861 46.1608 36.7835 46.0536C36.7795 46.0479 36.7696 46.0445 36.7617 46.0436C36.7625 46.0757 36.797 46.1258 36.8202 46.1488L36.826 46.1553C36.8291 46.1593 37.1484 46.557 37.6905 46.6548C37.9949 46.7097 38.3041 46.6888 38.603 46.6687C38.97 46.644 39.3166 46.6205 39.6313 46.7343C39.8664 46.8194 40.1474 46.9517 40.4192 47.08C40.7547 47.2382 41.1018 47.4016 41.3544 47.4719C41.905 47.625 43.1715 47.7204 43.475 47.7415H43.4748Z" fill="#85340A"/>
<path d="M43.5334 47.431L43.5099 47.6113C43.5032 47.6098 42.9908 47.4615 42.585 47.4409C42.4488 47.4339 42.2633 47.4313 42.0536 47.4332C41.7628 47.4358 41.4402 47.3419 41.242 47.2769C41.0114 47.2014 40.2837 46.873 40.2931 46.845C40.2969 46.8332 40.4723 46.9095 40.4723 46.9095C40.4788 46.9126 41.0785 47.1796 41.2995 47.2275C41.4771 47.2661 41.7676 47.3205 42.0507 47.3179C42.265 47.316 42.4551 47.2932 42.5998 47.2994C43.2556 47.3272 43.5054 47.4248 43.5334 47.431Z" fill="#85340A"/>
<path d="M53.3677 49.9069L53.4468 49.2188C53.4468 49.2188 55.0091 49.3086 55.649 49.4829C56.1145 49.6097 56.858 50.0263 57.3813 50.2123C57.9371 50.4098 58.6265 50.1583 59.311 50.2779C59.8887 50.3789 60.2214 50.7978 60.2214 50.7978C60.2214 50.7978 60.3297 50.9043 60.2942 50.9922C60.277 51.0354 60.1888 51.0334 60.1526 50.9841C60.0617 50.8597 59.8525 50.6497 59.5011 50.6197C58.7037 50.5517 57.9525 50.8172 57.0812 50.5632C56.7197 50.4577 55.9724 50.1301 55.6054 50.0454C55.0095 49.9081 53.3672 49.9069 53.3672 49.9069H53.3677Z" fill="#F6B40E"/>
<path d="M53.2891 49.9767L53.3847 49.1445L53.4509 49.1484C53.5149 49.152 55.0278 49.2406 55.6678 49.4149C55.9324 49.4868 56.2857 49.651 56.6275 49.8097C56.8971 49.9348 57.1759 50.0642 57.4053 50.1457C57.6927 50.2478 58.0251 50.2236 58.3767 50.198C58.684 50.1754 59.0019 50.1522 59.3238 50.2085C59.9002 50.3092 60.2387 50.7071 60.2741 50.7507C60.2983 50.7751 60.4086 50.8969 60.3599 51.0182C60.3439 51.058 60.3053 51.0855 60.2569 51.0915C60.1957 51.0992 60.1313 51.0726 60.0968 51.0251C60.0301 50.9338 59.8384 50.7183 59.4961 50.6893C59.1917 50.6635 58.8983 50.6867 58.5877 50.7111C58.1054 50.7493 57.6068 50.7888 57.0625 50.6301C56.9029 50.5836 56.6737 50.4961 56.4312 50.4036C56.1176 50.284 55.7936 50.1603 55.5906 50.1134C55.0093 49.9794 53.3845 49.9765 53.3682 49.9765H53.2895L53.2891 49.9767ZM53.5089 49.2927L53.4463 49.837C53.7843 49.8392 55.0927 49.8552 55.6215 49.9772C55.8339 50.0261 56.1627 50.1517 56.4805 50.273C56.7205 50.3646 56.947 50.4511 57.1011 50.4959C57.621 50.6474 58.1064 50.609 58.5762 50.5717C58.8786 50.5477 59.1914 50.523 59.5076 50.5498C59.9074 50.5839 60.1318 50.836 60.2097 50.9427C60.214 50.9484 60.2236 50.9518 60.2315 50.9525C60.2305 50.9204 60.1957 50.8705 60.1725 50.8478L60.1667 50.8415C60.1636 50.8375 59.8422 50.4417 59.2993 50.3468C58.9944 50.2936 58.6855 50.3161 58.3868 50.338C58.0201 50.3648 57.6735 50.39 57.3583 50.278C57.1227 50.1944 56.841 50.0635 56.5685 49.937C56.232 49.7807 55.8842 49.6191 55.6311 49.5503C55.0796 49.4003 53.8128 49.3121 53.5091 49.2927H53.5089Z" fill="#85340A"/>
<path d="M53.4536 49.6043L53.4759 49.4238C53.4826 49.4253 53.9958 49.5705 54.4018 49.589C54.5382 49.5952 54.7235 49.5969 54.9332 49.5938C55.224 49.5895 55.5471 49.6815 55.7455 49.7455C55.9766 49.8198 56.706 50.1439 56.6969 50.1721C56.693 50.1839 56.5173 50.1086 56.5173 50.1086C56.5109 50.1055 55.9095 49.8421 55.6882 49.7953C55.5104 49.7577 55.2194 49.705 54.9366 49.7091C54.7225 49.7122 54.5325 49.7359 54.3874 49.7306C53.7314 49.7064 53.4812 49.6103 53.4531 49.6043H53.4536Z" fill="#85340A"/>
<path d="M43.4766 49.0989L43.6631 49.7659C43.6631 49.7659 42.1822 50.2724 41.5238 50.3527C41.0449 50.4112 40.1993 50.306 39.6444 50.3311C39.0552 50.358 38.5116 50.851 37.8326 50.9987C37.2597 51.1233 36.7933 50.8608 36.7933 50.8608C36.7933 50.8608 36.6528 50.8031 36.6523 50.7084C36.6521 50.6619 36.7346 50.6303 36.7866 50.6624C36.9174 50.7434 37.1907 50.8589 37.5275 50.7539C38.2913 50.5159 38.887 49.9864 39.7897 49.8927C40.1643 49.8539 40.98 49.8752 41.3517 49.8151C41.9555 49.7173 43.4766 49.0986 43.4766 49.0986V49.0989Z" fill="#F6B40E"/>
<path d="M43.5228 49.0049L43.7483 49.8114L43.6855 49.833C43.6249 49.8539 42.1903 50.3428 41.5321 50.4231C41.2601 50.4562 40.8708 50.4378 40.4945 50.4198C40.1975 50.4056 39.8905 50.391 39.6474 50.402C39.3425 50.4159 39.0441 50.5638 38.7282 50.7203C38.4521 50.8572 38.1666 50.9986 37.8474 51.0679C37.2757 51.1923 36.8119 50.9516 36.7625 50.9246C36.7309 50.9109 36.5828 50.84 36.582 50.7093C36.582 50.6664 36.6072 50.6264 36.6499 50.6024C36.7036 50.5722 36.7733 50.5727 36.8232 50.6034C36.9193 50.6628 37.1784 50.7899 37.5063 50.6878C37.798 50.5969 38.0609 50.4646 38.3392 50.3246C38.7714 50.1072 39.2182 49.8824 39.7821 49.8239C39.9475 49.8066 40.1927 49.8011 40.4523 49.7954C40.7879 49.788 41.1347 49.78 41.3404 49.7467C41.9293 49.6513 43.435 49.0406 43.4501 49.0346L43.523 49.0051L43.5228 49.0049ZM43.5774 49.7216L43.4298 49.194C43.116 49.3196 41.8984 49.7985 41.3624 49.8853C41.1472 49.92 40.7956 49.9279 40.4552 49.9356C40.1985 49.9414 39.9562 49.9469 39.7965 49.9634C39.2579 50.0193 38.8229 50.2383 38.402 50.45C38.1309 50.5864 37.8507 50.7273 37.5477 50.8217C37.1647 50.9411 36.8617 50.7923 36.7493 50.723C36.7433 50.7191 36.733 50.7199 36.7254 50.722C36.7385 50.7515 36.7894 50.7843 36.8196 50.7968L36.8272 50.8004C36.8318 50.8028 37.2788 51.048 37.8172 50.931C38.1194 50.8654 38.3972 50.7278 38.6654 50.5948C38.995 50.4315 39.3064 50.2772 39.6405 50.2621C39.8902 50.2506 40.2006 50.2654 40.5007 50.2798C40.8713 50.2975 41.2543 50.3158 41.5149 50.2841C42.0822 50.2148 43.2886 49.8184 43.5772 49.7218L43.5774 49.7216Z" fill="#85340A"/>
<path d="M43.5072 49.4123L43.5546 49.5878C43.5477 49.589 43.0177 49.6482 42.6347 49.7843C42.5062 49.8301 42.3339 49.8984 42.1407 49.9807C41.8732 50.0945 41.5391 50.1309 41.331 50.1468C41.0889 50.1652 40.2912 50.1403 40.2891 50.1108C40.2881 50.0986 40.4794 50.1019 40.4794 50.1019C40.4866 50.1024 41.1428 50.1194 41.3653 50.0792C41.5443 50.0468 41.8334 49.9859 42.0939 49.8752C42.291 49.7913 42.458 49.6976 42.5942 49.648C43.2107 49.4227 43.4789 49.4174 43.5069 49.4121L43.5072 49.4123Z" fill="#85340A"/>
<path d="M53.5302 47.9406L53.3398 47.2745C53.3398 47.2745 54.8178 46.7597 55.4757 46.6758C55.9544 46.6147 56.8005 46.7151 57.3554 46.6868C57.9443 46.6566 58.485 46.1607 59.1634 46.009C59.7355 45.8812 60.2034 46.141 60.2034 46.141C60.2034 46.141 60.3441 46.1978 60.3453 46.2928C60.3458 46.3393 60.2636 46.3714 60.2113 46.3395C60.08 46.2594 59.806 46.1453 59.4699 46.252C58.7072 46.4943 58.1147 47.0272 57.2125 47.1259C56.8381 47.1669 56.0225 47.1501 55.6509 47.2124C55.0479 47.3136 53.5302 47.9409 53.5302 47.9409V47.9406Z" fill="#F6B40E"/>
<path d="M53.4879 48.0346L53.2578 47.2292L53.3204 47.2074C53.381 47.1863 54.8127 46.6892 55.4704 46.6053C55.7422 46.5705 56.1317 46.5871 56.508 46.6029C56.805 46.6154 57.112 46.6283 57.3551 46.6158C57.6597 46.6002 57.9574 46.4507 58.2726 46.2922C58.5478 46.1539 58.8325 46.0109 59.1516 45.9397C59.7225 45.8121 60.1877 46.0502 60.2371 46.0768C60.2688 46.0902 60.4174 46.1604 60.4188 46.2911C60.4193 46.334 60.3941 46.3742 60.3517 46.3984C60.298 46.4289 60.2285 46.4289 60.1784 46.3984C60.0818 46.3395 59.8222 46.2139 59.4948 46.3179C59.2036 46.4104 58.9414 46.5442 58.664 46.6858C58.2333 46.9056 57.7877 47.1328 57.224 47.1947C57.0588 47.2127 56.8136 47.2196 56.554 47.227C56.2187 47.2364 55.8719 47.2462 55.6665 47.2807C55.078 47.3795 53.5759 47.9986 53.5608 48.0048L53.4882 48.0348L53.4879 48.0346ZM53.4292 47.3184L53.5797 47.8452C53.8928 47.7179 55.1077 47.2321 55.643 47.1422C55.858 47.1062 56.2096 47.0962 56.55 47.0866C56.8067 47.0794 57.049 47.0727 57.2086 47.0552C57.7467 46.9962 58.1806 46.775 58.6003 46.5607C58.8706 46.4229 59.1501 46.2803 59.4524 46.1841C59.8349 46.0626 60.1386 46.2098 60.2515 46.2786C60.2575 46.2822 60.2678 46.2817 60.2755 46.2793C60.2623 46.2501 60.211 46.2172 60.1808 46.205L60.1731 46.2014C60.1686 46.199 59.7201 45.9562 59.1825 46.0763C58.8805 46.1439 58.6036 46.2829 58.3361 46.4174C58.0075 46.5825 57.6971 46.7386 57.363 46.7556C57.1135 46.7685 56.8028 46.7553 56.5027 46.7426C56.1322 46.727 55.7489 46.711 55.4886 46.7441C54.9217 46.8165 53.7175 47.2199 53.4294 47.3179L53.4292 47.3184Z" fill="#85340A"/>
<path d="M53.5015 47.6275L53.4531 47.4523C53.4601 47.4511 53.9896 47.389 54.3719 47.2505C54.5001 47.204 54.6722 47.1347 54.8647 47.0515C55.1317 46.9362 55.4653 46.8979 55.6734 46.8809C55.9152 46.8612 56.7132 46.8813 56.7156 46.9108C56.7165 46.9231 56.5255 46.9209 56.5255 46.9209C56.5183 46.9204 55.862 46.9072 55.6396 46.9487C55.4608 46.982 55.172 47.0446 54.9121 47.1568C54.7156 47.2416 54.549 47.3363 54.4131 47.3869C53.7978 47.6155 53.5298 47.6225 53.5015 47.6277V47.6275Z" fill="#85340A"/>
<path d="M44.0867 50.9805L44.5143 51.5255C44.5143 51.5255 43.34 52.56 42.7624 52.8862C42.3422 53.1235 41.5208 53.3498 41.0177 53.5857C40.4836 53.8359 40.1701 54.4994 39.5992 54.8958C39.1176 55.2302 38.5862 55.1662 38.5862 55.1662C38.5862 55.1662 38.4345 55.1667 38.3976 55.0792C38.3796 55.0363 38.4436 54.9756 38.504 54.9855C38.656 55.0101 38.9527 55.0123 39.2236 54.7865C39.8384 54.2743 40.1859 53.5571 40.9841 53.1252C41.3154 52.9459 42.0771 52.6535 42.3976 52.4558C42.9179 52.1343 44.0864 50.9807 44.0864 50.9807L44.0867 50.9805Z" fill="#F6B40E"/>
<path d="M44.0926 50.875L44.6096 51.5339L44.56 51.5778C44.5118 51.6202 43.3737 52.6209 42.7963 52.9469C42.5576 53.0816 42.1909 53.2134 41.8363 53.3409C41.5566 53.4414 41.2673 53.5454 41.047 53.6487C40.7709 53.7781 40.5516 54.0291 40.3196 54.2947C40.1168 54.5267 39.9073 54.7666 39.6389 54.9529C39.1583 55.2865 38.6377 55.2417 38.5818 55.2357C38.5476 55.2352 38.3834 55.2263 38.3328 55.1058C38.316 55.0662 38.3242 55.0195 38.3546 54.9811C38.3927 54.9327 38.4572 54.9064 38.5152 54.9157C38.6269 54.9339 38.9148 54.9521 39.1787 54.7321C39.4136 54.5365 39.6058 54.3136 39.809 54.078C40.125 53.7117 40.4519 53.333 40.9505 53.0631C41.0967 52.984 41.321 52.885 41.5585 52.7803C41.8656 52.6449 42.1832 52.5051 42.3603 52.3956C42.868 52.0821 44.0252 50.9416 44.037 50.9301L44.0928 50.875H44.0926ZM44.4173 51.5162L44.0791 51.0852C43.8373 51.3213 42.8955 52.23 42.4339 52.515C42.2484 52.6295 41.9265 52.7714 41.6151 52.9088C41.3802 53.0123 41.1583 53.1101 41.0171 53.1866C40.5408 53.4442 40.2228 53.8131 39.915 54.1698C39.7168 54.3994 39.5118 54.6369 39.2681 54.8402C38.9598 55.0972 38.6231 55.0756 38.4924 55.0545C38.4855 55.0533 38.4761 55.0578 38.4699 55.0629C38.4931 55.0852 38.5528 55.096 38.5857 55.096L38.5943 55.0964C38.5993 55.0972 39.1063 55.1525 39.5588 54.8383C39.8129 54.6619 40.0169 54.4284 40.2139 54.2029C40.456 53.9258 40.6844 53.6643 40.9874 53.5221C41.2136 53.416 41.5061 53.311 41.7889 53.2094C42.1379 53.0838 42.4989 52.9541 42.7273 52.8251C43.2249 52.5442 44.188 51.7161 44.4173 51.5164V51.5162Z" fill="#85340A"/>
<path d="M44.237 51.2559L44.348 51.3999C44.3422 51.4037 43.8751 51.6612 43.5733 51.9335C43.4722 52.0248 43.3391 52.154 43.192 52.3038C42.9882 52.5114 42.6936 52.6729 42.5076 52.7671C42.2912 52.8766 41.5446 53.1592 41.5314 53.1326C41.5259 53.1216 41.7037 53.0516 41.7037 53.0516C41.7104 53.0492 42.3233 52.8139 42.5136 52.6916C42.6666 52.5931 42.9106 52.4263 43.1088 52.2245C43.2588 52.0715 43.3772 51.9212 43.4839 51.823C43.9674 51.3791 44.213 51.2712 44.237 51.2559Z" fill="#85340A"/>
<path d="M52.9346 46.0567L52.5039 45.514C52.5039 45.514 53.6722 44.4728 54.2481 44.1435C54.6669 43.9038 55.4871 43.6729 55.9888 43.4342C56.5214 43.1809 56.831 42.5157 57.3998 42.1162C57.8797 41.7791 58.4111 41.8403 58.4111 41.8403C58.4111 41.8403 58.5628 41.8388 58.6002 41.9261C58.6184 41.969 58.5549 42.0299 58.4943 42.0205C58.3421 41.9968 58.0456 41.9963 57.7759 42.2235C57.164 42.7393 56.8205 43.4582 56.0247 43.8947C55.6947 44.0759 54.9344 44.3724 54.6151 44.572C54.0967 44.8963 52.9344 46.0567 52.9344 46.0567H52.9346Z" fill="#F6B40E"/>
<path d="M52.9271 46.1618L52.4062 45.5057L52.4556 45.4616C52.5036 45.419 53.6361 44.4118 54.2116 44.0827C54.4496 43.9466 54.8154 43.8128 55.1694 43.6834C55.4486 43.5813 55.7372 43.4756 55.957 43.3711C56.2324 43.24 56.4503 42.988 56.6809 42.721C56.8822 42.4878 57.0905 42.2467 57.358 42.059C57.8367 41.7227 58.3575 41.7647 58.4134 41.7702C58.4477 41.7704 58.6118 41.7786 58.6631 41.8986C58.6799 41.9382 58.6722 41.9849 58.642 42.0235C58.6042 42.0722 58.5399 42.0988 58.4819 42.0899C58.3702 42.0724 58.0824 42.0556 57.8197 42.2771C57.586 42.4741 57.3949 42.698 57.1929 42.9348C56.8789 43.3027 56.5543 43.6834 56.057 43.9561C55.9112 44.036 55.6874 44.1362 55.4503 44.2423C55.144 44.3794 54.8274 44.5211 54.6507 44.6316C54.145 44.948 52.994 46.0947 52.9825 46.1064L52.9269 46.162L52.9271 46.1618ZM52.5987 45.5225L52.9393 45.9516C53.1797 45.714 54.1164 44.8003 54.5767 44.5125C54.7615 44.3969 55.0826 44.2531 55.3933 44.1141C55.6277 44.0094 55.8489 43.9101 55.9896 43.8329C56.4642 43.5726 56.7804 43.2021 57.0862 42.8435C57.2832 42.6127 57.4867 42.3739 57.7293 42.1695C58.0361 41.9109 58.3731 41.9305 58.5037 41.9509C58.5107 41.9521 58.52 41.9473 58.5263 41.9425C58.5028 41.9205 58.4431 41.9099 58.4103 41.9101L58.4016 41.9097C58.3966 41.9092 57.8894 41.8565 57.4386 42.1733C57.1854 42.3512 56.9829 42.5856 56.7871 42.8123C56.5467 43.0906 56.3194 43.3536 56.0174 43.4974C55.7916 43.6048 55.4999 43.7114 55.2178 43.8147C54.8693 43.9422 54.5093 44.0738 54.2816 44.2042C53.7854 44.488 52.8274 45.3214 52.599 45.5225H52.5987Z" fill="#85340A"/>
<path d="M52.7836 45.7803L52.6719 45.637C52.6776 45.6331 53.1434 45.3731 53.4434 45.0991C53.5441 45.0071 53.6764 44.8771 53.8226 44.7266C54.0252 44.5181 54.3188 44.3546 54.5043 44.2595C54.7203 44.1487 55.4652 43.8621 55.4787 43.8884C55.4842 43.8994 55.3068 43.9704 55.3068 43.9704C55.3001 43.9728 54.6884 44.2115 54.499 44.335C54.3466 44.4342 54.1035 44.6025 53.9065 44.8055C53.7574 44.9591 53.6398 45.1104 53.5336 45.2089C53.0525 45.6557 52.8075 45.7647 52.7836 45.7803Z" fill="#85340A"/>
<path d="M45.3682 52.4785L45.9718 52.8184C45.9718 52.8184 45.2829 54.2235 44.874 54.746C44.5765 55.1259 43.9042 55.6496 43.5298 56.0597C43.1321 56.4955 43.0964 57.2282 42.7206 57.8128C42.4035 58.3061 41.8881 58.4502 41.8881 58.4502C41.8881 58.4502 41.7482 58.5087 41.6806 58.442C41.6475 58.4092 41.6834 58.3286 41.7431 58.3147C41.8929 58.2793 42.1679 58.1678 42.3316 57.8557C42.7036 57.1472 42.7503 56.3517 43.3222 55.6472C43.5595 55.3548 44.1515 54.7932 44.3718 54.4878C44.7294 53.9919 45.3677 52.4788 45.3677 52.4788L45.3682 52.4785Z" fill="#F6B40E"/>
<path d="M45.3335 52.3791L46.0634 52.79L46.0342 52.8494C46.0059 52.9069 45.3374 54.2672 44.9287 54.7892C44.7597 55.0052 44.4714 55.2672 44.1926 55.5205C43.9726 55.7204 43.7451 55.9273 43.5812 56.1071C43.3755 56.3324 43.2691 56.648 43.1562 56.9822C43.0577 57.2741 42.9558 57.5761 42.7792 57.8508C42.4628 58.3429 41.9647 58.5008 41.9108 58.5167C41.8789 58.5294 41.7238 58.5838 41.631 58.492C41.6006 58.4618 41.5901 58.4155 41.6032 58.3683C41.62 58.3089 41.6694 58.26 41.7264 58.2465C41.8365 58.2206 42.1095 58.1274 42.2691 57.823C42.4112 57.5524 42.5035 57.2729 42.6013 56.9774C42.753 56.5181 42.91 56.0433 43.2676 55.603C43.3724 55.474 43.5419 55.2967 43.7214 55.109C43.9532 54.8664 44.1931 54.6157 44.3149 54.4467C44.6638 53.9628 45.2966 52.4664 45.3031 52.4513L45.3335 52.3789V52.3791ZM45.8788 52.8473L45.4014 52.5786C45.2683 52.8892 44.7461 54.0891 44.4285 54.5292C44.301 54.7061 44.0579 54.9604 43.8225 55.2063C43.6452 55.3918 43.4776 55.567 43.3765 55.6917C43.0351 56.1121 42.8822 56.5745 42.7346 57.0217C42.6394 57.3098 42.5409 57.6078 42.3935 57.8887C42.207 58.2439 41.8875 58.353 41.759 58.3834C41.7521 58.3851 41.7454 58.3927 41.7413 58.3997C41.7713 58.4112 41.8307 58.3985 41.8609 58.3858L41.8691 58.3829C41.8738 58.3815 42.3635 58.2389 42.6615 57.7753C42.8288 57.515 42.9278 57.2214 43.0236 56.9376C43.1411 56.5891 43.2523 56.26 43.4779 56.0129C43.6464 55.8283 43.8762 55.6193 44.0987 55.4172C44.3731 55.1677 44.6569 54.9098 44.8187 54.7032C45.171 54.253 45.7437 53.1196 45.8793 52.8473H45.8788Z" fill="#85340A"/>
<path d="M45.6097 52.6768L45.7674 52.7674C45.7634 52.7731 45.4304 53.1897 45.2559 53.5569C45.1975 53.6801 45.1239 53.8503 45.0455 54.0449C44.9367 54.3146 44.7265 54.5765 44.5906 54.735C44.4324 54.9191 43.8509 55.4658 43.8286 55.4464C43.8192 55.4382 43.9568 55.3054 43.9568 55.3054C43.9621 55.3007 44.4384 54.8486 44.5671 54.6628C44.6706 54.5133 44.8322 54.2659 44.9381 54.0034C45.0182 53.8047 45.0699 53.6204 45.1311 53.4891C45.4079 52.8939 45.5934 52.7005 45.6097 52.677V52.6768Z" fill="#85340A"/>
<path d="M51.6641 44.5419L51.0586 44.2054C51.0586 44.2054 51.7396 42.7965 52.1456 42.2718C52.4409 41.8902 53.1101 41.3629 53.4823 40.9504C53.8776 40.5125 53.909 39.7795 54.2815 39.1927C54.5957 38.6978 55.1103 38.5508 55.1103 38.5508C55.1103 38.5508 55.2501 38.4914 55.3179 38.5578C55.3512 38.5904 55.3157 38.6712 55.2561 38.6855C55.1065 38.7217 54.8323 38.8349 54.67 39.1479C54.3021 39.8586 54.2597 40.6544 53.6916 41.3619C53.456 41.6556 52.8671 42.2205 52.6485 42.5273C52.2935 43.0254 51.6638 44.5419 51.6638 44.5419H51.6641Z" fill="#F6B40E"/>
<path d="M51.6971 44.6414L50.9648 44.2347L50.9936 44.175C51.0214 44.1172 51.6825 42.7534 52.0883 42.2289C52.2561 42.012 52.543 41.7483 52.8203 41.4933C53.0391 41.2922 53.2654 41.0842 53.4284 40.9034C53.6328 40.6769 53.7376 40.3608 53.8483 40.0259C53.9452 39.7335 54.0453 39.431 54.2206 39.1551C54.5341 38.6611 55.0314 38.5005 55.0851 38.4845C55.117 38.4715 55.2716 38.4162 55.3651 38.5077C55.3958 38.5377 55.4065 38.5839 55.3934 38.6312C55.3771 38.6906 55.3277 38.7397 55.2706 38.7536C55.1609 38.7803 54.8883 38.8749 54.7304 39.1801C54.5899 39.4514 54.4991 39.7313 54.403 40.0276C54.2539 40.4878 54.0995 40.9634 53.7445 41.4058C53.6405 41.5355 53.472 41.7136 53.2937 41.9022C53.0631 42.146 52.8248 42.3981 52.7038 42.5678C52.3574 43.0537 51.7331 44.5537 51.7268 44.5688L51.6966 44.6414H51.6971ZM51.1492 44.1764L51.6281 44.4425C51.7594 44.1311 52.275 42.9283 52.5899 42.4863C52.7165 42.3087 52.9581 42.0532 53.1921 41.8059C53.3685 41.6194 53.535 41.4432 53.6355 41.3179C53.9744 40.8955 54.1247 40.4324 54.2699 39.9842C54.3637 39.6956 54.4603 39.3972 54.6062 39.1153C54.7908 38.7589 55.1096 38.6482 55.238 38.617C55.245 38.6153 55.2517 38.6077 55.2555 38.6005C55.2253 38.589 55.1661 38.6022 55.1362 38.6149L55.128 38.6177C55.1232 38.6192 54.6345 38.7647 54.339 39.2299C54.1731 39.4912 54.0758 39.7853 53.9816 40.0695C53.8661 40.4188 53.7568 40.7486 53.5327 40.9969C53.3651 41.1824 53.1364 41.3929 52.9152 41.5961C52.6422 41.8473 52.3596 42.1067 52.1992 42.3143C51.8495 42.7663 51.2832 43.9029 51.1492 44.1762V44.1764Z" fill="#85340A"/>
<path d="M51.416 44.3454L51.2578 44.2557C51.2619 44.25 51.5924 43.8315 51.7648 43.4633C51.8225 43.3399 51.8952 43.1692 51.9726 42.9741C52.0797 42.704 52.2887 42.4406 52.4237 42.2816C52.5807 42.0966 53.1593 41.5467 53.1818 41.5659C53.1912 41.5738 53.0543 41.7076 53.0543 41.7076C53.049 41.7124 52.5754 42.1671 52.4476 42.3535C52.3448 42.5036 52.1847 42.7519 52.0802 43.0151C52.0011 43.2143 51.9505 43.3988 51.8901 43.5307C51.6166 44.1275 51.4321 44.3219 51.416 44.3456V44.3454Z" fill="#85340A"/>
<path d="M48.5005 53.7014C51.3615 53.7014 53.6807 51.3727 53.6807 48.5001C53.6807 45.6275 51.3615 43.2988 48.5005 43.2988C45.6396 43.2988 43.3203 45.6275 43.3203 48.5001C43.3203 51.3727 45.6396 53.7014 48.5005 53.7014Z" fill="#85340A"/>
<path d="M48.4998 53.4896C51.2439 53.4896 53.4683 51.2559 53.4683 48.5006C53.4683 45.7453 51.2439 43.5117 48.4998 43.5117C45.7557 43.5117 43.5312 45.7453 43.5312 48.5006C43.5312 51.2559 45.7557 53.4896 48.4998 53.4896Z" fill="#F6B40E"/>
<path d="M50.1353 47.7042C50.3222 47.7042 50.4738 47.5527 50.4738 47.3658C50.4738 47.1789 50.3222 47.0273 50.1353 47.0273C49.9484 47.0273 49.7969 47.1789 49.7969 47.3658C49.7969 47.5527 49.9484 47.7042 50.1353 47.7042Z" fill="#85340A"/>
<path d="M49.3203 47.3892C49.3203 47.2356 49.7175 47.0371 50.1393 47.0371C50.4629 47.0371 50.9447 47.2821 50.9447 47.4467C50.9447 47.7123 50.3814 47.7411 50.1393 47.7411C49.6983 47.7411 49.3203 47.5474 49.3203 47.389V47.3892ZM49.4821 47.3892C49.4821 47.4825 49.7156 47.6689 50.1393 47.6689C50.5631 47.6689 50.8457 47.5776 50.8457 47.4448C50.8457 47.3521 50.4651 47.1097 50.1393 47.1097C49.7158 47.1097 49.4821 47.3082 49.4821 47.3895V47.3892Z" fill="#85340A"/>
<path d="M51.2283 47.412L51.2839 47.3657C51.2647 47.3427 50.8086 46.7861 50.1185 46.7861C49.5202 46.7861 48.9759 47.3182 48.9531 47.3403L49.0032 47.3923C49.0087 47.387 49.5483 46.8727 50.1171 46.8727C50.7733 46.8727 51.2237 47.4065 51.2283 47.412Z" fill="#85340A"/>
<path d="M50.7414 47.7634L50.8166 47.774C50.7975 47.797 50.7299 48.0539 50.04 48.0539C49.4418 48.0539 49.0892 47.6009 49.0664 47.5791H49.1637C49.1692 47.5844 49.47 47.9676 50.0388 47.9676C50.6951 47.9676 50.7371 47.7692 50.7416 47.7637L50.7414 47.7634Z" fill="#85340A"/>
<path d="M48.8502 48.7834L48.9487 48.7014C48.9413 48.6834 48.1328 46.9435 49.2527 46.4593C49.8919 46.183 50.5206 46.3642 50.9439 46.6043C51.2601 46.7839 51.4614 47.0128 51.4662 47.0176C51.4662 47.0176 51.3346 46.7899 51.2797 46.722C51.2694 46.7091 50.5216 45.7786 49.1527 46.3337C48.0372 46.7863 48.8181 48.7052 48.8507 48.7834H48.8502Z" fill="#85340A"/>
<path d="M48.3513 49.4027C48.3776 49.4015 48.5895 49.4207 48.6684 49.385C48.7326 49.3557 48.8 49.3428 48.8539 49.2881C48.9291 49.366 49.1391 49.4118 49.2319 49.3871C49.4251 49.3363 49.4306 48.9528 49.4306 48.9092H49.3582C49.3582 49.0051 49.3359 49.251 49.218 49.2821C49.1748 49.2939 49.0015 49.2323 48.9004 49.1223L48.8484 49.1196L48.7935 49.1292C48.7458 49.1791 48.6952 49.2934 48.6382 49.3193C48.5821 49.3447 48.4155 49.3277 48.3477 49.3308L48.351 49.4029L48.3513 49.4027Z" fill="#85340A"/>
<path d="M46.6861 47.7042C46.873 47.7042 47.0245 47.5527 47.0245 47.3658C47.0245 47.1789 46.873 47.0273 46.6861 47.0273C46.4992 47.0273 46.3477 47.1789 46.3477 47.3658C46.3477 47.5527 46.4992 47.7042 46.6861 47.7042Z" fill="#85340A"/>
<path d="M46.6804 47.7411C46.4383 47.7411 45.875 47.7123 45.875 47.4467C45.875 47.2821 46.3568 47.0371 46.6804 47.0371C47.1022 47.0371 47.4994 47.2353 47.4994 47.3892C47.4994 47.5431 47.1214 47.7413 46.6804 47.7413V47.7411ZM46.6804 47.1093C46.3546 47.1093 45.974 47.3516 45.974 47.4443C45.974 47.5771 46.242 47.6685 46.6804 47.6685C47.1188 47.6685 47.3376 47.482 47.3376 47.3887C47.3376 47.3075 47.1039 47.109 46.6804 47.109V47.1093Z" fill="#85340A"/>
<path d="M45.5947 47.412L45.5391 47.3657C45.5582 47.3427 46.0144 46.7861 46.7044 46.7861C47.3027 46.7861 47.847 47.3182 47.8698 47.3403L47.8197 47.3923C47.8142 47.387 47.2747 46.8727 46.7059 46.8727C46.0496 46.8727 45.5992 47.4065 45.5947 47.412Z" fill="#85340A"/>
<path d="M46.0753 47.7634L46 47.774C46.0192 47.797 46.0868 48.0539 46.7766 48.0539C47.3749 48.0539 47.7275 47.6009 47.7502 47.5791H47.6529C47.6474 47.5844 47.3466 47.9676 46.7778 47.9676C46.1215 47.9676 46.0796 47.7692 46.075 47.7637L46.0753 47.7634Z" fill="#85340A"/>
<path d="M47.9675 48.7834L47.869 48.7014C47.8765 48.6834 48.6849 46.9435 47.5651 46.4593C46.9259 46.183 46.2971 46.3642 45.8738 46.6043C45.5577 46.7839 45.3561 47.0128 45.3516 47.0176C45.3516 47.0176 45.4832 46.7899 45.538 46.722C45.5483 46.7091 46.2962 45.7786 47.6651 46.3337C48.7806 46.7863 47.9997 48.7052 47.9671 48.7834H47.9675Z" fill="#85340A"/>
<path d="M48.466 49.4027C48.4397 49.4015 48.2278 49.4207 48.1489 49.385C48.0847 49.3557 48.0173 49.3428 47.9634 49.2881C47.8882 49.366 47.6782 49.4118 47.5854 49.3871C47.3922 49.3363 47.3867 48.9528 47.3867 48.9092H47.4591C47.4591 49.0051 47.4814 49.251 47.5993 49.2821C47.6425 49.2939 47.8158 49.2323 47.9169 49.1223L47.9689 49.1196L48.0238 49.1292C48.0715 49.1791 48.1221 49.2934 48.1791 49.3193C48.2352 49.3447 48.4018 49.3277 48.4696 49.3308L48.4663 49.4029L48.466 49.4027Z" fill="#85340A"/>
<path d="M47.6825 51.6899L47.6094 51.6446C47.6228 51.6228 47.9447 51.1113 48.3658 51.1113C48.7642 51.1113 49.0717 51.6235 49.0847 51.6454L49.0106 51.689C49.0077 51.6842 48.7153 51.1971 48.3661 51.1971C47.9931 51.1971 47.6858 51.6849 47.6827 51.6897L47.6825 51.6899Z" fill="#85340A"/>
<path d="M48.4118 50.9496H48.1261C48.0532 50.9496 47.9825 50.9194 47.9326 50.8665C47.808 50.7349 47.7135 50.6467 47.6668 50.6182C47.5867 50.5693 47.319 50.4904 47.2227 50.464L47.2454 50.3809C47.26 50.3849 47.605 50.4791 47.7116 50.5446C47.7663 50.5779 47.8617 50.6661 47.9952 50.807C48.029 50.8427 48.0767 50.8631 48.1261 50.8631H48.4118V50.9492V50.9496Z" fill="#85340A"/>
<path d="M49.125 49.9504C49.0467 49.8697 48.8331 49.8373 48.7442 49.8435C48.6552 49.8498 48.4525 49.9535 48.3667 49.9993C48.2849 49.955 48.0965 49.8577 48.0083 49.8514C47.9203 49.8454 47.7061 49.8776 47.6277 49.9583C47.5088 50.0803 47.2099 50.2982 47.207 50.3004L47.2576 50.3699C47.2701 50.3608 47.5654 50.1458 47.6895 50.0183C47.7391 49.9672 47.9187 49.9315 48.0026 49.9372C48.0692 49.942 48.2586 50.0365 48.3623 50.095H48.3707C48.4822 50.0334 48.6838 49.9339 48.7504 49.9291C48.8331 49.9226 49.0138 49.9593 49.0634 50.0103C49.1874 50.1376 49.4827 50.3529 49.4954 50.3617L49.5459 50.2922C49.5428 50.2901 49.2442 50.0722 49.1253 49.9504H49.125Z" fill="#85340A"/>
<path d="M48.6295 50.9501H48.3438V50.8641H48.6295C48.6788 50.8641 48.7265 50.8435 48.7603 50.808C48.8938 50.6671 48.9892 50.5789 49.0439 50.5455C49.1505 50.4801 49.4955 50.3857 49.5101 50.3818L49.5329 50.465C49.4365 50.4911 49.1688 50.5702 49.0887 50.6191C49.042 50.6477 48.9475 50.7361 48.8229 50.8674C48.7728 50.9202 48.7023 50.9506 48.6295 50.9506V50.9501Z" fill="#85340A"/>
<path d="M49.1686 50.2422C49.1686 50.2422 48.8014 50.3551 48.6761 50.381C48.59 50.3987 48.4354 50.3908 48.3863 50.3879V50.3867C48.3863 50.3867 48.3827 50.387 48.3765 50.3874C48.3729 50.3874 48.3695 50.387 48.3695 50.387V50.3879C48.3204 50.391 48.1658 50.3987 48.0797 50.3812C47.9544 50.3556 47.5872 50.2424 47.5872 50.2424L47.5742 50.3136C47.5742 50.3136 48.0097 50.4718 48.1617 50.4948C48.2118 50.5025 48.3558 50.496 48.376 50.4948C48.376 50.4948 48.5404 50.503 48.5943 50.4948C48.7463 50.4721 49.1818 50.3136 49.1818 50.3136L49.1691 50.2424L49.1686 50.2422Z" fill="#85340A"/>
</svg>
