<svg width="97" height="97" viewBox="0 0 97 97" fill="none" xmlns="http://www.w3.org/2000/svg">
<circle cx="48.5" cy="48.5" r="46.5" fill="#D9D9D9" stroke="#B3B3B3" stroke-width="3"/>
<path d="M23.1325 9.52295C22.2781 10.0797 21.4436 10.6638 20.6289 11.2751L23.1362 12.6726L23.1325 9.52295Z" fill="#00008B"/>
<path d="M52.435 2.16492C51.1379 2.0558 49.826 2 48.5005 2C43.2962 2 38.2915 2.8556 33.6205 4.43164L33.6143 12.6516L52.435 2.16492Z" fill="#00008B"/>
<path d="M8.20288 25.2812C7.8098 25.962 7.43284 26.6539 7.07324 27.357L10.7932 25.2812H8.20288Z" fill="#00008B"/>
<path d="M59.851 3.396V5.94544L45.9506 13.662H59.851V15.9336V15.9919V22.9657V25.2808H46.0163L59.851 32.9973V34.4245V36.9578H52.6528L33.6213 26.3868V36.9578H31.5504H25.2612H23.1246V26.3868L4.09312 36.9591H3.44336C2.50096 40.6493 2 44.5156 2 48.4998C2 74.1814 22.8184 94.9998 48.5 94.9998C74.1817 94.9998 95 74.1814 95 48.4998C95 26.734 80.0456 8.46264 59.851 3.396Z" fill="#00008B"/>
<path d="M23.1244 26.3882V36.9592H25.2609V22.9658H9.6307C9.13222 23.7222 8.65606 24.4947 8.20222 25.2809H10.7938L7.07382 27.3567C6.2145 29.0381 5.45438 30.7778 4.8009 32.5696L17.8234 25.2809H22.5478L3.74938 35.8221C3.64274 36.1991 3.54106 36.5773 3.44434 36.958H4.0941L23.1244 26.3882Z" fill="white"/>
<path d="M31.5508 15.934H59.8525V13.6623H45.9521L59.8525 5.9458V3.39636C59.2524 3.24632 58.6473 3.1062 58.0384 2.97972L38.9623 13.6623H34.1982L54.3978 2.37088C53.748 2.28904 53.0933 2.22084 52.4349 2.16504L33.6141 12.653L33.6203 4.43176C32.9235 4.66736 32.2328 4.91908 31.5508 5.18568V15.934Z" fill="white"/>
<path d="M31.5508 36.9592H33.6216V26.3882L52.6531 36.9592H59.8513L38.935 25.2809H43.5689L59.8513 34.4247V32.9987L46.0166 25.2809H59.8513V22.9658H31.5508V36.9592Z" fill="white"/>
<path d="M31.5503 5.18701C29.3692 6.04137 27.2674 7.05569 25.2611 8.21509V15.9341H15.3088C13.1983 18.0855 11.2949 20.4403 9.63086 22.9661H25.2598V36.9583H31.5491V22.9661H59.8509V15.9924V15.9341H31.5503V5.18701Z" fill="#FF0000"/>
<path d="M34.1963 13.662H38.9604L58.0365 2.97945C56.8399 2.73021 55.626 2.52561 54.3971 2.37061L34.1963 13.662Z" fill="#FF0000"/>
<path d="M22.5484 25.2812H17.824L4.80152 32.57C4.41216 33.6364 4.06124 34.7214 3.75 35.8225L22.5484 25.2812Z" fill="#FF0000"/>
<path d="M38.9346 25.2812L59.8509 36.9596V34.425L43.5685 25.2812H38.9346Z" fill="#FF0000"/>
<path d="M54.898 42.9583L55.7821 40.3071L56.6489 42.9583L59.2678 41.9601L57.7624 44.3173L60.1358 45.7743L57.3855 46.0198L57.7289 48.8024L55.7735 46.7762L53.818 48.8024L54.1937 46.0198L51.4111 45.7743L53.818 44.3173L52.3449 41.9601L54.898 42.9583Z" fill="white"/>
<path d="M70.6295 25.9556L71.5136 23.3032L72.3803 25.9556L74.9992 24.9574L73.4939 27.3134L75.8672 28.7704L73.1169 29.0159L73.4604 31.7985L71.5049 29.7735L69.5494 31.7985L69.9251 29.0159L67.1426 28.7704L69.5494 27.3134L68.0751 24.9574L70.6295 25.9556Z" fill="white"/>
<path d="M84.5728 38.7761L85.4569 36.125L86.3237 38.7761L88.9426 37.7779L87.4372 40.1352L89.8106 41.5922L87.0603 41.8377L87.4037 44.6202L85.4483 42.5941L83.4928 44.6202L83.8685 41.8377L81.0859 41.5922L83.4928 40.1352L82.0197 37.7779L84.5728 38.7761Z" fill="white"/>
<path d="M70.6292 67.8528L71.5133 65.2017L72.3813 67.8528L75.0002 66.8546L73.4948 69.2118L75.8682 70.6688L73.1179 70.9143L73.4614 73.6969L71.5059 71.6707L69.5492 73.6969L69.9261 70.9143L67.1436 70.6688L69.5492 69.2118L68.076 66.8546L70.6292 67.8528Z" fill="white"/>
<path d="M20.3871 66.2283L22.5683 59.7456L24.7098 66.2283L31.1751 63.788L27.4576 69.549L33.3166 73.1116L26.5288 73.7117L27.377 80.5131L22.5484 75.5618L17.7199 80.5131L18.6486 73.7117L11.7803 73.1116L17.7199 69.549L14.083 63.788L20.3871 66.2283Z" fill="white"/>
<path d="M77.769 48.6924L78.4807 50.3738L80.2242 50.509L78.9098 51.651L79.2904 53.4304L77.769 52.5215L76.2711 53.4304L76.6765 51.6746L75.3262 50.4966L77.0932 50.3738L77.769 48.6924Z" fill="white"/>
</svg>
