<svg width="97" height="97" viewBox="0 0 97 97" fill="none" xmlns="http://www.w3.org/2000/svg">
<circle cx="48.5" cy="48.5" r="46.5" fill="#D9D9D9" stroke="#B3B3B3" stroke-width="3"/>
<path d="M48.5132 20.4312L4.56543 48.4942L48.5132 76.5573L92.461 48.4942L48.5132 20.4312ZM66.2061 54.024C63.8539 61.5579 56.8221 67.0263 48.5132 67.0263C38.2782 67.0263 29.9811 58.7292 29.9811 48.4942C29.9811 46.885 30.1863 45.3238 30.572 43.8352C30.8255 42.8559 31.1575 41.908 31.5602 40.9984C34.4383 34.4977 40.9461 29.9621 48.5132 29.9621C58.7482 29.9621 67.0453 38.2593 67.0453 48.4942C67.0453 49.3752 66.9839 50.242 66.8649 51.0902C66.7238 52.0964 66.5019 53.0766 66.2061 54.024Z" fill="#FEDF00"/>
<path d="M30.5713 43.835C30.186 45.3237 29.9805 46.8848 29.9805 48.494C29.9805 58.729 38.2776 67.0261 48.5126 67.0261C56.8215 67.0261 63.8532 61.558 66.2055 54.0238C58.7063 47.2934 48.7925 43.1989 37.9227 43.1989C35.4157 43.1992 32.9593 43.4172 30.5713 43.835ZM33.1431 55.1565L32.754 54.8738L32.365 55.1565L32.5135 54.6993L32.1244 54.4166H32.6052L32.7537 53.9593L32.9022 54.4166H33.383L32.994 54.6993L33.1431 55.1565ZM33.8514 45.8082L33.3846 45.469L32.9177 45.8082L33.096 45.2595L32.6291 44.9203H33.206L33.3843 44.3716L33.5625 44.9203H34.1394L33.6726 45.2595L33.8514 45.8082ZM35.4904 53.5994L35.0236 53.2603L34.5567 53.5994L34.7349 53.0507L34.2681 52.7116H34.845L35.0232 52.1629L35.2015 52.7116H35.7784L35.3115 53.0507L35.4904 53.5994ZM37.0612 52.1282L36.8389 51.9666L36.6166 52.1282L36.7016 51.8668L36.4793 51.7053H36.754L36.8389 51.444L36.9238 51.7053H37.1985L36.9762 51.8668L37.0612 52.1282ZM48.6685 63.206L48.5129 63.0929L48.3573 63.206L48.4168 63.0231L48.2612 62.91H48.4534L48.5129 62.7271L48.5724 62.91H48.7646L48.609 63.0231L48.6685 63.206ZM58.0776 62.8151L57.7664 62.5891L57.4551 62.8151L57.5739 62.4493L57.2626 62.2233H57.6473L57.7661 61.8575L57.8848 62.2233H58.2695L57.9583 62.4493L58.0776 62.8151ZM63.9509 55.0121L64.0696 54.6463L64.1883 55.0121H64.5731L64.2618 55.2381L64.3805 55.6039L64.0693 55.3779L63.7581 55.6039L63.8768 55.2381L63.5656 55.0121H63.9509ZM62.4031 56.4334H62.8839L62.4948 56.7162L62.6433 57.1734L62.2543 56.8907L61.8652 57.1734L62.0137 56.7162L61.6246 56.4334H62.1055L62.2539 55.9762L62.4031 56.4334ZM61.3196 54.7539L61.4979 54.2052L61.6761 54.7539H62.253L61.7862 55.093L61.9644 55.6417L61.4975 55.3026L61.0307 55.6417L61.2089 55.093L60.7421 54.7539H61.3196ZM60.9712 57.9211L61.1197 57.4639L61.2681 57.9211H61.749L61.3599 58.2038L61.5084 58.6611L61.1193 58.3784L60.7303 58.6611L60.8788 58.2038L60.4897 57.9211H60.9712ZM59.5132 58.8948L59.632 58.529L59.7507 58.8948H60.1354L59.8242 59.1208L59.9429 59.4866L59.6317 59.2606L59.3204 59.4866L59.4391 59.1208L59.1279 58.8948H59.5132ZM57.5971 58.5421L57.7159 58.1763L57.8346 58.5421H58.2193L57.9081 58.768L58.0268 59.1338L57.7155 58.9079L57.4043 59.1338L57.523 58.768L57.2118 58.5421H57.5971ZM57.643 60.3165L57.7915 59.8592L57.94 60.3165H58.4208L58.0317 60.5992L58.1802 61.0565L57.7912 60.7737L57.4021 61.0565L57.5506 60.5992L57.1616 60.3165H57.643ZM55.5294 59.1723L55.6482 58.8065L55.7669 59.1723H56.1516L55.8404 59.3983L55.9591 59.7641L55.6478 59.5381L55.3366 59.7641L55.4553 59.3983L55.1441 59.1723H55.5294ZM54.2085 60.7703H54.6893L54.3003 61.0531L54.4488 61.5103L54.0597 61.2276L53.6707 61.5103L53.8192 61.0531L53.4301 60.7703H53.9109L54.0594 60.3131L54.2085 60.7703ZM53.4366 47.3976L53.5553 47.0318L53.6741 47.3976H54.0588L53.7476 47.6235L53.8663 47.9893L53.555 47.7634L53.2438 47.9893L53.3625 47.6235L53.0513 47.3976H53.4366ZM52.4787 58.7184L52.5974 58.3526L52.7162 58.7184H53.1009L52.7896 58.9444L52.9084 59.3102L52.5971 59.0842L52.2859 59.3102L52.4046 58.9444L52.0934 58.7184H52.4787ZM50.5074 52.9289L50.6559 52.4716L50.8044 52.9289H51.2852L50.8962 53.2116L51.0447 53.6689L50.6556 53.3861L50.2666 53.6689L50.4151 53.2116L50.026 52.9289H50.5074ZM48.9797 57.4571L48.5129 57.1179L48.046 57.4571L48.2243 56.9084L47.7574 56.5692H48.3343L48.5126 56.0205L48.6908 56.5692H49.2677L48.8009 56.9084L48.9797 57.4571ZM48.3644 51.2648L48.5129 50.8076L48.6614 51.2648H49.1422L48.7531 51.5475L48.9016 52.0048L48.5126 51.7221L48.1235 52.0048L48.272 51.5475L47.883 51.2648H48.3644ZM47.4952 54.3025L47.5801 54.0412L47.665 54.3025H47.9397L47.7174 54.464L47.8024 54.7253L47.5801 54.5638L47.3578 54.7253L47.4428 54.464L47.2205 54.3025H47.4952ZM46.5283 52.9698L46.647 52.604L46.7657 52.9698H47.1504L46.8392 53.1958L46.9579 53.5616L46.6467 53.3356L46.3354 53.5616L46.4542 53.1958L46.1429 52.9698H46.5283ZM41.3045 49.0458L41.4529 48.5886L41.6014 49.0458H42.0826L41.6935 49.3285L41.842 49.7858L41.4529 49.5031L41.0639 49.7858L41.2124 49.3285L40.8233 49.0458H41.3045ZM40.8965 58.082L41.0747 57.5333L41.253 58.082H41.8299L41.3631 58.4212L41.5413 58.9699L41.0744 58.6307L40.6076 58.9699L40.7858 58.4212L40.319 58.082H40.8965ZM38.7327 54.593L38.8812 54.1357L39.0297 54.593H39.5105L39.1214 54.8757L39.2699 55.3329L38.8809 55.0502L38.4918 55.3329L38.6403 54.8757L38.2513 54.593H38.7327ZM38.3266 56.1086L38.4453 56.4744H38.83L38.5188 56.7003L38.6375 57.0661L38.3263 56.8402L38.0151 57.0661L38.1338 56.7003L37.8225 56.4744H38.2076L38.3266 56.1086ZM48.5129 29.9619C40.9458 29.9619 34.4383 34.4975 31.5596 40.9982C33.6385 40.704 35.7629 40.5515 37.923 40.5515C48.9441 40.5515 59.0402 44.5133 66.8646 51.09C66.9836 50.2418 67.045 49.375 67.045 48.494C67.045 38.2591 58.7479 29.9619 48.5129 29.9619ZM54.7284 43.3877L54.2615 43.0486L53.7947 43.3877L53.9729 42.839L53.5061 42.4999H54.083L54.2612 41.9512L54.4395 42.4999H55.0164L54.5495 42.839L54.7284 43.3877Z" fill="#002776"/>
<path d="M60.8794 58.2041L60.4903 57.9214H60.9711L61.1196 57.4641L61.2681 57.9214H61.7489L61.3599 58.2041L61.5084 58.6613L61.1193 58.3786L60.7303 58.6613L60.8794 58.2041ZM55.3372 59.7646L55.6484 59.5386L55.9597 59.7646L55.8409 59.3988L56.1522 59.1728H55.7675L55.6487 58.807L55.53 59.1728H55.1453L55.4565 59.3988L55.3372 59.7646ZM61.031 55.6419L61.4978 55.3028L61.9647 55.6419L61.7864 55.0932L62.2533 54.7541H61.6764L61.4981 54.2054L61.3199 54.7541H60.743L61.2098 55.0932L61.031 55.6419ZM57.4024 61.0567L57.7915 60.774L58.1805 61.0567L58.032 60.5995L58.4211 60.3167H57.9403L57.7918 59.8595L57.6433 60.3167H57.1625L57.5515 60.5995L57.4024 61.0567ZM57.4046 59.1341L57.7158 58.9081L58.0271 59.1341L57.9083 58.7683L58.2196 58.5423H57.8349L57.7161 58.1765L57.5974 58.5423H57.2127L57.5239 58.7683L57.4046 59.1341ZM53.4304 60.7706L53.8194 61.0533L53.6709 61.5105L54.06 61.2278L54.449 61.5105L54.3006 61.0533L54.6896 60.7706H54.2088L54.0603 60.3133L53.9118 60.7706H53.4304ZM59.321 59.4872L59.6322 59.2612L59.9435 59.4872L59.8247 59.1214L60.136 58.8954H59.7513L59.6326 58.5296L59.5138 58.8954H59.1291L59.4404 59.1214L59.321 59.4872ZM61.6249 56.4337L62.014 56.7164L61.8655 57.1737L62.2545 56.8909L62.6436 57.1737L62.4951 56.7164L62.8841 56.4337H62.4033L62.2548 55.9764L62.1064 56.4337H61.6249ZM35.2018 52.7118L35.0235 52.1631L34.8453 52.7118H34.2684L34.7352 53.051L34.557 53.5997L35.0238 53.2605L35.4907 53.5997L35.3124 53.051L35.7793 52.7118H35.2018ZM63.7587 55.6044L64.0699 55.3784L64.3811 55.6044L64.2624 55.2386L64.5736 55.0126H64.1889L64.0702 54.6468L63.9515 55.0126H63.5668L63.878 55.2386L63.7587 55.6044ZM32.9028 54.4168L32.7543 53.9596L32.6058 54.4168H32.125L32.5141 54.6995L32.3656 55.1568L32.7546 54.8741L33.1437 55.1568L32.9952 54.6995L33.3842 54.4168H32.9028ZM33.5628 44.9206L33.3845 44.3719L33.2063 44.9206H32.6294L33.0962 45.2597L32.918 45.8084L33.3848 45.4693L33.8517 45.8084L33.6735 45.2597L34.1403 44.9206H33.5628ZM57.8851 62.2235L57.7664 61.8577L57.6476 62.2235H57.2629L57.5742 62.4495L57.4554 62.8153L57.7667 62.5893L58.0779 62.8153L57.9592 62.4495L58.2704 62.2235H57.8851ZM53.2444 47.9896L53.5556 47.7636L53.8669 47.9896L53.7481 47.6238L54.0594 47.3978H53.6747L53.5559 47.032L53.4372 47.3978H53.0525L53.3637 47.6238L53.2444 47.9896ZM48.5724 62.9105L48.5129 62.7276L48.4533 62.9105H48.2611L48.4167 63.0237L48.3572 63.2066L48.5129 63.0934L48.6685 63.2066L48.609 63.0237L48.7646 62.9105H48.5724ZM36.9238 51.7056L36.8389 51.4442L36.7539 51.7056H36.4793L36.7015 51.8671L36.6166 52.1284L36.8389 51.9669L37.0611 52.1284L36.9762 51.8671L37.1985 51.7056H36.9238ZM51.5781 43.7175C51.616 43.5978 51.5496 43.4704 51.43 43.4329L50.7808 43.2283L50.6444 43.6611L51.2936 43.8657C51.4129 43.9035 51.5403 43.8371 51.5781 43.7175ZM53.0268 45.1615C53.2679 45.2517 53.5507 45.0923 53.6579 44.8053C53.7652 44.5182 53.6567 44.2125 53.4152 44.1223C53.1737 44.0321 52.8913 44.1915 52.784 44.4785C52.6768 44.7656 52.7856 45.0713 53.0268 45.1615ZM57.9555 46.3686C58.0113 46.2564 57.9657 46.1203 57.8538 46.0642L57.2446 45.7604L57.0422 46.1665L57.6513 46.4703C57.7632 46.5264 57.8993 46.4808 57.9555 46.3686ZM35.0508 41.4139L34.3716 41.4613L34.4032 41.9139L35.0824 41.8665C35.2073 41.8578 35.3016 41.7493 35.2929 41.6244C35.2845 41.4991 35.176 41.4049 35.0508 41.4139ZM64.7711 51.806C64.9726 51.9663 65.2907 51.9021 65.4813 51.6622C65.672 51.4225 65.6633 51.098 65.4615 50.9377C65.26 50.7774 64.9419 50.8416 64.7513 51.0815C64.5606 51.3215 64.5693 51.6457 64.7711 51.806ZM54.4397 42.5001L54.2615 41.9514L54.0832 42.5001H53.5063L53.9732 42.8392L53.7949 43.3879L54.2618 43.0488L54.7287 43.3879L54.5504 42.8392L55.0173 42.5001H54.4397ZM49.3697 43.0603C49.401 42.9391 49.3281 42.8151 49.2069 42.7838L48.5479 42.6133L48.4341 43.0525L49.0932 43.223C49.2144 43.2543 49.3381 43.1815 49.3697 43.0603ZM32.5317 41.6507C32.276 41.682 32.099 41.9542 32.1365 42.258C32.1737 42.5621 32.4115 42.7831 32.6672 42.7518C32.923 42.7205 33.1 42.4483 33.0625 42.1445C33.0249 41.8404 32.7875 41.6194 32.5317 41.6507ZM52.2862 59.3108L52.5974 59.0848L52.9086 59.3108L52.7899 58.945L53.1012 58.719H52.7165L52.5977 58.3532L52.479 58.719H52.0943L52.4055 58.945L52.2862 59.3108ZM37.1634 41.3274L36.6845 41.3357L36.7037 42.4449L37.1827 42.4366C37.4471 42.4319 37.6579 42.2137 37.6532 41.9492L37.6505 41.798C37.6464 41.5335 37.4282 41.3227 37.1634 41.3274ZM37.9229 40.5518C48.9441 40.5518 59.0401 44.5136 66.8645 51.0902C66.7235 52.0965 66.5015 53.0767 66.2058 54.024C58.7066 47.2936 48.7928 43.1992 37.9229 43.1992C35.4157 43.1992 32.9589 43.4171 30.5713 43.835C30.8249 42.8557 31.1569 41.9077 31.5596 40.9982C33.6384 40.7043 35.7629 40.5518 37.9229 40.5518ZM33.3876 42.1045C33.3281 41.6209 32.9273 41.2719 32.4917 41.3255C32.0565 41.3788 31.7515 41.8144 31.811 42.2983C31.8705 42.7819 32.2713 43.131 32.7069 43.0773C33.1424 43.0237 33.4472 42.5881 33.3876 42.1045ZM35.4107 42.0915C35.5642 41.9833 35.6593 41.8004 35.6454 41.5996C35.624 41.2939 35.3589 41.0636 35.0533 41.085L34.0473 41.1553L34.1453 42.9177L34.4723 42.8947L34.4265 42.2406L35.1283 42.1917C35.3069 42.3625 35.3282 42.6656 35.34 42.834L35.642 42.8129C35.628 42.6167 35.6014 42.2363 35.4107 42.0915ZM64.5668 52.0627C64.91 52.3358 65.4342 52.2477 65.7377 51.8664C66.0412 51.4851 66.0086 50.9544 65.6655 50.6813C65.3223 50.4082 64.7981 50.4962 64.4946 50.8775C64.1914 51.2588 64.2237 51.7896 64.5668 52.0627ZM62.7775 50.7142C63.0546 50.912 63.4753 51.1035 63.7425 50.7291C64.1049 50.221 63.037 49.6992 63.214 49.4618C63.32 49.313 63.4514 49.3678 63.6105 49.4813C63.7748 49.5985 63.878 49.7575 63.7683 49.9113L64.0814 50.1345C64.339 49.7842 64.0488 49.4531 63.864 49.3213C63.6793 49.1896 63.191 48.8105 62.8711 49.2479C62.5 49.7575 63.5912 50.2572 63.3826 50.5496C63.3166 50.6419 63.1715 50.6392 62.9663 50.4928C62.7611 50.3465 62.6737 50.1757 62.7763 50.0322L62.4529 49.8015C62.1956 50.1596 62.5413 50.5455 62.7775 50.7142ZM60.8828 48.7798L60.548 48.5665C60.3099 48.9379 60.6754 49.3052 60.9197 49.4612C61.2067 49.6441 61.637 49.8133 61.8841 49.4255C62.2195 48.8991 61.1255 48.4341 61.2901 48.1877C61.3884 48.0336 61.5223 48.0813 61.6869 48.1864C61.8571 48.2949 61.9687 48.4481 61.867 48.6077L62.1913 48.8142C62.4303 48.4509 62.1231 48.1353 61.9315 48.0135C61.7402 47.8916 61.2328 47.5382 60.9361 47.9921C60.592 48.5203 61.7083 48.9624 61.5152 49.2652C61.4541 49.3607 61.309 49.3657 61.0964 49.2302C60.884 49.0944 60.7879 48.9286 60.8828 48.7798ZM59.1769 46.3798L58.3076 47.9158L59.6902 48.6979L59.8517 48.4127L58.7326 47.7794L58.9561 47.3845L59.8341 47.8811L59.9832 47.6179L59.1052 47.1213L59.2792 46.8141L60.3325 47.4099L60.494 47.1247L59.1769 46.3798ZM56.3097 46.9006L56.6029 47.0469L56.8956 46.46L57.5252 46.7738C57.5924 47.0115 57.457 47.2837 57.3816 47.4347L57.6523 47.5695C57.74 47.3935 57.9102 47.0521 57.8194 46.8305C58.0063 46.8153 58.1811 46.7059 58.271 46.5258C58.4077 46.2517 58.2961 45.9185 58.0221 45.7818L57.1194 45.3316L56.3097 46.9006ZM54.9897 46.3078C55.1819 46.3915 55.3927 46.3844 55.5818 46.306L55.4869 46.5239L55.7182 46.6243L55.9696 46.0462L56.07 45.8149L55.7693 45.6841L55.4572 45.5483L55.3567 45.7796L55.6218 45.8949C55.4795 46.0288 55.2867 46.0791 55.1205 46.0068C54.8843 45.9042 54.7919 45.593 54.914 45.3121C55.0362 45.0313 55.3266 44.8868 55.5629 44.9894C55.7129 45.0548 55.8047 45.2042 55.8205 45.3763L56.1466 45.518C56.1795 45.1633 56.008 44.8254 55.6934 44.6884C55.291 44.5136 54.8074 44.734 54.613 45.181C54.419 45.6289 54.5873 46.133 54.9897 46.3078ZM52.9121 45.4687C53.3228 45.6224 53.7943 45.3766 53.9651 44.9203C54.1359 44.4636 53.9413 43.9692 53.5302 43.8154C53.1195 43.6617 52.6479 43.9075 52.4771 44.3638C52.3063 44.8205 52.5013 45.3149 52.9121 45.4687ZM50.0359 44.5002L50.3484 44.5988L50.5455 43.9735L51.2164 44.185C51.3199 44.4094 51.2288 44.6992 51.1779 44.8601L51.4665 44.951C51.5257 44.7631 51.6404 44.3995 51.5161 44.1949C51.6984 44.1505 51.854 44.0151 51.9148 43.8232C52.0069 43.5309 51.8447 43.2196 51.5527 43.1272L50.5908 42.8241L50.0359 44.5002ZM47.8705 43.9224L48.188 44.0045L48.352 43.37L49.0355 43.5467C49.3322 43.6232 49.6347 43.445 49.7113 43.1486C49.7879 42.8523 49.6096 42.5494 49.3133 42.4728L48.3368 42.2202L47.8705 43.9224ZM44.5188 43.2643L45.8233 43.4884L45.8744 43.1902L44.8679 43.0172L44.9361 42.6195L45.756 42.7605L45.8072 42.4623L44.9872 42.3212L45.0343 42.0478L46.0096 42.2155L46.0607 41.9173L44.7873 41.6984L44.5188 43.2643ZM40.8621 42.8516L41.1634 42.878L41.2688 41.6724L41.5149 42.9087L41.7911 42.9329L42.2484 41.758L42.143 42.9636L42.4443 42.9899L42.5981 41.2316L42.1585 41.1931L41.7012 42.368L41.4551 41.1318L41.0155 41.0933L40.8621 42.8516ZM38.6229 42.7565L40.2104 42.812L40.2219 42.4843L38.9366 42.4393L38.9525 41.9858L39.9603 42.0212L39.9708 41.7189L38.963 41.6836L38.9754 41.3308L40.185 41.3729L40.1965 41.0453L38.6846 40.9926L38.6229 42.7565ZM37.9524 41.7425C37.9453 41.3249 37.6005 40.992 37.183 40.9994L36.3509 41.014L36.3816 42.7788L37.2137 42.7642C37.6312 42.7568 37.9642 42.4124 37.9567 41.9948L37.9524 41.7425ZM38.1341 56.7009L38.0153 57.0667L38.3266 56.8407L38.6378 57.0667L38.5191 56.7009L38.8303 56.4749H38.4456L38.3269 56.1091L38.2081 56.4749H37.8234L38.1341 56.7009ZM48.1238 52.005L48.5129 51.7223L48.9019 52.005L48.7534 51.5478L49.1425 51.265H48.6616L48.5132 50.8078L48.3647 51.265H47.8839L48.2729 51.5478L48.1238 52.005ZM47.3575 54.7256L47.5797 54.5641L47.802 54.7256L47.7171 54.4642L47.9394 54.3027H47.6647L47.5797 54.0414L47.4948 54.3027H47.2201L47.4424 54.4642L47.3575 54.7256ZM48.6911 56.5695L48.5129 56.0208L48.3346 56.5695H47.7577L48.2246 56.9086L48.0463 57.4573L48.5132 57.1182L48.98 57.4573L48.8018 56.9086L49.2686 56.5695H48.6911ZM50.2668 53.6691L50.6559 53.3864L51.0449 53.6691L50.8964 53.2118L51.2855 52.9291H50.8047L50.6562 52.4719L50.5077 52.9291H50.0269L50.4159 53.2118L50.2668 53.6691ZM46.3357 53.5618L46.647 53.3358L46.9582 53.5618L46.8395 53.196L47.1507 52.97H46.766L46.6473 52.6042L46.5285 52.97H46.1435L46.4548 53.196L46.3357 53.5618ZM38.4921 55.3332L38.8811 55.0505L39.2702 55.3332L39.1217 54.8759L39.5108 54.5932H39.03L38.8815 54.136L38.733 54.5932H38.2522L38.6412 54.8759L38.4921 55.3332ZM41.0639 49.786L41.4529 49.5033L41.842 49.786L41.6935 49.3288L42.0825 49.0461H41.6017L41.4532 48.5888L41.3047 49.0461H40.8239L41.213 49.3288L41.0639 49.786ZM40.6079 58.9701L41.0747 58.631L41.5416 58.9701L41.3633 58.4214L41.8302 58.0823H41.2533L41.075 57.5336L40.8968 58.0823H40.3199L40.7867 58.4214L40.6079 58.9701Z" fill="white"/>
<path d="M48.5 2C22.8187 2 2 22.8187 2 48.5C2 74.1813 22.8187 95 48.5 95C74.1813 95 95 74.1813 95 48.5C95 22.8187 74.1813 2 48.5 2ZM48.5133 76.5572L4.56556 48.4941L48.5133 20.431L92.4611 48.4941L48.5133 76.5572ZM62.4534 49.8011L62.7767 50.0317C62.6741 50.1756 62.7616 50.346 62.9668 50.4924C63.172 50.6387 63.3171 50.6415 63.3831 50.5491C63.5917 50.2565 62.5002 49.7567 62.8716 49.2474C63.1915 48.8097 63.6798 49.1891 63.8645 49.3209C64.0493 49.4526 64.3398 49.7837 64.0818 50.134L63.7687 49.9108C63.8785 49.7567 63.7752 49.598 63.6109 49.4808C63.4519 49.3674 63.3208 49.3125 63.2145 49.4613C63.0371 49.6988 64.1054 50.2205 63.743 50.7286C63.4758 51.1031 63.0551 50.9115 62.778 50.7137C62.5418 50.5454 62.1961 50.1594 62.4534 49.8011ZM58.3081 47.9157L59.1773 46.3796L60.4939 47.1245L60.3324 47.4097L59.279 46.8139L59.1051 47.1211L59.983 47.6177L59.8339 47.8809L58.956 47.3843L58.7325 47.7792L59.8516 48.4126L59.6901 48.6978L58.3081 47.9157ZM60.8833 48.7796C60.7884 48.9284 60.8845 49.0943 61.0972 49.2297C61.3098 49.3652 61.4546 49.3603 61.516 49.2648C61.7091 48.9616 60.5931 48.5198 60.9369 47.9916C61.2336 47.5378 61.741 47.8909 61.9323 48.013C62.1236 48.1348 62.4311 48.4504 62.1921 48.8137L61.8678 48.6073C61.9695 48.4479 61.8579 48.2945 61.6877 48.186C61.5228 48.0809 61.3889 48.0331 61.2909 48.1872C61.1263 48.4337 62.2203 48.899 61.8849 49.425C61.6375 49.8132 61.2075 49.6436 60.9205 49.4607C60.6759 49.3048 60.3104 48.9377 60.5488 48.566L60.8833 48.7796ZM56.896 46.4599L57.5256 46.7736C57.5929 47.0114 57.4574 47.2836 57.3821 47.4345L57.6527 47.5694C57.7405 47.3933 57.9107 47.052 57.8198 46.8303C58.0068 46.8151 58.1816 46.7057 58.2715 46.5256C58.4082 46.2516 58.2966 45.9183 58.0226 45.7816L57.1199 45.3315L56.3098 46.8998L56.6031 47.0461L56.896 46.4599ZM57.2448 45.7605L57.8539 46.0643C57.9662 46.1201 58.0117 46.2565 57.9556 46.3687C57.8998 46.481 57.7634 46.5265 57.6512 46.4704L57.0421 46.1666L57.2448 45.7605ZM64.5673 52.0625C64.9105 52.3356 65.4347 52.2476 65.7382 51.8663C66.0417 51.485 66.0091 50.9543 65.6659 50.6812C65.3228 50.408 64.7986 50.4961 64.4951 50.8774C64.1919 51.2587 64.2241 51.7894 64.5673 52.0625ZM64.7517 51.0814C64.9424 50.8417 65.2605 50.7773 65.462 50.9375C65.6635 51.0978 65.6725 51.4224 65.4818 51.662C65.2912 51.9016 64.9731 51.9661 64.7716 51.8058C64.5698 51.6456 64.5611 51.3213 64.7517 51.0814ZM54.6135 45.1818C54.8079 44.7347 55.2915 44.5143 55.6939 44.6892C56.0085 44.8259 56.1799 45.1641 56.1471 45.5187L55.821 45.3771C55.8052 45.2047 55.7134 45.0553 55.5633 44.9902C55.3271 44.8876 55.0367 45.032 54.9145 45.3129C54.7924 45.5937 54.8848 45.905 55.121 46.0076C55.2871 46.0798 55.48 46.0293 55.6222 45.8957L55.3572 45.7804L55.4576 45.5491L55.7698 45.6849L56.0705 45.8157L55.9701 46.047L55.7187 46.6251L55.4874 46.5247L55.5823 46.3067C55.3935 46.3855 55.1827 46.3923 54.9905 46.3086C54.5878 46.1328 54.4194 45.6288 54.6135 45.1818ZM32.4922 41.3251C32.057 41.3784 31.7519 41.8139 31.8115 42.2978C31.871 42.7814 32.2718 43.1305 32.7074 43.0769C33.1426 43.0235 33.4476 42.588 33.3881 42.1041C33.3286 41.6202 32.9278 41.2717 32.4922 41.3251ZM32.6674 42.7517C32.4116 42.783 32.1742 42.5619 32.1367 42.2578C32.0995 41.9537 32.2765 41.6819 32.5319 41.6506C32.7877 41.6192 33.0251 41.8403 33.0626 42.1444C33.1001 42.4482 32.9231 42.7204 32.6674 42.7517ZM35.6458 41.5994C35.6245 41.2937 35.3594 41.0634 35.0537 41.0848L34.0478 41.1552L34.1458 42.9175L34.4728 42.8946L34.4269 42.2405L35.1288 42.1915C35.3073 42.3623 35.3287 42.6655 35.3405 42.8338L35.6424 42.8127C35.6288 42.6162 35.6021 42.2361 35.4115 42.0911C35.5646 41.9832 35.6598 41.8003 35.6458 41.5994ZM35.0832 41.8663L34.404 41.9137L34.3724 41.4611L35.0516 41.4137C35.1765 41.405 35.285 41.4993 35.2937 41.6242C35.3024 41.7491 35.2081 41.8576 35.0832 41.8663ZM40.2109 42.8118L38.6234 42.7563L38.6851 40.9924L40.197 41.0451L40.1855 41.3728L38.9759 41.3306L38.9635 41.6834L39.9713 41.7187L39.9607 42.021L38.9529 41.9857L38.9371 42.4392L40.2224 42.4841L40.2109 42.8118ZM48.3524 43.3698L49.036 43.5465C49.3327 43.6231 49.6352 43.4448 49.7118 43.1485C49.7884 42.8521 49.6101 42.5492 49.3137 42.4727L48.3372 42.22L47.871 43.9225L48.1884 44.0047L48.3524 43.3698ZM48.5481 42.6131L49.2071 42.7836C49.3283 42.8149 49.4015 42.9389 49.3699 43.0601C49.3386 43.1813 49.2145 43.2545 49.0933 43.2229L48.4343 43.0524L48.5481 42.6131ZM41.1638 42.8778L40.8625 42.8515L41.0163 41.0932L41.4559 41.1316L41.702 42.3679L42.1593 41.193L42.5988 41.2314L42.4451 42.9897L42.1438 42.9634L42.2492 41.7578L41.7919 42.9327L41.5157 42.9085L41.2696 41.6722L41.1638 42.8778ZM50.546 43.9734L51.2168 44.1848C51.3204 44.4092 51.2292 44.6991 51.1784 44.86L51.467 44.9508C51.5262 44.7629 51.6409 44.3993 51.5166 44.1947C51.6989 44.1504 51.8545 44.0149 51.9153 43.823C52.0073 43.5307 51.8452 43.2195 51.5532 43.1271L50.5913 42.8239L50.0364 44.4994L50.3488 44.598L50.546 43.9734ZM50.781 43.2278L51.4301 43.4324C51.5498 43.4703 51.6161 43.5977 51.5783 43.717C51.5405 43.8364 51.4131 43.903 51.2937 43.8652L50.6446 43.6606L50.781 43.2278ZM45.8241 43.4882L44.5196 43.2641L44.7887 41.6986L46.0622 41.9175L46.011 42.2157L45.0357 42.048L44.9886 42.3214L45.8086 42.4624L45.7574 42.7607L44.9375 42.6196L44.8693 43.0173L45.8758 43.1903L45.8241 43.4882ZM52.9125 45.4685C53.3233 45.6223 53.7948 45.3764 53.9656 44.9201C54.1364 44.4635 53.9417 43.969 53.5307 43.8153C53.1199 43.6615 52.6484 43.9073 52.4776 44.3637C52.3068 44.8203 52.5018 45.3147 52.9125 45.4685ZM52.7845 44.4784C52.8918 44.1913 53.1745 44.032 53.4157 44.1222C53.6568 44.2124 53.7657 44.5181 53.6584 44.8051C53.5511 45.0922 53.2684 45.2515 53.0272 45.1613C52.7861 45.0711 52.6772 44.7654 52.7845 44.4784ZM37.1834 40.9992L36.3514 41.0138L36.3821 42.7786L37.2141 42.7641C37.6317 42.7566 37.9647 42.4122 37.9572 41.9947L37.9529 41.7426C37.9457 41.3244 37.6013 40.9918 37.1834 40.9992ZM37.1834 42.4364L36.7045 42.4448L36.6853 41.3356L37.1642 41.3272C37.4287 41.3226 37.6469 41.5334 37.6516 41.7978L37.6543 41.9491C37.6587 42.2138 37.4479 42.4318 37.1834 42.4364Z" fill="#009B3A"/>
</svg>
