<svg width="97" height="97" viewBox="0 0 97 97" fill="none" xmlns="http://www.w3.org/2000/svg">
<circle cx="48.5" cy="48.5" r="46.5" fill="#D9D9D9" stroke="#B3B3B3" stroke-width="3"/>
<path d="M48.4999 2C28.3323 2 11.1641 14.8396 4.72168 32.7902H92.2784C85.8358 14.8396 68.6676 2 48.4999 2Z" fill="#CE1126"/>
<path d="M44.8555 58.2378C45.0745 58.2655 45.2779 58.2898 45.4393 58.3078L45.2011 57.7012L44.8555 58.2378Z" fill="white"/>
<path d="M44.7127 58.4183C44.4278 58.3792 44.2016 58.3447 44.2016 58.3447C44.2016 58.3447 43.3188 58.2231 43.1276 58.1721C42.8911 58.1089 42.4903 58.0294 42.0565 57.8953C41.9077 57.8493 41.6895 57.7752 41.584 57.8029C41.4027 57.8503 41.4714 58.3466 41.468 58.4669C41.7218 58.5525 42.3768 58.7712 42.6383 58.8412C42.8923 58.9092 43.5512 59.0179 43.8399 59.0643C43.8389 59.0502 43.8382 59.0364 43.8382 59.0225C43.8382 58.724 44.0859 58.4625 44.3479 58.4625C44.3518 58.4625 44.3557 58.463 44.3596 58.4633C44.4133 58.4562 44.4672 58.4584 44.5197 58.4725C44.773 58.5401 44.9448 58.8568 44.8678 59.145C44.8619 59.1664 44.8544 59.1878 44.8461 59.2089C45.1337 59.2383 45.8059 59.3042 46.0706 59.3042C46.3413 59.3042 47.0306 59.2617 47.2977 59.2447C47.3257 59.1275 47.3942 59.0441 47.4479 58.98C47.4688 58.9549 47.4883 58.9314 47.5002 58.9117C47.4788 58.8169 47.4278 58.6234 47.357 58.5734C47.2678 58.5102 47.0321 58.5347 46.8765 58.5408C46.4228 58.5585 46.0149 58.5318 45.7702 58.5318C45.5806 58.5318 45.1127 58.4735 44.737 58.4219L44.736 58.4234L44.7127 58.4183ZM42.4038 58.3719L41.6807 58.1517L41.7356 57.9713L42.4587 58.1915L42.4038 58.3719ZM43.6292 58.7243L42.9061 58.5041L42.9611 58.3238L43.6841 58.544L43.6292 58.7243ZM47.1599 58.7982L47.1721 58.9863L46.2784 59.0437L46.2662 58.8555L47.1599 58.7982ZM45.026 58.787H45.9216V58.9756H45.026V58.787Z" fill="white"/>
<path d="M46.2749 55.9984L45.3489 57.1405L44.848 55.7423L44.0501 56.7577L43.354 55.1655L42.5928 57.8342C42.8144 57.8901 43.0157 57.9416 43.1328 57.9732L43.9256 56.9862L44.4083 58.1793C44.4963 58.1912 44.5845 58.2029 44.6715 58.214L45.2369 57.3359L45.6262 58.3271C45.7025 58.3344 45.757 58.3382 45.782 58.338C45.8941 58.337 46.1157 58.3392 46.3631 58.3426L46.5984 57.4207L46.2749 55.9984Z" fill="white"/>
<path d="M48.9119 58.7397H48.002C48.1057 58.8258 48.1915 58.9585 48.2333 59.1369H48.6735C48.717 58.9573 48.8055 58.8243 48.9119 58.7397Z" fill="white"/>
<path d="M49.3982 58.3695C49.3982 58.3695 49.9276 58.3552 50.4112 58.3442L50.2785 57.8239L49.9057 58.1585L49.2825 57.7561L48.8747 54.8089L49.023 57.7432L48.4518 58.3924L47.9195 57.7043L48.0697 54.4434L47.608 57.7434L46.9848 58.1459L46.6807 57.775L46.5352 58.3455C47.005 58.3527 47.4993 58.3625 47.4993 58.3625L47.6763 58.5472H49.231L49.3982 58.3695Z" fill="white"/>
<path d="M45.1363 54.4L45.7341 53.3216L46.3469 55.2997L47.2109 54.4359L47.2272 54.4522L47.3178 54.016L47.3113 54.0186L46.6631 52.4357L45.896 53.4173L45.6989 51.436L44.6336 52.5526L44.2868 51.8966L43.624 54.2204L44.6558 53.2888L45.1363 54.4Z" fill="white"/>
<path d="M45.6776 51.2169L45.5687 50.123C45.4302 49.9181 45.2963 49.702 45.1699 49.474C45.1288 49.3999 45.0885 49.3217 45.0491 49.2402L44.5725 50.8718L44.5791 50.8737L44.3535 51.6646L44.6734 52.2695L45.6776 51.2169Z" fill="white"/>
<path d="M44.904 55.4012L45.4068 56.8045L46.3623 55.626L46.6865 57.0529L47.174 54.7095L46.2697 55.6138L45.6907 53.7451L45.1179 54.7782L44.5951 53.5688L43.5378 54.5235L43.4268 54.9131L44.0922 56.4346L44.904 55.4012Z" fill="white"/>
<path d="M43.3145 58.0139C43.5155 58.0516 43.854 58.1026 44.2179 58.1529L43.8778 57.3125L43.3145 58.0139Z" fill="white"/>
<path d="M51.9623 61.27C51.9888 61.1646 52.0036 61.0467 51.9387 60.966C51.7744 60.7613 51.6296 60.9835 51.7798 61.1473C51.8276 61.1998 51.901 61.2292 51.9623 61.27Z" fill="white"/>
<path d="M52.6488 61.1666C52.6663 61.1775 52.7066 61.1615 52.7275 61.1656C52.7557 61.1712 52.7866 61.1734 52.8184 61.1736C52.8345 61.0545 52.8024 60.96 52.6789 60.9614C52.5508 60.9629 52.5642 61.1143 52.6488 61.1666Z" fill="white"/>
<path d="M48.4476 61.3027C48.2801 61.3226 48.1282 61.3141 47.9637 61.2805C47.8572 61.2589 47.6302 61.2409 47.4596 61.1772C47.4484 61.3012 47.411 61.4349 47.3828 61.5236C47.6215 61.5122 47.8915 61.4847 48.1146 61.5379C48.2104 61.5608 48.2748 61.6079 48.327 61.6901C48.3567 61.7367 48.3793 61.832 48.4454 61.851C48.5988 61.8945 48.6291 61.7491 48.6785 61.6626C48.697 61.6303 48.7142 61.6035 48.7324 61.5807C48.6846 61.3967 48.7203 61.2706 48.4476 61.3027Z" fill="white"/>
<path d="M53.4414 61.135C53.4528 61.1336 53.4643 61.1326 53.4754 61.1311C53.527 61.1241 53.6086 61.1049 53.6985 61.0784C53.6674 60.9919 53.638 60.9039 53.6101 60.8149C53.526 60.8922 53.4742 61.0167 53.4414 61.135Z" fill="white"/>
<path d="M54.6015 60.8251C54.7541 60.8883 54.9994 60.9167 55.1216 60.7884C55.2358 60.6688 55.1697 60.4904 54.9981 60.4822C54.9267 60.4788 54.8334 60.513 54.7682 60.5388C54.7245 60.5561 54.6666 60.5796 54.6348 60.6161C54.5949 60.662 54.591 60.725 54.5859 60.7848C54.5947 60.7962 54.5998 60.8103 54.6015 60.8251Z" fill="white"/>
<path d="M53.907 61.169C53.9711 61.2276 54.0618 61.1525 54.1267 61.0796C54.0518 61.1102 53.9704 61.1331 53.9014 61.1615C53.9031 61.1642 53.9048 61.1673 53.907 61.169Z" fill="white"/>
<path d="M53.9146 60.7562C53.8621 60.7399 53.815 60.7355 53.7725 60.7399C53.7997 60.8269 53.8269 60.9139 53.8541 61.0004C53.8561 61.0067 53.8583 61.0157 53.8604 61.0255C53.953 60.9917 54.041 60.9533 54.103 60.9146C54.0522 60.8427 53.9966 60.7814 53.9146 60.7562Z" fill="white"/>
<path d="M52.081 55.694L51.5828 57.0844L50.6568 55.9424L50.3359 57.3535L50.3653 57.4901L50.5824 58.3405C50.8101 58.3359 51.0101 58.3325 51.1149 58.3327C51.1516 58.3327 51.2097 58.3293 51.2845 58.3227L51.6438 57.2708L52.2745 58.1835L52.481 58.1531L52.9725 56.9269L53.8003 57.9557L53.7867 57.9667C53.9092 57.9329 54.1063 57.8809 54.3219 57.825L53.5563 55.1255L52.8794 56.8064L52.081 55.694Z" fill="white"/>
<path d="M51.2433 51.3965L51.0547 53.2981L51.7807 54.4375L52.275 53.231L53.279 54.1475L52.624 51.8388L52.3207 52.5614L51.2433 51.3965Z" fill="white"/>
<path d="M52.6611 58.1529C53.067 58.0958 53.4403 58.0389 53.6248 58.0052L53.0211 57.2549L52.6611 58.1529Z" fill="white"/>
<path d="M49.3936 61.4743C49.4831 61.4845 49.5083 61.4237 49.469 61.2918C49.3567 61.2495 49.3263 61.3003 49.3778 61.4441C49.3854 61.4539 49.3905 61.4641 49.3936 61.4743Z" fill="white"/>
<path d="M52.3392 53.5156L51.8132 54.7989L51.1065 53.6896L50.6716 55.5667L49.7549 54.6497L50.2531 56.9664L50.5705 55.5703L51.526 56.7489L52.0312 55.338L52.8384 56.4625L53.4822 54.8636L53.3556 54.4168L53.3422 54.4314L52.3392 53.5156Z" fill="white"/>
<path d="M51.4678 58.3051C51.6452 58.2861 51.8673 58.2592 52.1029 58.2285L51.6953 57.6387L51.4678 58.3051Z" fill="white"/>
<path d="M44.13 51.5995L44.1392 51.5946L44.295 46.9913C44.208 46.6428 44.1319 46.3021 44.0673 45.9902L43.7773 53.074L44.131 51.834L44.1383 51.6153L44.13 51.5995Z" fill="white"/>
<path d="M50.5762 55.2352L51.0173 53.331L50.262 52.3955L49.6094 53.9765L49.7005 54.4006L49.7209 54.3802L50.5762 55.2352Z" fill="white"/>
<path d="M47.8852 35.1211C47.9465 35.1211 47.9961 35.0715 47.9961 35.0102C47.9961 34.949 47.9465 34.8994 47.8852 34.8994C47.824 34.8994 47.7744 34.949 47.7744 35.0102C47.7744 35.0715 47.824 35.1211 47.8852 35.1211Z" fill="white"/>
<path d="M46.9839 41.6712C47.2641 41.5581 47.4941 41.3773 47.6375 41.2453C47.9729 40.9369 48.1267 39.5258 48.1576 39.0081L48.3243 39.0181C48.3204 39.082 48.2436 40.3164 47.9721 41.0018L48.4728 41.6741L48.9815 41.0108C48.71 40.3254 48.6332 39.0915 48.6296 39.0276L48.7963 39.0176C48.8272 39.5353 48.9808 40.9464 49.3164 41.2548C49.4598 41.3868 49.6897 41.5679 49.97 41.6806C50.1508 41.7535 50.336 41.8034 50.4777 41.8355C50.3712 41.7166 50.23 41.5482 50.0895 41.3496C50.0852 41.3464 50.0806 41.3433 50.0764 41.3401L50.0798 41.3357C50.0713 41.3234 50.0626 41.3114 50.0541 41.299C49.5512 40.568 49.4892 39.1065 49.4868 39.0448L49.6538 39.0382C49.6543 39.0528 49.7162 40.5133 50.1916 41.2043C50.1977 41.213 50.2038 41.2215 50.2099 41.2303C50.4757 41.4094 51.1186 41.4906 51.5238 41.519C51.3862 41.3887 51.1862 41.1887 50.9985 40.9636C50.6755 40.5765 50.4665 40.1004 50.2203 38.5694C50.0854 37.7333 50.1953 36.7753 50.2052 36.6955C50.2069 36.6219 50.241 35.49 49.7313 35.0083C49.5174 34.8061 49.1414 34.776 48.8228 34.9694C48.6305 35.0858 48.5632 35.3192 48.2485 35.3821C48.0229 35.4278 47.8948 35.4127 47.7962 35.3566C47.5646 35.2234 47.1973 34.8163 46.9657 34.6821C46.8191 34.5976 46.5319 34.574 46.3155 34.4928C46.106 34.4138 45.9245 34.3458 45.7748 34.392C45.4544 34.4916 45.3976 34.7257 45.3652 34.9344C45.5218 34.8742 46.4811 34.9184 46.857 35.204C47.1774 35.4475 47.4486 36.0128 47.4486 36.0128C47.4486 36.0128 47.1451 35.9192 47.0614 36.0089C46.9334 36.1465 46.9941 36.5492 46.9946 36.5592C46.9997 36.602 47.1137 37.7256 46.9769 38.5796C46.7428 40.0318 46.3274 40.5181 46.0244 40.873C46.0003 40.9009 45.9775 40.9282 45.9553 40.9549C45.7677 41.1795 45.5682 41.3788 45.4306 41.509C45.7881 41.4843 46.4619 41.4128 46.7438 41.2213C46.7499 41.2125 46.7559 41.204 46.762 41.1953C47.2374 40.5043 47.2994 39.0438 47.2999 39.0293L47.4668 39.0358C47.4644 39.0975 47.4024 40.559 46.8996 41.2901C46.8908 41.3027 46.8823 41.3146 46.8736 41.327L46.8772 41.3314C46.8728 41.3348 46.868 41.3379 46.8636 41.3411C46.7234 41.5394 46.5824 41.7074 46.4762 41.8262C46.6184 41.7939 46.8033 41.7441 46.9839 41.6712Z" fill="white"/>
<path d="M47.228 51.2318C47.3811 51.3834 47.58 51.5608 47.6998 51.6615C47.8597 51.7956 48.3174 52.1347 48.468 52.2457C48.5859 52.1617 48.8817 51.9492 48.985 51.8622C49.176 51.7016 49.7013 51.2101 49.8143 51.1044L49.8041 43.6755C49.5938 43.5768 49.2592 43.4176 49.1216 43.3411C48.9668 43.255 48.5915 42.9974 48.459 42.9058C48.3283 42.9923 47.9666 43.2302 47.8356 43.3053C47.6728 43.3984 47.3313 43.5345 47.0756 43.6313L47.0654 51.0636C47.1111 51.1127 47.167 51.1715 47.228 51.2318Z" fill="white"/>
<path d="M45.0528 48.8403C45.1362 49.0416 45.2237 49.228 45.3151 49.393C46.4156 51.3765 48.0851 52.4697 48.411 52.6703L48.4676 52.6792L48.6185 52.6102C48.9576 52.3983 50.6232 51.2893 51.7183 49.3155C51.7939 49.1794 51.8666 49.0287 51.9363 48.8671L52.1437 48.336C52.4924 47.3529 52.7525 46.1583 52.9066 45.3466L52.8385 43.6841C52.4506 43.7031 51.2833 43.7301 50.3412 43.4433C49.5465 43.2015 48.6808 42.6043 48.4674 42.4517C48.2092 42.6262 47.0217 43.4029 46.0974 43.5723C45.5255 43.6771 44.9483 43.7004 44.5495 43.7004C44.3854 43.7004 44.252 43.6965 44.1608 43.6926L44.0967 45.262C44.2517 46.1024 44.5393 47.4664 44.9352 48.538L45.0528 48.8403ZM45.2419 43.8854C45.7205 43.8698 46.4535 43.6611 46.8312 43.5437C47.0669 43.4569 47.5569 43.2715 47.7518 43.1601C47.905 43.0726 48.4081 42.7385 48.4132 42.7351L48.4606 42.7037L48.5072 42.7363C48.5123 42.7399 49.0239 43.096 49.2021 43.1951C49.3457 43.2751 49.7278 43.4557 49.9281 43.5495C50.246 43.6518 51.1 43.9116 51.6359 43.9289C51.8919 43.9372 52.6604 43.9289 52.6604 43.9289C52.6604 43.9289 52.6419 44.8546 52.4555 45.7943C52.2117 47.0241 51.7823 48.4106 51.4959 49.0034C50.9824 50.0672 50.2452 50.8921 49.9468 51.2025L49.9497 51.2057C49.9448 51.2103 49.9181 51.2353 49.877 51.2737C49.8367 51.3143 49.8136 51.3362 49.8136 51.3362V51.333C49.6138 51.5197 49.2488 51.8582 49.0915 51.9902C48.9566 52.1037 48.5325 52.4044 48.5145 52.4172L48.4654 52.452L48.4168 52.4163C48.3913 52.3976 47.7871 51.9538 47.5914 51.7895C47.4971 51.7102 47.2893 51.5284 47.1097 51.3505C46.9517 51.194 46.8273 51.0504 46.8219 51.0443L46.8224 51.0438C46.4792 50.6717 45.8415 49.9119 45.3819 48.9602C45.0956 48.3674 44.6661 46.9806 44.4224 45.751C44.2362 44.8114 44.2175 43.8856 44.2175 43.8856C44.2175 43.8856 44.986 43.8936 45.2419 43.8854Z" fill="white"/>
<path d="M46.9762 51.7629C46.5874 51.3998 46.1625 50.9458 45.7637 50.4009L46.0208 52.9859L46.9762 51.7629Z" fill="white"/>
<path d="M50.1425 52.2476L49.8477 51.8823C49.6336 52.0726 49.4348 52.233 49.2627 52.364L49.5478 53.6891L50.1425 52.2476Z" fill="white"/>
<path d="M47.3757 53.736L47.6642 52.3494C47.4946 52.2177 47.3033 52.0602 47.0999 51.8765L46.7812 52.2843L47.3757 53.736Z" fill="white"/>
<path d="M51.0919 51.2324L51.086 51.226L51.0933 51.2195L51.1684 50.4619C50.7706 50.9857 50.352 51.4222 49.9727 51.7705L50.9222 52.9466L51.0919 51.2324Z" fill="white"/>
<path d="M51.2656 51.174L52.2675 52.2572L52.5513 51.5811L51.9087 49.3154C51.8941 49.3429 51.8796 49.3701 51.865 49.3966C51.7009 49.6924 51.5242 49.9687 51.3412 50.2261L51.3594 50.2278L51.2656 51.174Z" fill="white"/>
<path d="M46.6975 61.2906C46.6822 61.3013 46.6949 61.2947 46.7056 61.3078C46.7175 61.3224 46.7364 61.3346 46.7505 61.347C46.7512 61.3475 46.7517 61.3482 46.7525 61.3487C46.7376 61.3083 46.7182 61.2762 46.6975 61.2906Z" fill="white"/>
<path d="M56.2449 58.8458C56.258 58.8616 56.2709 58.8839 56.2833 58.9102C56.2947 58.7653 56.2928 58.5748 56.2396 58.3816C56.135 58.0014 55.9 57.8522 55.7221 57.9011C55.7136 57.9035 55.7107 57.9054 55.7107 57.9054C55.7085 57.912 55.7107 57.946 55.7119 57.9684C55.7141 58.0058 55.7168 58.0483 55.709 58.0945C55.7015 58.1395 55.6815 58.1828 55.6606 58.2289C55.622 58.3138 55.5824 58.4015 55.6096 58.5099C55.7382 58.5558 56.1263 58.7024 56.2449 58.8458Z" fill="white"/>
<path d="M2 48.5C2 54.0135 2.96027 59.3026 4.72162 64.2099H92.2784C94.0397 59.3026 95 54.0135 95 48.5C95 42.9865 94.0397 37.6974 92.2784 32.79H4.72186C2.96051 37.6974 2 42.9863 2 48.5ZM38.956 40.2262C39.1711 39.8473 39.5381 39.5858 40.0468 39.4487C40.9064 39.2171 41.7308 39.658 42.6038 40.1249C42.9718 40.3218 43.3524 40.5252 43.7452 40.6824C44.625 41.0346 45.413 41.0915 45.6016 41.1002C45.6757 41.0217 45.7523 40.9364 45.8264 40.8475C45.8492 40.8203 45.8726 40.7923 45.8971 40.7639C46.1873 40.4241 46.5849 39.9584 46.8112 38.5524C46.9454 37.7202 46.8289 36.5828 46.828 36.5716C46.8275 36.5616 46.7845 35.9761 46.022 35.3962C45.5235 35.018 45.2873 35.2659 45.2846 35.2686L45.1398 35.4278V35.2122C45.1398 35.1794 45.1466 34.4119 45.7253 34.2318C45.9302 34.1683 46.1457 34.2495 46.3747 34.3353C46.5774 34.4116 46.8076 34.4984 47.0654 34.4991C47.1162 34.4974 47.1758 34.4474 47.2521 34.381C47.3724 34.2775 47.4788 34.1275 47.7528 34.112C48.879 34.0468 49.4679 34.4517 49.8344 34.7983C50.4122 35.3447 50.3742 36.6489 50.3721 36.704L50.3716 36.7113C50.3704 36.7213 50.2517 37.7117 50.3854 38.5422C50.6256 40.0345 50.8231 40.4924 51.127 40.8562C51.2013 40.9452 51.2781 41.0307 51.3523 41.1092C51.5406 41.1005 52.3288 41.0436 53.2089 40.6914C53.6016 40.5342 53.9822 40.3308 54.3502 40.1339C55.223 39.6672 56.0476 39.2264 56.9073 39.4577C57.416 39.5946 57.783 39.8563 57.9981 40.2352C58.2015 40.5935 58.2275 40.9826 58.2098 41.2606C58.2443 41.2796 58.2647 41.291 58.2647 41.291L58.9173 58.7998L58.8254 58.7118V58.7703H56.4579V58.6031H58.7121L57.6082 57.5461L56.8956 40.6591C56.8956 40.6591 57.1559 40.708 57.3914 40.8215C57.5307 40.8885 57.8355 41.0541 58.0455 41.1695C58.0518 40.9226 58.0168 40.6047 57.8525 40.3162C57.6602 39.9783 57.3275 39.7436 56.8643 39.6189C56.0685 39.4048 55.2723 39.8303 54.4295 40.2809C54.0576 40.4797 53.6728 40.6854 53.2713 40.8463C52.5087 41.1515 51.8272 41.2407 51.5061 41.2667C51.6762 41.4366 51.8048 41.5484 51.807 41.5504L51.9842 41.7035L51.7501 41.6969C51.709 41.6959 50.9366 41.6719 50.417 41.5037C50.6117 41.7453 50.7726 41.9025 50.7748 41.9045L50.9566 42.0812L50.7053 42.0474C50.6887 42.0452 50.2955 41.991 49.9081 41.835C49.6045 41.7127 49.3576 41.5185 49.2037 41.3771C49.1517 41.3292 49.1043 41.2626 49.0608 41.1819L48.4712 41.9504L47.8928 41.1741C47.8495 41.2541 47.8023 41.3204 47.7508 41.3678C47.597 41.5093 47.35 41.7035 47.0465 41.8257C46.6591 41.9818 46.2658 42.036 46.2493 42.0381L45.9982 42.0719L46.18 41.8952C46.1822 41.8931 46.3429 41.7358 46.5373 41.4947C46.0177 41.6626 45.2455 41.6865 45.2047 41.6877L44.9706 41.6938L45.1478 41.5406C45.1497 41.5389 45.2783 41.4271 45.4487 41.2572C45.1276 41.2312 44.4461 41.142 43.6835 40.8368C43.2819 40.6761 42.8974 40.4705 42.5253 40.2715C41.6825 39.8209 40.8862 39.395 40.0905 39.6094C39.6265 39.7343 39.2938 39.9694 39.1016 40.3079C38.9329 40.6049 38.9008 40.9318 38.9096 41.1807C39.0889 41.0677 39.3594 40.899 39.4819 40.8314C39.7554 40.6803 40.1051 40.6589 40.1051 40.6589L39.3925 57.5459L38.3177 58.5749H40.458C40.466 58.5066 40.4794 58.4335 40.5003 58.3552C40.6213 57.9022 40.9373 57.7182 41.1888 57.7508L41.5007 57.5612C41.5007 57.5612 42.0444 57.6949 42.5239 57.8154L42.4318 57.7892L43.7061 53.3222L42.598 54.4553L43.1281 43.1501L44.1678 43.5215L44.1676 43.5249C44.4716 43.5375 45.2749 43.5523 46.0672 43.4072C47.0523 43.2269 48.4073 42.2897 48.4209 42.2802L48.47 42.246L48.5181 42.2814C48.5281 42.2887 49.5221 43.0184 50.3898 43.2825C51.3114 43.563 52.4938 43.5321 52.8501 43.5149L53.8717 43.1501L54.4017 54.4553L53.2303 53.2574L52.9357 46.0586C52.8698 46.3685 52.7933 46.7019 52.7067 47.0407L52.8676 52.0847L53.6386 54.8026L53.6794 54.8192L53.6583 54.8719L54.4836 57.7826C54.9313 57.6669 55.3939 57.5495 55.3939 57.5495L55.7069 57.7367C55.9584 57.7024 56.2756 57.884 56.4001 58.3363C56.5206 58.7747 56.4074 59.07 56.4025 59.0875L56.3741 59.1906C56.3835 59.2282 56.3916 59.2637 56.3984 59.2939C56.5041 59.2999 56.7017 59.333 56.857 59.4839C57.015 59.6375 57.2964 59.9637 57.2964 59.9637L57.5203 59.9669L57.5091 60.1778L57.3317 60.181C57.3317 60.181 57.2682 60.6804 57.155 60.863C57.1039 60.9454 57.0303 61.0017 56.9593 61.0562C56.8937 61.1065 56.769 61.1821 56.769 61.1821C56.769 61.1821 56.7578 61.3894 56.7564 61.4835C56.7539 61.6351 56.7515 61.807 56.5571 61.9469C56.2559 62.1637 55.7305 62.2717 55.1204 62.3968C52.7952 62.8742 48.8156 62.8895 48.7755 62.8895V62.8883L48.1373 62.8934C48.0974 62.8934 44.1175 62.8778 41.7923 62.4007C41.1823 62.2755 40.6568 62.1676 40.3557 61.9508C40.1612 61.8111 40.1588 61.639 40.1564 61.4874C40.1549 61.3933 40.1437 61.186 40.1437 61.186C40.1437 61.186 40.0191 61.1106 39.9534 61.0601C39.8822 61.0056 39.8088 60.9492 39.7578 60.8669C39.6445 60.6841 39.5811 60.1849 39.5811 60.1849L39.4037 60.1817L39.3925 59.9707L39.6163 59.9676C39.6163 59.9676 39.898 59.6412 40.0558 59.4878C40.2111 59.3369 40.4084 59.3038 40.5144 59.2978C40.5197 59.2732 40.5263 59.245 40.5336 59.2149L40.503 59.1065C40.4998 59.0951 40.4478 58.9602 40.4478 58.7422H38.143L38.0832 58.7993L38.7358 41.2905C38.7358 41.2905 38.7399 41.2879 38.7467 41.2835C38.7248 41.0047 38.7445 40.5991 38.956 40.2262ZM55.4787 41.9166L56.7104 40.8436L57.3795 57.2141L56.0705 55.9607L55.4787 41.9166ZM55.842 55.7498L54.533 54.4964L54.1427 42.9987L55.1822 42.1837L55.842 55.7498ZM41.8181 42.1837L42.8576 42.9987L42.4673 54.4964L41.1582 55.7498L41.8181 42.1837ZM40.9298 55.9605L39.6207 57.2139L40.2898 40.8433L41.5216 41.9164L40.9298 55.9605Z" fill="#F9F9F9"/>
<path d="M52.4402 58.6512C52.4067 58.6604 52.3758 58.6738 52.3479 58.6906C52.2701 58.7562 52.2285 58.8678 52.2295 59.0124C52.2312 59.2493 52.3569 59.4413 52.5576 59.4399C52.6859 59.4389 52.789 59.3589 52.8464 59.2396C52.8745 59.1526 52.8743 59.0474 52.8449 58.9397C52.782 58.7107 52.6337 58.598 52.4402 58.6512Z" fill="white"/>
<path d="M49.2459 58.8507C49.241 58.8288 49.2213 58.8195 49.2174 58.8137C49.2174 58.8137 49.214 58.8125 49.2053 58.8125C49.0206 58.814 48.8108 59.0636 48.8135 59.4578C48.815 59.6712 48.8692 59.8085 48.9229 59.9468C48.9484 59.8768 48.9844 59.8027 49.0347 59.7419C49.0879 59.6775 49.1659 59.6289 49.2415 59.582C49.3698 59.5023 49.3927 59.4634 49.3922 59.3786C49.3915 59.2626 49.303 59.0123 49.2833 58.9712C49.2631 58.9289 49.2539 58.8874 49.2459 58.8507Z" fill="white"/>
<path d="M47.6646 59.5729C47.7404 59.6193 47.8189 59.6672 47.8724 59.7313C47.9229 59.7919 47.9596 59.8655 47.9856 59.9355C48.0384 59.7967 48.0933 59.6008 48.0933 59.3877C48.0933 58.9935 47.9064 58.7871 47.7217 58.7871C47.7129 58.7871 47.7095 58.7883 47.7095 58.7883C47.7056 58.7942 47.6988 58.8272 47.694 58.8493C47.6862 58.886 47.6774 58.9276 47.6578 58.9701C47.6386 59.0114 47.6079 59.0481 47.5754 59.0868C47.5144 59.1599 47.4512 59.2353 47.4512 59.3515C47.4512 59.436 47.5358 59.4941 47.6646 59.5729Z" fill="white"/>
<path d="M40.6683 58.8494C40.7677 58.7291 41.0569 58.6064 41.2236 58.5429C41.2246 58.5395 41.2256 58.5364 41.2265 58.533C41.2564 58.4209 41.2375 58.1563 41.2297 58.1113C41.2217 58.0651 41.2239 58.0228 41.2258 57.9852C41.227 57.9628 41.2103 57.9485 41.2081 57.9419C41.2081 57.9419 41.2051 57.9397 41.1966 57.9375C41.0182 57.8899 40.7497 58.0751 40.6478 58.4559C40.5958 58.6511 40.607 58.793 40.6214 58.9328C40.6364 58.8983 40.6522 58.8691 40.6683 58.8494Z" fill="white"/>
<path d="M40.65 59.4708L40.5762 59.4649C40.574 59.4649 40.3358 59.4499 40.1727 59.6083C39.9211 59.8531 39.7675 60.0759 39.7556 60.1265C39.7364 60.2607 39.7935 60.6077 39.9002 60.7798C39.9352 60.8362 39.9936 60.8812 40.0555 60.9283C40.1336 60.9881 40.3419 61.0907 40.3419 61.0907C40.3419 61.0907 40.3224 61.3823 40.3239 61.4856C40.3261 61.6246 40.3275 61.7252 40.4537 61.8159C40.7259 62.0118 41.235 62.1163 41.8244 62.2373C44.1351 62.7115 48.0979 62.7268 48.1378 62.7271L48.7753 62.7239V62.7234C48.8151 62.7234 52.778 62.7081 55.0886 62.2337C55.6782 62.1127 56.1874 62.0081 56.4594 61.8123C56.5855 61.7214 56.587 61.621 56.5892 61.482C56.5906 61.3787 56.5712 61.087 56.5712 61.087C56.5712 61.087 56.7795 60.9844 56.8575 60.9247C56.9195 60.8773 56.9778 60.8325 57.0128 60.7762C57.1195 60.6041 57.1764 60.257 57.1574 60.1228C57.1458 60.072 56.9921 59.8494 56.7404 59.6047C56.5773 59.4462 56.3391 59.4613 56.3369 59.4613L56.263 59.4671L56.2484 59.3944C56.2183 59.2445 56.1704 59.0656 56.1344 58.9861C56.0324 58.9246 55.8807 58.8498 55.8284 58.8347C55.7166 58.8026 55.5844 58.7642 55.5057 58.6699C55.257 58.7501 54.5938 58.9633 54.3371 59.0364C54.0603 59.1154 53.2544 59.2634 52.9992 59.3096C52.9557 59.4557 52.873 59.5818 52.761 59.6385L52.8052 59.7994L52.7335 59.819V59.8271L52.7031 59.8273L52.5811 59.8608L52.5721 59.8283L52.5157 59.6718C52.4059 59.6504 52.2878 59.5595 52.2093 59.4511C52.1974 59.4379 52.1327 59.3964 52.1215 59.3828C51.8564 59.4085 51.1051 59.5123 50.8195 59.5116C50.5527 59.5111 49.8563 59.4866 49.5953 59.4771C49.5452 59.5894 49.4283 59.6623 49.3297 59.7235C49.2626 59.7651 49.0285 59.985 49.0047 60.0434C48.977 60.1109 48.9734 60.3338 48.9734 60.3338L48.8465 60.1241C48.8373 60.1088 48.6477 59.8555 48.6445 59.4005C48.6443 59.3765 48.6452 59.3531 48.6465 59.33H48.2593C48.2603 59.349 48.2612 59.3677 48.2612 59.3874C48.2612 59.8421 48.0736 60.0968 48.0644 60.1124L47.939 60.3231C47.939 60.3231 47.9336 60.1002 47.9054 60.0329C47.8811 59.9748 47.6454 59.7566 47.578 59.7153C47.4789 59.6547 47.3615 59.5826 47.3104 59.4708C47.0494 59.4822 46.3533 59.5118 46.0865 59.5143C45.7985 59.5169 44.9823 59.446 44.724 59.4229C44.6433 59.5522 44.53 59.6518 44.407 59.6769V59.8438H44.3327L44.3305 59.8516L44.3011 59.8438H44.1744V59.8101L44.1616 59.6443C44.0614 59.5945 43.9717 59.4756 43.9243 59.3502C43.9163 59.3344 43.8648 59.2773 43.8577 59.261C43.5953 59.2156 42.8433 59.1164 42.5681 59.0401C42.311 58.9689 41.646 58.7606 41.3969 58.6821C41.3189 58.7771 41.1869 58.8162 41.0754 58.8493C41.0236 58.8646 40.8751 58.9392 40.7735 59.0012C40.738 59.0855 40.6931 59.2549 40.6644 59.3981L40.65 59.4708ZM55.8275 61.0826C55.7047 61.0826 55.6053 61.0321 55.6053 60.9696C55.6053 60.9072 55.7047 60.8566 55.8275 60.8566C55.9502 60.8566 56.0496 60.9072 56.0496 60.9696C56.0496 61.0321 55.9502 61.0826 55.8275 61.0826ZM52.3813 61.0593C52.401 60.8284 52.7223 60.6952 52.9022 60.852C52.9812 60.9208 52.9965 61.0467 52.9892 61.1672C52.9902 61.1672 52.9914 61.1672 52.9926 61.167C53.082 61.1638 53.1737 61.1594 53.2646 61.1526C53.3158 60.9268 53.3824 60.7288 53.556 60.6362C53.4996 60.4415 53.45 60.2446 53.4065 60.0516C53.3829 59.9466 53.5441 59.9024 53.5676 60.0072C53.6116 60.2016 53.6663 60.3943 53.7244 60.5858C53.7378 60.5841 53.7511 60.5824 53.7655 60.5815C54.0357 60.5657 54.1432 60.6704 54.2812 60.8819C54.3199 60.8389 54.3622 60.8048 54.419 60.7832C54.4288 60.685 54.4353 60.5849 54.506 60.5093C54.5685 60.4425 54.6545 60.4023 54.7394 60.3722C54.9105 60.3114 55.0697 60.2854 55.224 60.3985C55.2794 60.4391 55.3129 60.4767 55.3295 60.5246C55.3742 60.4821 55.4252 60.4459 55.4804 60.424C55.4038 60.2052 55.4089 59.969 55.3688 59.7432C55.3509 59.6426 55.3324 59.505 55.2833 59.4139C55.225 59.3055 54.8533 59.1949 54.7851 59.3655C54.7457 59.4644 54.5841 59.4209 54.6239 59.321C54.7396 59.0313 55.267 59.0488 55.4187 59.3067C55.6039 59.6214 55.5242 60.0492 55.6432 60.3841C55.6462 60.3924 55.6474 60.4004 55.6479 60.4079C55.7276 60.4213 55.8071 60.4556 55.8865 60.4643C55.9364 60.4699 55.9995 60.4881 56.0431 60.4531C56.0766 60.4262 56.0919 60.3088 56.1031 60.2716C56.1337 60.1685 56.2949 60.2128 56.2642 60.3161C56.2127 60.4894 56.1974 60.6549 55.9942 60.6422C55.9014 60.6364 55.8075 60.6255 55.7169 60.6055C55.6306 60.5866 55.5832 60.5586 55.5006 60.6038C55.4474 60.633 55.3985 60.6894 55.3647 60.7378C55.3535 60.7538 55.3394 60.764 55.3246 60.7696C55.3093 60.8335 55.2814 60.8926 55.2267 60.9351C55.0252 61.0911 54.7187 61.0605 54.5017 60.9635C54.489 60.958 54.4795 60.9507 54.4727 60.9424C54.3631 60.9968 54.2722 61.1808 54.185 61.2542C54.1196 61.3092 54.0421 61.3697 53.9529 61.3721C53.8476 61.375 53.7956 61.3126 53.7584 61.2333C53.7103 61.2579 53.6617 61.2793 53.6039 61.2899C53.4332 61.3215 53.2451 61.3179 53.0723 61.3291C53.0412 61.331 53.0055 61.3344 52.9673 61.3376C52.9651 61.3488 52.9629 61.3597 52.9608 61.3699C52.9258 61.5335 52.7977 61.707 52.6504 61.7836C52.5549 61.8332 52.4705 61.6888 52.5661 61.6392C52.6319 61.6049 52.7165 61.4807 52.7702 61.3478C52.5622 61.3478 52.3609 61.3002 52.3813 61.0593ZM41.6502 61.438C41.5566 61.438 41.4808 61.3621 41.4808 61.2686C41.4808 61.175 41.5566 61.0992 41.6502 61.0992C41.7437 61.0992 41.8196 61.175 41.8196 61.2686C41.8196 61.3621 41.7437 61.438 41.6502 61.438ZM42.1243 61.5583C42.0308 61.5583 41.9549 61.4824 41.9549 61.3889C41.9549 61.2953 42.0308 61.2195 42.1243 61.2195C42.2179 61.2195 42.2937 61.2953 42.2937 61.3889C42.2935 61.4824 42.2177 61.5583 42.1243 61.5583ZM42.6435 61.6713C42.5499 61.6713 42.4741 61.5955 42.4741 61.5019C42.4741 61.4083 42.5499 61.3325 42.6435 61.3325C42.7371 61.3325 42.8129 61.4083 42.8129 61.5019C42.8127 61.5955 42.7371 61.6713 42.6435 61.6713ZM50.4866 62.1797C50.4149 62.1797 50.3565 62.0966 50.3565 61.9941C50.3565 61.8915 50.4146 61.8084 50.4866 61.8084C50.5583 61.8084 50.6166 61.8915 50.6166 61.9941C50.6166 62.0966 50.5585 62.1797 50.4866 62.1797ZM50.9398 62.1958C50.8249 62.1958 50.7318 62.099 50.7318 61.9795C50.7318 61.8599 50.8249 61.7632 50.9398 61.7632C51.0548 61.7632 51.1479 61.8599 51.1479 61.9795C51.1479 62.0988 51.0548 62.1958 50.9398 62.1958ZM51.6136 60.7715C51.7361 60.6646 51.9278 60.7292 52.0321 60.8253C52.2163 60.9949 52.1504 61.2209 52.0894 61.4367C52.0856 61.4508 52.079 61.462 52.0707 61.4708C52.0625 61.6599 51.8736 61.9027 51.7482 61.9783C51.6558 62.0342 51.572 61.8895 51.6639 61.8339C51.7305 61.7935 51.827 61.6431 51.8568 61.5658C51.9006 61.4521 51.8778 61.4348 51.8048 61.3694C51.7344 61.306 51.6507 61.2712 51.5922 61.192C51.5088 61.0797 51.4991 60.8714 51.6136 60.7715ZM50.4183 60.3078C50.427 60.2011 50.5942 60.2006 50.5855 60.3078C50.5687 60.5132 50.6382 60.7028 50.6326 60.9033C50.629 61.0333 50.592 61.1687 50.5497 61.2951C50.6934 61.3514 50.8237 61.4297 50.9872 61.4086C51.1418 61.3886 51.2203 61.3092 51.2303 61.1402C51.232 61.1116 51.2189 61.0569 51.2103 61.0027C51.0808 60.9616 51.0344 60.7827 51.2033 60.754C51.4784 60.7074 51.399 61.2797 51.3372 61.4088C51.2121 61.671 50.8224 61.6023 50.6023 61.5021C50.5711 61.4846 50.5386 61.47 50.5045 61.4584C50.5002 61.4545 50.4958 61.4513 50.4914 61.4482C50.4183 61.5916 50.2792 61.6885 50.1191 61.5631C50.0948 61.5439 50.0931 61.5092 50.0977 61.482C50.1193 61.3497 50.2498 61.2768 50.3777 61.2666C50.4005 61.1944 50.4229 61.1252 50.4365 61.0479C50.4793 60.8043 50.3978 60.5564 50.4183 60.3078ZM50.0226 60.1464C50.1098 60.1464 50.1803 60.2232 50.1803 60.3183C50.1803 60.4133 50.1096 60.4901 50.0226 60.4901C49.9353 60.4901 49.8648 60.4133 49.8648 60.3183C49.8648 60.2232 49.9353 60.1464 50.0226 60.1464ZM50.0457 60.6386C50.1866 60.6386 50.3009 60.6884 50.3009 60.7499C50.3009 60.8114 50.1866 60.8612 50.0457 60.8612C49.9047 60.8612 49.7905 60.8114 49.7905 60.7499C49.7905 60.6884 49.9047 60.6386 50.0457 60.6386ZM46.416 62.0582C46.5188 61.9787 46.6275 61.8968 46.7109 61.7957C46.7449 61.7544 46.7736 61.6958 46.8086 61.6465C46.8025 61.6334 46.7986 61.6195 46.7954 61.6057C46.7245 61.5425 46.6474 61.4856 46.5799 61.4193C46.5016 61.3424 46.5101 61.227 46.5942 61.1558C46.6931 61.0719 46.8078 61.1295 46.8744 61.2229C46.9101 61.2729 46.9276 61.3322 46.9393 61.3923C46.9461 61.4263 46.943 61.4764 46.9471 61.5196C46.9539 61.5259 46.9605 61.5323 46.967 61.5388C47.0424 61.5208 47.1284 61.5245 47.2057 61.5269C47.2271 61.4528 47.2869 61.1939 47.3029 61.0863C47.273 61.0566 47.2526 61.0216 47.2468 60.9803C47.2387 60.9242 47.2827 60.853 47.3496 60.8775C47.3948 60.894 47.4239 60.9283 47.4412 60.973C47.5574 61.0457 47.9411 61.1067 48.008 61.1198C48.2306 61.1631 48.4202 61.1013 48.635 61.1186C48.882 61.1385 48.8526 61.2999 48.8832 61.4844C48.9036 61.4788 48.9262 61.4742 48.9517 61.47C49.0268 61.4584 49.1165 61.4727 49.2011 61.4771C49.1379 61.366 49.1245 61.2455 49.2599 61.1563C49.3693 61.0841 49.5722 61.1043 49.657 61.2085C49.7623 61.3378 49.7066 61.567 49.5513 61.6222C49.4274 61.6662 49.2677 61.619 49.1389 61.629C49.0101 61.639 48.9026 61.6421 48.8224 61.7471C48.7835 61.7979 48.7814 61.866 48.7454 61.9151C48.6326 62.0687 48.4632 62.0798 48.312 61.9595C48.2634 61.9207 48.2406 61.8733 48.2031 61.829C48.0814 61.6859 48.0717 61.6958 47.9083 61.6917C47.6607 61.6854 47.4026 61.6759 47.1556 61.6968C46.9021 61.7184 46.706 62.0431 46.4999 62.2023C46.4151 62.2682 46.3319 62.1231 46.416 62.0582ZM46.1244 60.2026H46.2826L46.1477 61.5184H45.9895L46.1244 60.2026ZM43.571 61.3838C43.6162 61.3347 43.6373 61.2678 43.6283 61.2017L43.571 60.7769C43.5661 60.7409 43.6033 60.7137 43.6361 60.7295L43.8269 60.8209L43.8908 61.2498L44.5643 61.2423L44.5793 61.1905C44.4753 61.1213 44.4044 61.001 44.3963 60.8624H44.3011V60.6894H44.4204C44.4758 60.5312 44.6177 60.4184 44.7847 60.4184C44.9916 60.4184 45.1602 60.5914 45.1729 60.8097H45.2305V60.9827H45.1488C45.1053 61.1065 45.0091 61.2022 44.889 61.2379L44.9984 61.3116L45.2144 61.4516C45.2144 61.4516 45.2565 61.7585 45.3564 61.7561C45.6203 61.7498 45.6167 61.4397 45.6167 61.4397L45.6254 60.1812H45.7873L45.7909 61.4905C45.7909 61.4905 45.674 61.9552 45.3996 61.9722C45.3214 61.977 45.1794 61.874 45.1286 61.8142C45.0805 61.7573 45.0465 61.5976 45.0003 61.5366C44.9568 61.4793 44.8243 61.4103 44.7485 61.3966C44.6498 61.3789 44.3497 61.4419 44.3497 61.4419H43.7591L43.4956 61.6638L43.4242 61.5434L43.571 61.3838ZM42.2238 59.3896C42.2238 59.3896 42.0592 59.9819 41.9912 60.1773C41.9489 60.2986 41.8264 60.5897 41.8925 60.7071C41.9372 60.7868 42.1521 60.8573 42.2804 60.8931C42.3377 60.9091 42.6031 60.075 42.6031 60.075L42.6309 60.5176L42.5054 60.9696L42.808 61.0739C42.8508 61.0909 43.0229 61.1346 43.0836 61.079C43.1152 61.0498 43.1738 60.9285 43.1823 60.9045C43.1959 60.8651 43.2278 60.8114 43.2253 60.7528C43.2229 60.6896 43.149 60.6809 43.1318 60.6541C43.1165 60.6303 43.0734 60.562 43.1191 60.4872C43.1546 60.4291 43.2915 60.3831 43.3947 60.5227C43.4453 60.591 43.4018 60.7574 43.377 60.8437C43.3595 60.9047 43.2961 61.0474 43.2633 61.1016C43.236 61.1463 43.1896 61.2015 43.114 61.2382C43.0542 61.2673 42.9573 61.2836 42.8207 61.2467C42.8207 61.2467 42.2583 61.0817 42.0755 61.0129C41.96 60.9694 41.6246 60.8133 41.6246 60.8133C41.6246 60.8133 41.4249 60.7431 41.4856 60.4719C41.5286 60.2796 41.7493 60.2864 41.8043 60.171C41.8978 59.9736 42.0546 59.3407 42.0546 59.3407L42.2238 59.3896ZM41.7121 59.28C41.815 59.28 41.8983 59.3633 41.8983 59.4661C41.8983 59.5689 41.815 59.6523 41.7121 59.6523C41.6093 59.6523 41.526 59.5689 41.526 59.4661C41.526 59.3636 41.6093 59.28 41.7121 59.28ZM41.622 59.7522C41.7248 59.7522 41.8081 59.8149 41.8081 59.8924C41.8081 59.9697 41.7248 60.0327 41.622 60.0327C41.5192 60.0327 41.4358 59.97 41.4358 59.8924C41.4358 59.8149 41.5192 59.7522 41.622 59.7522Z" fill="white"/>
<path d="M52.2094 58.408C52.2094 58.408 51.3259 58.5249 51.1281 58.5264C50.8833 58.5281 50.4757 58.558 50.022 58.5434C49.8664 58.5385 49.6363 58.5249 49.5417 58.5796C49.3796 58.6732 49.5772 59.1337 49.6059 59.2506C49.8732 59.2657 50.563 59.3031 50.8335 59.3012C51.0965 59.2992 51.7605 59.2295 52.0511 59.1977C52.0465 59.1845 52.0422 59.1712 52.0385 59.1578C51.9593 58.87 52.1289 58.5521 52.3814 58.4826C52.3851 58.4816 52.389 58.4812 52.3929 58.4802C52.4427 58.4593 52.4954 58.4469 52.5496 58.4466C52.8116 58.4447 53.0612 58.7045 53.0634 59.003C53.0637 59.0251 53.062 59.0477 53.0595 59.0705C53.3446 59.0227 54.0101 58.9079 54.2655 58.8377C54.5266 58.7658 55.1799 58.5422 55.4331 58.4549C55.429 58.3346 55.473 58.2362 55.5077 58.1598C55.5213 58.1302 55.5337 58.1022 55.5401 58.0801C55.4944 57.9943 55.3937 57.8213 55.3123 57.7919C55.2098 57.7544 54.9888 57.8407 54.8403 57.8879C54.4075 58.0254 54.0072 58.1076 53.7714 58.1727C53.4448 58.2622 52.2094 58.408 52.2094 58.408ZM50.633 59.0287L49.7381 58.9959L49.7449 58.8076L50.6398 58.8404L50.633 59.0287ZM51.9231 58.9558H51.0274V58.7672H51.9231V58.9558ZM55.2154 57.9669L55.2727 58.1465L54.5526 58.3762L54.4952 58.1965L55.2154 57.9669ZM54.0529 58.5584L53.3096 58.6958L53.2754 58.5103L54.0186 58.373L54.0529 58.5584Z" fill="white"/>
<path d="M44.2635 59.4315C44.3875 59.4645 44.5082 59.415 44.595 59.3151C44.6451 59.2385 44.673 59.1372 44.673 59.0254C44.673 58.7884 44.56 58.6401 44.3593 58.6401C44.3245 58.6401 44.2912 58.645 44.2599 58.6535C44.1673 58.696 44.0977 58.7928 44.0606 58.9323C43.9993 59.1615 44.0696 59.3797 44.2635 59.4315Z" fill="white"/>
<path d="M48.4999 95.0001C68.6676 95.0001 85.8358 82.1605 92.2784 64.21H4.72168C11.1641 82.1608 28.3323 95.0001 48.4999 95.0001Z" fill="black"/>
<path d="M41.4851 60.4717C41.4244 60.7429 41.6242 60.8132 41.6242 60.8132C41.6242 60.8132 41.9598 60.9692 42.075 61.0127C42.2578 61.0815 42.8202 61.2465 42.8202 61.2465C42.9568 61.2837 43.0537 61.2672 43.1135 61.238C43.1891 61.2013 43.2355 61.1462 43.2628 61.1014C43.2956 61.0472 43.359 60.9043 43.3765 60.8436C43.4013 60.7573 43.4448 60.5908 43.3943 60.5225C43.291 60.3832 43.1541 60.4289 43.1186 60.487C43.0729 60.5619 43.116 60.6302 43.1313 60.654C43.1485 60.6805 43.2224 60.6895 43.2249 60.7527C43.2273 60.8112 43.1957 60.8652 43.1818 60.9043C43.1736 60.9281 43.115 61.0497 43.0832 61.0788C43.0224 61.1345 42.8503 61.0907 42.8075 61.0737L42.505 60.9695L42.6304 60.5174L42.6027 60.0748C42.6027 60.0748 42.3373 60.9089 42.2799 60.8929C42.1516 60.8572 41.9367 60.7867 41.892 60.707C41.8261 60.5896 41.9484 60.2984 41.9907 60.1771C42.0587 59.982 42.2233 59.3894 42.2233 59.3894L42.0539 59.3408C42.0539 59.3408 41.8971 59.9737 41.8035 60.1711C41.7488 60.2865 41.5279 60.2795 41.4851 60.4717Z" fill="#FCD116"/>
<path d="M41.6499 61.4379C41.7434 61.4379 41.8193 61.3621 41.8193 61.2685C41.8193 61.175 41.7434 61.0991 41.6499 61.0991C41.5563 61.0991 41.4805 61.175 41.4805 61.2685C41.4805 61.3621 41.5563 61.4379 41.6499 61.4379Z" fill="#FCD116"/>
<path d="M42.1245 61.2197C42.0309 61.2197 41.9551 61.2956 41.9551 61.3891C41.9551 61.4827 42.0309 61.5585 42.1245 61.5585C42.2181 61.5585 42.2939 61.4827 42.2939 61.3891C42.2936 61.2956 42.2178 61.2197 42.1245 61.2197Z" fill="#FCD116"/>
<path d="M42.643 61.3325C42.5495 61.3325 42.4736 61.4083 42.4736 61.5019C42.4736 61.5955 42.5495 61.6713 42.643 61.6713C42.7366 61.6713 42.8124 61.5955 42.8124 61.5019C42.8122 61.4083 42.7366 61.3325 42.643 61.3325Z" fill="#FCD116"/>
<path d="M41.7125 59.6526C41.8153 59.6526 41.8987 59.5693 41.8987 59.4664C41.8987 59.3636 41.8153 59.2803 41.7125 59.2803C41.6097 59.2803 41.5264 59.3636 41.5264 59.4664C41.5264 59.5693 41.6097 59.6526 41.7125 59.6526Z" fill="#FCD116"/>
<path d="M41.6217 60.0324C41.7245 60.0324 41.8079 59.9697 41.8079 59.8922C41.8079 59.8149 41.7245 59.752 41.6217 59.752C41.5189 59.752 41.4355 59.8147 41.4355 59.8922C41.4355 59.9695 41.5189 60.0324 41.6217 60.0324Z" fill="#FCD116"/>
<path d="M43.7587 61.4413H44.3493C44.3493 61.4413 44.6495 61.3784 44.7482 61.3961C44.824 61.4097 44.9565 61.4788 45 61.5361C45.0462 61.5971 45.0802 61.7568 45.1283 61.8137C45.1789 61.8735 45.321 61.9765 45.3993 61.9717C45.6737 61.9546 45.7906 61.4899 45.7906 61.4899L45.787 60.1807H45.6251L45.6163 61.4392C45.6163 61.4392 45.6202 61.749 45.356 61.7556C45.2561 61.758 45.2141 61.4511 45.2141 61.4511L44.998 61.3111L44.8887 61.2374C45.0087 61.2017 45.105 61.1059 45.1485 60.9822H45.2301V60.8092H45.1725C45.1599 60.5909 44.9912 60.4179 44.7844 60.4179C44.6177 60.4179 44.4757 60.5306 44.4201 60.6889H44.3007V60.8619H44.396C44.404 61.0007 44.4752 61.1208 44.579 61.19L44.564 61.2418L43.8905 61.2493L43.8266 60.8204L43.6358 60.729C43.603 60.7132 43.5658 60.7404 43.5706 60.7764L43.628 61.2012C43.637 61.2673 43.6158 61.3342 43.5706 61.3833L43.4238 61.5427L43.4953 61.663L43.7587 61.4413Z" fill="#FCD116"/>
<path d="M46.2821 60.2026H46.1239L45.9893 61.5185H46.1475L46.2821 60.2026Z" fill="#FCD116"/>
<path d="M46.5002 62.2027C46.7063 62.0435 46.9024 61.7185 47.1559 61.6971C47.4029 61.6762 47.661 61.6857 47.9086 61.692C48.0717 61.6961 48.0817 61.6862 48.2035 61.8293C48.2409 61.8733 48.2637 61.921 48.3123 61.9599C48.4635 62.0804 48.6329 62.0692 48.7457 61.9154C48.7817 61.8663 48.7839 61.7982 48.8227 61.7474C48.9032 61.6424 49.0104 61.6393 49.1392 61.6293C49.268 61.6193 49.4277 61.6665 49.5516 61.6225C49.7069 61.5671 49.7626 61.3379 49.6574 61.2088C49.5723 61.1046 49.3696 61.0844 49.2602 61.1566C49.1248 61.2458 49.1382 61.3661 49.2014 61.4774C49.1168 61.473 49.0271 61.4587 48.952 61.4704C48.9265 61.4742 48.9042 61.4789 48.8835 61.4847C48.8891 61.518 48.8966 61.552 48.908 61.5863C48.9423 61.6886 48.7809 61.7321 48.7469 61.6308C48.7413 61.614 48.7367 61.5977 48.7326 61.5819C48.7143 61.6045 48.6971 61.6315 48.6786 61.6638C48.6293 61.7504 48.5989 61.8954 48.4455 61.8522C48.3794 61.8335 48.3568 61.738 48.3272 61.6913C48.2749 61.6091 48.2105 61.562 48.1147 61.5391C47.8916 61.4857 47.6219 61.5134 47.3829 61.5248C47.3754 61.5486 47.3686 61.5693 47.363 61.5853C47.3285 61.6867 47.1671 61.6429 47.2019 61.5408C47.2031 61.5374 47.2043 61.5331 47.206 61.5277C47.1285 61.5255 47.0427 61.5216 46.9673 61.5396C46.9783 61.5506 46.989 61.5615 46.9989 61.5729C47.0633 61.6466 46.9707 61.7513 46.9003 61.7073C46.8723 61.7095 46.8431 61.6998 46.8227 61.6716C46.8171 61.6638 46.8123 61.6556 46.8084 61.6473C46.7731 61.6966 46.7445 61.7552 46.7107 61.7965C46.6273 61.8976 46.5187 61.9795 46.4159 62.059C46.3318 62.1232 46.4149 62.2683 46.5002 62.2027ZM49.469 61.2917C49.5084 61.4237 49.4831 61.4845 49.3937 61.4742C49.3905 61.464 49.3856 61.4538 49.3779 61.4444C49.3263 61.3002 49.3567 61.2494 49.469 61.2917Z" fill="#FCD116"/>
<path d="M47.3633 61.5843C47.3689 61.568 47.3757 61.5474 47.3832 61.5238C47.4114 61.4351 47.4488 61.3014 47.46 61.1775C47.6306 61.2409 47.8574 61.2589 47.9641 61.2808C48.1284 61.3143 48.2803 61.3226 48.448 61.3029C48.7207 61.2705 48.685 61.3969 48.7328 61.5812C48.737 61.597 48.7416 61.6135 48.7472 61.63C48.7812 61.7314 48.9426 61.6879 48.9083 61.5855C48.8969 61.5515 48.8894 61.5172 48.8838 61.4839C48.8531 61.2995 48.8826 61.1381 48.6356 61.1182C48.4208 61.1009 48.2312 61.1626 48.0086 61.1194C47.9417 61.1065 47.558 61.0452 47.4418 60.9726C47.4245 60.9278 47.3954 60.8938 47.3502 60.8771C47.2833 60.8525 47.2393 60.9237 47.2473 60.9799C47.2532 61.0212 47.2733 61.0559 47.3035 61.0858C47.2874 61.1935 47.2277 61.4523 47.2063 61.5265C47.2048 61.5318 47.2034 61.5364 47.2021 61.5396C47.1674 61.6419 47.3288 61.6857 47.3633 61.5843Z" fill="#FCD116"/>
<path d="M46.9005 61.7064C46.971 61.7504 47.0636 61.6457 46.9991 61.572C46.9892 61.5606 46.9782 61.5497 46.9676 61.5387C46.961 61.5322 46.9544 61.5259 46.9476 61.5195C46.9435 61.4763 46.9464 61.4262 46.9398 61.3922C46.9282 61.3324 46.9107 61.2728 46.875 61.2228C46.8084 61.1297 46.6936 61.0721 46.5947 61.1557C46.5106 61.2269 46.5021 61.3424 46.5804 61.4192C46.6477 61.4853 46.725 61.5424 46.796 61.6056C46.7989 61.6197 46.8028 61.6335 46.8091 61.6464C46.813 61.6547 46.8176 61.6629 46.8234 61.6707C46.8436 61.6989 46.8728 61.7086 46.9005 61.7064ZM46.7058 61.3076C46.6951 61.2947 46.6825 61.301 46.6978 61.2903C46.7184 61.276 46.7379 61.3081 46.7529 61.3482C46.7522 61.3477 46.7517 61.347 46.751 61.3465C46.7364 61.3343 46.7177 61.3222 46.7058 61.3076Z" fill="#FCD116"/>
<path d="M50.4364 61.0478C50.4228 61.1251 50.4005 61.1944 50.3776 61.2666C50.2498 61.2768 50.1193 61.3494 50.0976 61.4819C50.0933 61.5094 50.0947 61.5441 50.119 61.5631C50.2789 61.6885 50.4182 61.5915 50.4914 61.4481C50.4957 61.4513 50.5001 61.4544 50.5045 61.4583C50.5385 61.47 50.5711 61.4846 50.6022 61.5021C50.8222 61.6022 51.2118 61.671 51.3372 61.4087C51.3989 61.2797 51.4784 60.7073 51.2032 60.754C51.0343 60.7827 51.081 60.9615 51.2103 61.0026C51.2188 61.057 51.2319 61.1115 51.2302 61.1402C51.2203 61.3091 51.1418 61.3883 50.9872 61.4085C50.8234 61.4296 50.6933 61.3514 50.5497 61.295C50.592 61.1686 50.6289 61.0332 50.6326 60.9032C50.6382 60.7027 50.5687 60.5131 50.5854 60.3077C50.5942 60.2006 50.427 60.201 50.4182 60.3077C50.398 60.5561 50.4795 60.804 50.4364 61.0478Z" fill="#FCD116"/>
<path d="M51.8045 61.3695C51.8775 61.4349 51.9003 61.4522 51.8566 61.5659C51.8267 61.6435 51.7302 61.7939 51.6636 61.834C51.5717 61.8894 51.6556 62.034 51.7479 61.9784C51.8733 61.9025 52.0622 61.6597 52.0704 61.4709C52.0785 61.4621 52.085 61.451 52.0892 61.4369C52.1502 61.221 52.216 60.995 52.0318 60.8254C51.9275 60.7294 51.7358 60.6647 51.6133 60.7716C51.4988 60.8715 51.5085 61.0801 51.5919 61.1924C51.6505 61.2713 51.7338 61.3063 51.8045 61.3695ZM51.939 60.9661C52.0038 61.0468 51.989 61.1649 51.9625 61.2701C51.9013 61.2291 51.8281 61.1999 51.78 61.1474C51.6298 60.9833 51.7747 60.7614 51.939 60.9661Z" fill="#FCD116"/>
<path d="M53.9142 60.7564C53.9961 60.7817 54.052 60.8429 54.1023 60.9146C54.0403 60.9535 53.9523 60.9919 53.8597 61.0254C53.8692 61.068 53.8811 61.1336 53.9018 61.1613C53.9708 61.1329 54.052 61.1098 54.1271 61.0794C54.1502 61.0534 54.1704 61.0274 54.1844 61.0079C54.2187 60.9608 54.2489 60.918 54.2814 60.8815C54.1434 60.6701 54.0359 60.5653 53.7657 60.5811C53.7513 60.5819 53.7382 60.5838 53.7246 60.5855C53.7402 60.637 53.756 60.6883 53.772 60.7399C53.8143 60.7357 53.8614 60.7401 53.9142 60.7564Z" fill="#FCD116"/>
<path d="M52.7699 61.3476C52.7162 61.4806 52.6316 61.6048 52.5658 61.639C52.4702 61.6886 52.5548 61.833 52.6501 61.7834C52.7974 61.7068 52.9252 61.5333 52.9605 61.3697C52.9626 61.3595 52.9648 61.3486 52.967 61.3374C53.0052 61.3343 53.0409 61.3311 53.072 61.3289C53.2451 61.3177 53.4332 61.3214 53.6036 61.2898C53.6614 61.2791 53.71 61.2577 53.7581 61.2332C53.7484 61.2122 53.7394 61.1901 53.7309 61.1675C53.72 61.1381 53.7093 61.1085 53.6986 61.0788C53.6087 61.1053 53.5268 61.1245 53.4755 61.1316C53.4643 61.133 53.4526 61.134 53.4414 61.1354C53.4743 61.0168 53.526 60.8924 53.6101 60.8151C53.5914 60.7558 53.5734 60.6963 53.5559 60.6362C53.3824 60.7288 53.3158 60.9267 53.2645 61.1527C53.1734 61.1595 53.082 61.1639 52.9925 61.167C52.9916 61.167 52.9904 61.167 52.9891 61.1673C52.9962 61.047 52.9809 60.9208 52.9021 60.8521C52.7223 60.695 52.4007 60.8285 52.3813 61.0594C52.3611 61.3002 52.5624 61.3479 52.7699 61.3476ZM52.6793 60.9614C52.803 60.9602 52.835 61.0545 52.8188 61.1736C52.7869 61.1734 52.7558 61.1712 52.7279 61.1656C52.707 61.1615 52.6666 61.1772 52.6491 61.1666C52.5643 61.1143 52.5509 60.9629 52.6793 60.9614Z" fill="#FCD116"/>
<path d="M53.6993 61.0784C53.71 61.1081 53.7204 61.138 53.7316 61.1672C53.7401 61.1898 53.7489 61.2116 53.7588 61.2328C53.796 61.3123 53.848 61.3745 53.9533 61.3716C54.0422 61.3691 54.1197 61.3089 54.1854 61.2537C54.2726 61.1803 54.3635 60.9963 54.4731 60.9419C54.4612 60.9275 54.4576 60.9105 54.4593 60.893C54.4316 60.883 54.4112 60.8582 54.4158 60.8186C54.4172 60.8067 54.4182 60.7948 54.4194 60.7829C54.3628 60.8045 54.3203 60.8386 54.2816 60.8816C54.249 60.918 54.2187 60.9608 54.1846 61.008C54.1705 61.0274 54.1506 61.0532 54.1273 61.0794C54.0626 61.1523 53.9717 61.2272 53.9076 61.1689C53.9056 61.1669 53.9039 61.164 53.902 61.1616C53.8816 61.1339 53.8694 61.0682 53.8599 61.0257C53.8577 61.016 53.8556 61.0072 53.8536 61.0007C53.8266 60.9139 53.7992 60.8271 53.7719 60.7401C53.7559 60.6888 53.7401 60.6373 53.7246 60.5858C53.6665 60.3943 53.6118 60.2015 53.5678 60.0071C53.5442 59.9023 53.3831 59.9466 53.4066 60.0516C53.4502 60.2446 53.4997 60.4414 53.5561 60.6361C53.5734 60.6961 53.5916 60.7557 53.6103 60.815C53.6385 60.9039 53.6682 60.9919 53.6993 61.0784Z" fill="#FCD116"/>
<path d="M54.582 60.818C54.5832 60.8185 54.5842 60.8185 54.5854 60.8192C54.5903 60.8214 54.5956 60.8233 54.6007 60.8255C54.599 60.8104 54.5939 60.7966 54.5852 60.7852C54.5842 60.7961 54.5832 60.8073 54.582 60.818Z" fill="#FCD116"/>
<path d="M54.4588 60.8934C54.4569 60.9107 54.4608 60.928 54.4727 60.9423C54.4795 60.9506 54.489 60.9579 54.5016 60.9634C54.7184 61.0607 55.0251 61.0913 55.2266 60.935C55.2813 60.8925 55.3093 60.8334 55.3246 60.7695C55.2575 60.7945 55.17 60.7257 55.2203 60.6533C55.2504 60.6103 55.2874 60.5648 55.3299 60.5247C55.3131 60.4769 55.2798 60.4392 55.2244 60.3986C55.0703 60.2856 54.9109 60.3116 54.7398 60.3724C54.655 60.4025 54.5689 60.4426 54.5065 60.5094C54.4358 60.585 54.429 60.6852 54.4195 60.7833C54.4183 60.7953 54.417 60.8072 54.4158 60.8191C54.4107 60.8587 54.4311 60.8832 54.4588 60.8934ZM54.768 60.5393C54.8334 60.5136 54.9265 60.4793 54.9979 60.4827C55.1695 60.4907 55.2356 60.6691 55.1214 60.7889C54.9989 60.9173 54.7537 60.8888 54.6013 60.8256C54.5962 60.8234 54.5908 60.8215 54.586 60.8193C54.5847 60.8188 54.5838 60.8186 54.5826 60.8181C54.5838 60.8074 54.5847 60.7965 54.5857 60.7853C54.5906 60.7255 54.5945 60.6626 54.6346 60.6166C54.6664 60.5802 54.7242 60.5566 54.768 60.5393Z" fill="#FCD116"/>
<path d="M55.22 60.6533C55.1697 60.7255 55.2572 60.7945 55.3243 60.7695C55.3393 60.7639 55.3532 60.7537 55.3644 60.7377C55.3982 60.6893 55.447 60.6327 55.5002 60.6037C55.5831 60.5585 55.6305 60.5865 55.7165 60.6054C55.8072 60.6254 55.9013 60.6363 55.9939 60.6421C56.197 60.6548 56.2124 60.4893 56.2639 60.316C56.2945 60.2127 56.1334 60.1685 56.1027 60.2715C56.0916 60.3087 56.0763 60.4263 56.0427 60.4531C55.9992 60.4881 55.936 60.4698 55.8862 60.4642C55.8067 60.4555 55.7272 60.4212 55.6475 60.4079C55.6529 60.4917 55.5146 60.5209 55.4818 60.4285C55.4813 60.4271 55.4808 60.4254 55.4803 60.4239C55.4251 60.4458 55.3741 60.4822 55.3294 60.5245C55.2871 60.5649 55.2499 60.6103 55.22 60.6533Z" fill="#FCD116"/>
<path d="M55.6474 60.4077C55.6469 60.4002 55.6457 60.3924 55.6428 60.3839C55.5237 60.049 55.6034 59.6212 55.4182 59.3065C55.2666 59.0489 54.7391 59.0311 54.6235 59.3208C54.5836 59.4207 54.7452 59.464 54.7846 59.3653C54.8526 59.1947 55.2243 59.305 55.2828 59.4137C55.3319 59.5048 55.3506 59.6421 55.3684 59.743C55.4085 59.969 55.4034 60.2053 55.48 60.4238C55.4804 60.4252 55.4809 60.4269 55.4814 60.4284C55.5145 60.5207 55.6528 60.4916 55.6474 60.4077Z" fill="#FCD116"/>
<path d="M50.023 60.4902C50.1102 60.4902 50.1807 60.4133 50.1807 60.3183C50.1807 60.2233 50.11 60.1465 50.023 60.1465C49.9357 60.1465 49.8652 60.2233 49.8652 60.3183C49.8652 60.4133 49.9357 60.4902 50.023 60.4902Z" fill="#FCD116"/>
<path d="M50.0452 60.8613C50.1862 60.8613 50.3004 60.8115 50.3004 60.75C50.3004 60.6885 50.1862 60.6387 50.0452 60.6387C49.9043 60.6387 49.79 60.6885 49.79 60.75C49.79 60.8115 49.9043 60.8613 50.0452 60.8613Z" fill="#FCD116"/>
<path d="M50.4865 61.8081C50.4148 61.8081 50.3564 61.8912 50.3564 61.9938C50.3564 62.0964 50.4145 62.1795 50.4865 62.1795C50.5582 62.1795 50.6165 62.0964 50.6165 61.9938C50.6165 61.8912 50.5584 61.8081 50.4865 61.8081Z" fill="#FCD116"/>
<path d="M50.9395 61.7632C50.8245 61.7632 50.7314 61.8599 50.7314 61.9795C50.7314 62.0991 50.8245 62.1958 50.9395 62.1958C51.0545 62.1958 51.1475 62.0991 51.1475 61.9795C51.1475 61.8599 51.0545 61.7632 50.9395 61.7632Z" fill="#FCD116"/>
<path d="M55.8276 60.8569C55.7049 60.8569 55.6055 60.9075 55.6055 60.97C55.6055 61.0324 55.7049 61.083 55.8276 61.083C55.9504 61.083 56.0498 61.0324 56.0498 60.97C56.0498 60.9075 55.9504 60.8569 55.8276 60.8569Z" fill="#FCD116"/>
<path d="M56.2288 59.0537C56.2167 59.0383 56.1809 59.0133 56.135 58.9858C56.1712 59.0653 56.2191 59.2442 56.249 59.3942L56.2636 59.4668L56.3374 59.461C56.3396 59.461 56.5778 59.4459 56.7409 59.6044C56.9924 59.8491 57.1461 60.0718 57.158 60.1226C57.1772 60.2567 57.1201 60.6038 57.0134 60.7759C56.9784 60.8323 56.92 60.8772 56.858 60.9244C56.78 60.9842 56.5717 61.0867 56.5717 61.0867C56.5717 61.0867 56.5912 61.3784 56.5897 61.4817C56.5875 61.6207 56.5861 61.7213 56.4599 61.812C56.1877 62.0079 55.6785 62.1124 55.0892 62.2334C52.7785 62.7076 48.8157 62.7229 48.7758 62.7231V62.7236L48.1383 62.7268C48.0985 62.7268 44.1356 62.7115 41.825 62.2371C41.2354 62.116 40.7262 62.0115 40.4542 61.8156C40.3281 61.7247 40.3266 61.6243 40.3244 61.4853C40.323 61.382 40.3424 61.0904 40.3424 61.0904C40.3424 61.0904 40.1341 60.9878 40.0561 60.928C39.9941 60.8806 39.9358 60.8359 39.9008 60.7795C39.7941 60.6074 39.7372 60.2604 39.7562 60.1262C39.7678 60.0754 39.9214 59.8528 40.1732 59.608C40.3363 59.4496 40.5745 59.4646 40.5767 59.4646L40.6506 59.4705L40.6652 59.3978C40.6938 59.2547 40.7388 59.0852 40.7743 59.0009C40.7271 59.0296 40.6902 59.0556 40.678 59.0714C40.6336 59.1292 40.5709 59.3431 40.5709 59.3431L40.5347 59.2155C40.5274 59.2454 40.521 59.2736 40.5155 59.2984C40.4097 59.3045 40.2121 59.3375 40.0568 59.4885C39.8988 59.6421 39.6174 59.9682 39.6174 59.9682L39.3936 59.9714L39.4047 60.1824L39.5822 60.1855C39.5822 60.1855 39.6456 60.685 39.7589 60.8675C39.8099 60.9499 39.8835 61.0063 39.9545 61.0607C40.0201 61.111 40.1448 61.1866 40.1448 61.1866C40.1448 61.1866 40.156 61.3939 40.1574 61.488C40.1599 61.6397 40.1623 61.8115 40.3567 61.9515C40.6579 62.1683 41.1833 62.2762 41.7934 62.4014C44.1186 62.8787 48.0982 62.894 48.1383 62.894L48.7766 62.8889V62.8901C48.8164 62.8901 52.7963 62.8746 55.1215 62.3975C55.7315 62.2723 56.257 62.1644 56.5581 61.9476C56.7526 61.8078 56.755 61.6358 56.7574 61.4841C56.7589 61.39 56.7701 61.1827 56.7701 61.1827C56.7701 61.1827 56.8947 61.1071 56.9604 61.0568C57.0316 61.0024 57.105 60.946 57.156 60.8636C57.2693 60.6808 57.3327 60.1816 57.3327 60.1816L57.5101 60.1785L57.5213 59.9675L57.2975 59.9643C57.2975 59.9643 57.0158 59.6379 56.858 59.4846C56.7027 59.3336 56.5054 59.3006 56.3994 59.2945C56.3929 59.2644 56.3846 59.2289 56.3751 59.1912L56.3384 59.3246C56.3379 59.3246 56.2738 59.1113 56.2288 59.0537Z" fill="#FCD116"/>
<path d="M40.669 58.8497C40.6527 58.8694 40.6369 58.8985 40.6221 58.9331C40.6228 58.9408 40.6235 58.9489 40.6245 58.9569C40.6678 58.8961 40.722 58.8341 40.7866 58.7889C40.8549 58.7408 40.9431 58.7148 41.0282 58.6895C41.167 58.6485 41.2025 58.6178 41.2243 58.5435C41.0576 58.6066 40.7684 58.7294 40.669 58.8497Z" fill="#FCD116"/>
<path d="M55.6094 58.5098C55.6101 58.5122 55.6101 58.5146 55.6108 58.5171C55.6332 58.5987 55.7302 58.6323 55.8753 58.6741C55.9608 58.6986 56.049 58.7241 56.1176 58.7715C56.1825 58.8165 56.2372 58.878 56.2809 58.9383C56.2819 58.9293 56.2824 58.9193 56.2831 58.9098C56.2707 58.8836 56.2578 58.8614 56.2447 58.8454C56.1263 58.7023 55.7382 58.5557 55.6094 58.5098Z" fill="#FCD116"/>
<path d="M44.6571 58.2363L44.6714 58.214C44.5844 58.2025 44.4962 58.1909 44.4082 58.1792L44.4114 58.1872L44.6571 58.2363Z" fill="#FCD116"/>
<path d="M40.4988 58.7435H40.4482C40.4482 58.9615 40.5003 59.0964 40.5034 59.1078L40.534 59.2162L40.5703 59.3438C40.5703 59.3438 40.633 59.1299 40.6774 59.0721C40.6896 59.0563 40.7265 59.0303 40.7737 59.0016C40.875 58.9398 41.0238 58.865 41.0755 58.8497C41.1871 58.8166 41.3191 58.7775 41.3971 58.6824C41.6462 58.761 42.3112 58.969 42.5683 59.0405C42.8435 59.1168 43.5957 59.2159 43.8579 59.2614C43.865 59.2777 43.9163 59.3348 43.9245 59.3506C43.9717 59.4757 44.0613 59.5948 44.1617 59.6447L44.1746 59.8104V59.8442H44.3012L44.3306 59.852L44.3328 59.8442H44.4072V59.6772C44.5304 59.6522 44.6437 59.5526 44.7241 59.4233C44.9825 59.4463 45.7986 59.5173 46.0866 59.5146C46.3535 59.5122 47.0496 59.4826 47.3106 59.4711C47.3617 59.5829 47.4791 59.6551 47.5782 59.7156C47.6455 59.7567 47.8813 59.975 47.9056 60.0333C47.9338 60.1006 47.9391 60.3235 47.9391 60.3235L48.0645 60.1128C48.0738 60.0972 48.2614 59.8427 48.2614 59.3878C48.2614 59.3681 48.2604 59.3494 48.2595 59.3304H48.1518V59.1374H48.2335C48.1917 58.959 48.1059 58.8263 48.0021 58.7403H47.6752V58.5473H47.6764L47.4995 58.3626C47.4995 58.3626 47.0051 58.3526 46.5353 58.3456L46.5042 58.4674L46.3423 58.426L46.3635 58.3432C46.1158 58.3398 45.8944 58.3376 45.7824 58.3385C45.7573 58.3388 45.7031 58.3349 45.6266 58.3276L45.6528 58.3947L45.4973 58.4559L45.4392 58.3084C45.2778 58.2907 45.0744 58.2661 44.8554 58.2384L44.737 58.4221C45.1128 58.4737 45.5806 58.532 45.7702 58.532C46.0149 58.532 46.4228 58.5587 46.8765 58.541C47.0321 58.5349 47.2678 58.5104 47.357 58.5736C47.4278 58.6236 47.4788 58.8171 47.5002 58.9119C47.4883 58.9316 47.4688 58.9551 47.4479 58.9802C47.3942 59.0443 47.3257 59.1277 47.2977 59.2449C47.0306 59.2619 46.3411 59.3044 46.0706 59.3044C45.8057 59.3044 45.1337 59.2385 44.8461 59.2091C44.8546 59.188 44.8622 59.1666 44.8678 59.1452C44.9448 58.857 44.773 58.5403 44.5197 58.4727C44.4675 58.4586 44.4133 58.4564 44.3596 58.4635C44.3557 58.4635 44.3518 58.4627 44.3479 58.4627C44.0859 58.4627 43.8382 58.7243 43.8382 59.0227C43.8382 59.0366 43.8387 59.0504 43.8399 59.0645C43.5512 59.0181 42.8923 58.9095 42.6383 58.8414C42.3768 58.7714 41.7218 58.5527 41.4681 58.4671C41.4715 58.3468 41.4027 57.8505 41.584 57.8031C41.6897 57.7754 41.908 57.8495 42.0565 57.8955C42.4903 58.0299 42.8911 58.1091 43.1276 58.1723C43.3188 58.2233 44.2016 58.3449 44.2016 58.3449C44.2016 58.3449 44.4279 58.3791 44.7127 58.4185L44.2908 58.3342L44.2179 58.1538C43.8543 58.1035 43.5157 58.0525 43.3145 58.0148L43.2355 58.113L43.1052 58.0082L43.1329 57.9737C43.0158 57.9421 42.8148 57.8906 42.5929 57.8347L42.5921 57.8369L42.5234 57.8172C42.0438 57.6967 41.5001 57.563 41.5001 57.563L41.1883 57.7526C40.9365 57.7202 40.6208 57.904 40.4998 58.357C40.4789 58.4353 40.4657 58.5084 40.4575 58.5767H40.4981V58.7435H40.4988ZM47.576 59.0871C47.6084 59.0482 47.639 59.0118 47.6584 58.9705C47.6781 58.9279 47.6871 58.8864 47.6946 58.8497C47.6993 58.8278 47.7063 58.7945 47.7102 58.7887C47.7102 58.7887 47.7136 58.7874 47.7223 58.7874C47.9071 58.7874 48.094 58.9935 48.094 59.388C48.094 59.6014 48.039 59.7973 47.9863 59.9358C47.9603 59.8658 47.9236 59.7922 47.873 59.7317C47.8196 59.6678 47.7411 59.6196 47.6652 59.5732C47.5364 59.4945 47.4518 59.4364 47.4518 59.3518C47.4518 59.2356 47.515 59.16 47.576 59.0871ZM44.0604 58.9328C44.0976 58.793 44.1673 58.6965 44.2597 58.654C44.291 58.6455 44.3243 58.6406 44.3591 58.6406C44.5598 58.6406 44.6729 58.7889 44.6729 59.0259C44.6729 59.1374 44.6449 59.239 44.5948 59.3156C44.5078 59.4155 44.3873 59.4651 44.2633 59.432C44.0694 59.38 43.9991 59.1617 44.0604 58.9328ZM40.6485 58.4564C40.7503 58.0756 41.0189 57.8904 41.1973 57.938C41.2058 57.9402 41.2087 57.9424 41.2087 57.9424C41.2109 57.9489 41.2274 57.9633 41.2265 57.9856C41.2245 58.0231 41.2223 58.0656 41.2304 58.1118C41.2384 58.1567 41.2573 58.4214 41.2272 58.5335C41.2262 58.5369 41.2253 58.5403 41.2243 58.5434C41.2024 58.6178 41.1667 58.6484 41.0281 58.6895C40.9428 58.7148 40.8546 58.7408 40.7866 58.7889C40.7222 58.8344 40.6677 58.8961 40.6244 58.9568C40.6237 58.9491 40.623 58.9411 40.622 58.933C40.6079 58.7933 40.5965 58.6513 40.6485 58.4564Z" fill="#FCD116"/>
<path d="M54.3326 57.8638L54.3216 57.8254C54.106 57.8813 53.9089 57.9333 53.7864 57.9671L53.6698 58.0609L53.6248 58.0048C53.4403 58.0386 53.0668 58.0957 52.6611 58.1526L52.6001 58.3045L52.1957 58.3638L52.1021 58.2281C51.8666 58.2588 51.6445 58.2857 51.467 58.3047L51.4359 58.3954L51.2777 58.3414L51.2843 58.3224C51.2097 58.329 51.1513 58.3324 51.1146 58.3324C51.0099 58.3322 50.8099 58.3356 50.5821 58.3402L50.5897 58.3694L50.4278 58.4107L50.4108 58.3438C49.9271 58.3545 49.3978 58.3691 49.3978 58.3691L49.2305 58.5463H49.2604V58.7393H48.9114C48.805 58.8236 48.7165 58.9568 48.673 59.1364H48.7661V59.3294H48.6455C48.6443 59.3525 48.6433 59.3758 48.6436 59.3999C48.647 59.8546 48.8363 60.1079 48.8456 60.1234L48.9724 60.3332C48.9724 60.3332 48.9761 60.1103 49.0038 60.0427C49.0276 59.9844 49.2617 59.7644 49.3287 59.7229C49.4274 59.6616 49.5443 59.5887 49.5944 59.4764C49.8554 59.4859 50.5517 59.5104 50.8186 59.5109C51.1042 59.5114 51.8557 59.4079 52.1206 59.3821C52.1318 59.396 52.1964 59.4373 52.2083 59.4504C52.2871 59.5588 52.4052 59.6497 52.5148 59.6711L52.5712 59.8276L52.5802 59.8602L52.7022 59.8266L52.7326 59.8264V59.8184L52.8043 59.7987L52.7601 59.6378C52.8721 59.5812 52.955 59.4548 52.9982 59.309C53.2534 59.2628 54.0594 59.1148 54.3362 59.0358C54.5929 58.9626 55.2564 58.7495 55.5048 58.6693C55.5835 58.7636 55.7157 58.802 55.8275 58.8341C55.8798 58.8491 56.0317 58.9242 56.1335 58.9855C56.1794 59.0132 56.2152 59.038 56.2273 59.0533C56.2723 59.1109 56.3367 59.3243 56.3367 59.3243L56.3734 59.1908L56.4018 59.0878C56.4067 59.0703 56.52 58.7752 56.3994 58.3365C56.275 57.8842 55.9578 57.7029 55.7062 57.7369L55.3932 57.5498C55.3932 57.5498 54.9307 57.6672 54.483 57.7829L54.4927 57.8176L54.3326 57.8638ZM49.2408 59.5817C49.1652 59.6286 49.0872 59.6772 49.0339 59.7416C48.9839 59.8023 48.9476 59.8765 48.9221 59.9465C48.8684 59.8082 48.8142 59.6709 48.8128 59.4575C48.8098 59.0632 49.0198 58.8134 49.2045 58.8122C49.2133 58.8122 49.2167 58.8134 49.2167 58.8134C49.2206 58.8192 49.2403 58.8285 49.2451 58.8503C49.2531 58.887 49.2624 58.9286 49.2823 58.9709C49.302 59.012 49.3902 59.2623 49.3912 59.3782C49.3919 59.4628 49.3691 59.5017 49.2408 59.5817ZM52.8458 59.2395C52.7885 59.3588 52.6854 59.4388 52.5571 59.4397C52.3564 59.4412 52.2307 59.2494 52.229 59.0122C52.228 58.8676 52.2693 58.756 52.3474 58.6904C52.3753 58.6739 52.4062 58.6603 52.4397 58.651C52.6332 58.5978 52.7814 58.7108 52.8444 58.9393C52.874 59.0472 52.874 59.1524 52.8458 59.2395ZM55.6598 58.2286C55.6807 58.1827 55.7006 58.1392 55.7082 58.0942C55.716 58.048 55.7135 58.0055 55.7111 57.9681C55.7099 57.9457 55.7077 57.9119 55.7099 57.9051C55.7099 57.9051 55.7128 57.9029 55.7213 57.9008C55.8995 57.8519 56.1342 58.0011 56.2388 58.3813C56.292 58.5745 56.2939 58.765 56.2825 58.9099C56.2818 58.9194 56.281 58.9291 56.2803 58.9383C56.2366 58.8778 56.1819 58.8163 56.117 58.7716C56.0484 58.724 55.96 58.6987 55.8747 58.6741C55.7296 58.6323 55.6326 58.5988 55.6102 58.5171C55.6095 58.5147 55.6093 58.5123 55.6088 58.5098C55.5818 58.4012 55.6212 58.3135 55.6598 58.2286ZM55.3125 57.7911C55.3939 57.8208 55.4945 57.9938 55.5402 58.0794C55.5339 58.1015 55.5215 58.1295 55.5079 58.1591C55.4732 58.2354 55.4292 58.3339 55.4333 58.4542C55.1803 58.5414 54.5267 58.7653 54.2657 58.837C54.0103 58.9072 53.3448 59.0219 53.0597 59.0698C53.0622 59.0472 53.0639 59.0246 53.0636 59.0022C53.0614 58.7038 52.8118 58.444 52.5498 58.4459C52.4956 58.4464 52.4429 58.4586 52.393 58.4795C52.3892 58.4804 52.3855 58.4809 52.3816 58.4819C52.1289 58.5514 51.9595 58.8693 52.0387 59.1571C52.0423 59.1704 52.0467 59.1836 52.0513 59.1969C51.7606 59.2288 51.0966 59.2985 50.8337 59.3005C50.5629 59.3024 49.8734 59.265 49.6061 59.2499C49.5774 59.133 49.3795 58.6727 49.5419 58.5789C49.6364 58.5242 49.8666 58.5378 50.0221 58.5426C50.4759 58.557 50.8835 58.5273 51.1282 58.5256C51.3261 58.5242 52.2095 58.4073 52.2095 58.4073C52.2095 58.4073 53.4449 58.2614 53.7718 58.1715C54.0078 58.1066 54.4081 58.0242 54.8408 57.8867C54.9888 57.84 55.2097 57.754 55.3125 57.7911Z" fill="#FCD116"/>
<path d="M41.7385 57.9724L41.6836 58.1528L42.4067 58.3729L42.4617 58.1925L41.7385 57.9724Z" fill="#FCD116"/>
<path d="M42.9641 58.3249L42.9092 58.5054L43.6323 58.7255L43.6872 58.545L42.9641 58.3249Z" fill="#FCD116"/>
<path d="M45.921 58.7866H45.0254V58.9752H45.921V58.7866Z" fill="#FCD116"/>
<path d="M47.1594 58.7946L46.2656 58.8521L46.2777 59.0403L47.1715 58.9828L47.1594 58.7946Z" fill="#FCD116"/>
<path d="M55.2162 57.9661L54.4961 58.1958L54.5534 58.3755L55.2735 58.1458L55.2162 57.9661Z" fill="#FCD116"/>
<path d="M54.0207 58.374L53.2773 58.5112L53.3116 58.6967L54.0549 58.5594L54.0207 58.374Z" fill="#FCD116"/>
<path d="M51.923 58.7671H51.0273V58.9557H51.923V58.7671Z" fill="#FCD116"/>
<path d="M49.7432 58.8091L49.7363 58.9976L50.6313 59.0303L50.6382 58.8419L49.7432 58.8091Z" fill="#FCD116"/>
<path d="M49.2604 58.7401V58.5474H49.2308H47.676H47.6748V58.7401H48.0015H48.9114H49.2604Z" fill="#FCD116"/>
<path d="M48.7665 59.3302V59.1372H48.6734H48.233H48.1514V59.3302H48.2588H48.646H48.7665Z" fill="#FCD116"/>
<path d="M44.6719 58.2142L44.6573 58.2366L44.4118 58.1875L44.4087 58.1794L43.926 56.9863L43.1332 57.9731L43.1055 58.0076L43.2357 58.1124L43.3145 58.0142L43.8779 57.313L44.2179 58.1532L44.2908 58.3338L44.7127 58.4181L44.7363 58.4227L44.7373 58.4215L44.8554 58.2378L45.201 57.7009L45.4392 58.3078L45.4973 58.4553L45.6528 58.394L45.6266 58.3272L45.2372 57.3361L44.6719 58.2142Z" fill="#FCD116"/>
<path d="M45.1171 54.7784L45.69 53.7453L46.2689 55.614L47.1733 54.7097L47.2268 54.4525L47.2105 54.4362L46.3465 55.3L45.7338 53.3219L45.1359 54.4003L44.6554 53.2891L43.6236 54.2207L43.5371 54.5237L44.5944 53.5691L45.1171 54.7784Z" fill="#FCD116"/>
<path d="M46.5654 57.6342L46.6862 57.0529L46.3619 55.6259L45.4065 56.8045L44.9037 55.4011L44.0919 56.4345L43.4264 54.9131L43.3545 55.1654L44.0506 56.7576L44.8485 55.7421L45.3492 57.1403L46.2752 55.9983L46.5984 57.4208L46.3634 58.3427L46.3422 58.4256L46.5041 58.4669L46.5352 58.3451L46.6806 57.7749L46.5654 57.6342Z" fill="#FCD116"/>
<path d="M45.6992 51.436L45.6776 51.2168L44.6731 52.2692L44.3535 51.6645L44.2871 51.8966L44.6339 52.5526L45.6992 51.436Z" fill="#FCD116"/>
<path d="M44.1384 51.6156L44.1391 51.5947L44.1299 51.5996L44.1384 51.6156Z" fill="#FCD116"/>
<path d="M46.7671 52.2495L46.7814 52.2844L47.1 51.8766C47.0592 51.8399 47.0181 51.802 46.9766 51.7634L46.0212 52.9864L45.764 50.4013C45.6979 50.3112 45.6328 50.2186 45.5684 50.1235L45.6772 51.2175L45.6991 51.4367L45.8962 53.418L46.663 52.4364L46.6125 52.3131L46.7671 52.2495Z" fill="#FCD116"/>
<path d="M46.7812 52.2845L46.7669 52.2495L46.6123 52.3127L46.6629 52.4359L47.3111 54.0189L47.3176 54.0162L47.3757 53.7362L46.7812 52.2845Z" fill="#FCD116"/>
<path d="M52.9731 56.9272L52.4816 58.1534L52.2748 58.1838L51.6441 57.2712L51.2849 58.3231L51.2783 58.342L51.4365 58.396L51.4677 58.3053L51.6951 57.6389L52.1027 58.2285L52.1963 58.3641L52.601 58.3048L52.6617 58.1529L53.0219 57.2546L53.6254 58.0049L53.6706 58.0611L53.787 57.9672L53.8009 57.9563L52.9731 56.9272Z" fill="#FCD116"/>
<path d="M51.7809 54.4374L51.0549 53.298L51.0479 53.3685L51.018 53.3313L50.5769 55.2356L49.7216 54.3806L49.7012 54.401L49.7549 54.6499L50.6716 55.5669L51.1065 53.6898L51.8132 54.7991L52.3392 53.5158L53.3422 54.4316L53.3556 54.417L53.2793 54.1475L52.2753 53.231L51.7809 54.4374Z" fill="#FCD116"/>
<path d="M50.4118 57.7044L50.2783 57.8239L50.4113 58.3443L50.4283 58.4111L50.5901 58.3698L50.5826 58.3407L50.3658 57.4902L50.4118 57.7044Z" fill="#FCD116"/>
<path d="M52.0311 55.3377L51.5258 56.7486L50.5703 55.5701L50.2529 56.9661L50.3363 57.3535L50.6569 55.9424L51.5829 57.0845L52.0811 55.6938L52.8795 56.8067L53.5566 55.1258L53.482 54.8633L52.8382 56.4623L52.0311 55.3377Z" fill="#FCD116"/>
<path d="M53.6795 54.8202L53.6387 54.8037L53.6584 54.873L53.6795 54.8202Z" fill="#FCD116"/>
<path d="M51.0918 51.2324L51.0932 51.2192L51.0859 51.226L51.0918 51.2324Z" fill="#FCD116"/>
<path d="M51.265 51.1738L51.2432 51.3962L52.3206 52.5611L52.6239 51.8386L52.551 51.5809L52.2671 52.2571L51.265 51.1738Z" fill="#FCD116"/>
<path d="M50.1648 52.1933L50.3194 52.257L50.2623 52.3955L51.0177 53.331L51.0476 53.3682L51.0546 53.2977L51.243 51.3961L51.2651 51.1737L51.3589 50.2278L51.3407 50.2261C51.2836 50.3063 51.226 50.385 51.1676 50.4616L51.0925 51.2192L51.0913 51.2323L50.9214 52.9462L49.9718 51.7701C49.93 51.8085 49.8885 51.846 49.8477 51.8824L50.1425 52.2477L50.1648 52.1933Z" fill="#FCD116"/>
<path d="M50.3195 52.257L50.1652 52.1934L50.1428 52.2473L49.5479 53.6888L49.6098 53.9766L50.2624 52.3956L50.3195 52.257Z" fill="#FCD116"/>
<path d="M47.6647 52.3496L47.3762 53.7362L47.3179 54.0162L47.2272 54.4524L47.1738 54.7096L46.6865 57.053L46.5654 57.6344L46.6809 57.7751L46.9849 58.146L47.6081 57.7435L48.0699 54.4434L48.1501 52.7003C48.0264 52.6179 47.8599 52.5008 47.6647 52.3496Z" fill="#FCD116"/>
<path d="M49.2821 57.7565L49.9053 58.1589L50.2781 57.8243L50.4115 57.7047L50.3656 57.4906L50.3362 57.354L50.2528 56.9666L49.7546 54.6499L49.7011 54.4007L49.61 53.9769L49.548 53.6889L49.2629 52.3638C49.0493 52.5261 48.8772 52.6428 48.7686 52.7128L48.8745 54.809L49.2821 57.7565Z" fill="#FCD116"/>
<path d="M48.4111 52.6701C48.4459 52.6915 48.4656 52.7029 48.4673 52.7039L48.3849 52.8493C48.3807 52.8471 48.2944 52.7973 48.1494 52.7003L48.0691 54.4434L47.9189 57.7043L48.4512 58.3924L49.0224 57.7432L48.8741 54.8089L48.7681 52.7127C48.6887 52.764 48.643 52.7907 48.6401 52.7924L48.5567 52.6475C48.5586 52.6463 48.5803 52.6337 48.6184 52.6099L48.4675 52.6789L48.4111 52.6701Z" fill="#FCD116"/>
<path d="M38.083 58.8006L38.1428 58.7434H38.1309V58.5762H38.3173L39.392 57.5472L40.1047 40.6602C40.1047 40.6602 39.7549 40.6815 39.4815 40.8327C39.359 40.9005 39.0885 41.069 38.9091 41.182C38.9176 41.4185 38.9628 41.5849 38.9638 41.5883L38.8029 41.6338C38.7993 41.6209 38.7621 41.4851 38.7463 41.2848C38.7392 41.2892 38.7353 41.2918 38.7353 41.2918L38.083 58.8006Z" fill="#FCD116"/>
<path d="M39.6211 57.2138L40.9301 55.9604L41.5219 41.9165L40.2904 40.8433L39.6211 57.2138Z" fill="#FCD116"/>
<path d="M42.8576 42.999L41.8181 42.1841L41.1582 55.7501L42.4672 54.4967L42.8576 42.999Z" fill="#FCD116"/>
<path d="M44.0666 45.9901C43.8992 45.183 43.8075 44.569 43.799 44.5107L43.9643 44.4864C43.9658 44.4964 44.0112 44.8002 44.0963 45.2622L44.1604 43.6929C44.0776 43.6895 44.0299 43.6861 44.0277 43.6858L44.0399 43.5191C44.0421 43.5193 44.0878 43.5225 44.1672 43.5257L44.1675 43.5223L43.1277 43.1509L42.5977 54.4561L43.7057 53.323L43.7769 53.0739L44.0666 45.9901Z" fill="#FCD116"/>
<path d="M45.0534 48.8402L44.9355 48.5381C44.9737 48.6416 45.0131 48.7427 45.0534 48.8402Z" fill="#FCD116"/>
<path d="M44.2947 46.9912L44.1389 51.5945L44.1381 51.6154L44.1309 51.8341L44.4179 50.8277L44.572 50.8717L45.0486 49.2401C44.7443 48.6118 44.4915 47.7814 44.2947 46.9912Z" fill="#FCD116"/>
<path d="M38.1309 58.7434H38.1428H40.4478H40.4984V58.5762H40.4578H38.3173H38.1309V58.7434Z" fill="#FCD116"/>
<path d="M56.458 58.604V58.771H58.8255V58.7124L58.7123 58.604H56.458Z" fill="#FCD116"/>
<path d="M42.593 57.8341L43.3542 55.1655L43.4262 54.9132L43.5373 54.5236L43.6238 54.2206L44.2866 51.8968L44.3529 51.6647L44.5785 50.8738L44.5719 50.8719L44.4178 50.8281L44.1305 51.8346L43.7769 53.0743L43.7059 53.3237L42.4316 57.7904L42.5235 57.8166L42.5923 57.8363L42.593 57.8341Z" fill="#FCD116"/>
<path d="M52.6716 51.7057L51.9498 49.2344C51.9362 49.2616 51.9223 49.2886 51.9082 49.3151L52.5508 51.5807L52.624 51.8384L53.2787 54.147L53.3551 54.4163L53.4817 54.8631L53.5561 55.1255L54.3216 57.825L54.3326 57.8635L54.4935 57.8178L54.4838 57.783L53.6584 54.8723L53.6387 54.8033L52.8677 52.0853L52.8765 52.3597L52.6716 51.7057Z" fill="#FCD116"/>
<path d="M45.0488 49.2405C45.0882 49.322 45.1285 49.4002 45.1696 49.4743C45.296 49.7023 45.4299 49.9184 45.5684 50.1233C45.6328 50.2183 45.698 50.3109 45.7641 50.4011C46.1629 50.946 46.5878 51.4 46.9766 51.7631C47.0182 51.802 47.0595 51.8397 47.1001 51.8764C47.3035 52.0601 47.4948 52.2176 47.6645 52.3493C47.8596 52.5007 48.0261 52.6176 48.1498 52.7003C48.2949 52.7973 48.3812 52.8468 48.3853 52.8493L48.4677 52.7039C48.4658 52.703 48.4463 52.6915 48.4116 52.6701C48.0859 52.4699 46.4162 51.3767 45.3157 49.3929C45.224 49.2279 45.1366 49.0415 45.0534 48.8402C45.0131 48.7428 44.9737 48.6417 44.9356 48.5381C44.5396 47.4665 44.2524 46.1026 44.097 45.2621C44.0117 44.8001 43.9665 44.4965 43.9651 44.4863L43.7998 44.5106C43.8083 44.569 43.8999 45.1829 44.0674 45.99C44.132 46.3019 44.2081 46.6426 44.2951 46.9912C44.4918 47.7815 44.7445 48.612 45.0488 49.2405Z" fill="#FCD116"/>
<path d="M57.9902 41.5973C57.9912 41.5939 58.039 41.4177 58.0454 41.1701C57.8354 41.0546 57.5306 40.8889 57.3913 40.822C57.156 40.7088 56.8955 40.6597 56.8955 40.6597L57.6081 57.5467L58.712 58.6037L58.8253 58.7121L58.9172 58.8001L58.2646 41.2913C58.2646 41.2913 58.2442 41.2799 58.2097 41.261C58.1956 41.479 58.1545 41.6289 58.1508 41.6425L57.9902 41.5973Z" fill="#FCD116"/>
<path d="M57.3794 57.2138L56.7103 40.8433L55.4785 41.9165L56.0703 55.9604L57.3794 57.2138Z" fill="#FCD116"/>
<path d="M54.1426 42.999L54.5329 54.4967L55.8419 55.7501L55.1821 42.1841L54.1426 42.999Z" fill="#FCD116"/>
<path d="M52.9694 43.6766C52.9597 43.6773 52.9135 43.6807 52.8389 43.6844L52.9069 45.3468C53.0117 44.7951 53.0676 44.4201 53.0693 44.4089L53.2345 44.4332C53.2255 44.4949 53.123 45.1813 52.9358 46.0599L53.2304 53.2586L54.4019 54.4566L53.8718 43.1514L52.8503 43.5162C52.9164 43.513 52.9541 43.5103 52.9565 43.5101L52.9694 43.6766Z" fill="#FCD116"/>
<path d="M52.1438 48.3359L51.9365 48.867C52.009 48.7003 52.078 48.5219 52.1438 48.3359Z" fill="#FCD116"/>
<path d="M51.9502 49.2345L52.672 51.7058L52.8769 52.3603L52.8682 52.0859L52.7073 47.042C52.5073 47.8234 52.2535 48.6315 51.9502 49.2345Z" fill="#FCD116"/>
<path d="M53.0698 44.4087C53.068 44.4199 53.0121 44.7949 52.9074 45.3466C52.7533 46.1584 52.4932 47.3527 52.1445 48.3361C52.0786 48.522 52.0093 48.7004 51.9372 48.8671C51.8672 49.0285 51.7945 49.1794 51.7191 49.3155C50.624 51.2893 48.9586 52.3983 48.6193 52.6103C48.5812 52.6341 48.5596 52.6467 48.5576 52.6479L48.641 52.7928C48.6439 52.7911 48.6896 52.7643 48.7691 52.7131C48.8777 52.6428 49.0498 52.5264 49.2634 52.364C49.4355 52.2333 49.6343 52.0726 49.8484 51.8823C49.8893 51.8461 49.9308 51.8087 49.9726 51.77C50.352 51.4218 50.7705 50.9852 51.1684 50.4615C51.2265 50.3849 51.2843 50.3064 51.3415 50.226C51.5245 49.9686 51.7012 49.692 51.8652 49.3965C51.88 49.37 51.8946 49.3428 51.909 49.3153C51.9228 49.2888 51.9367 49.2618 51.9505 49.2346C52.2538 48.6316 52.5078 47.8235 52.7076 47.0418C52.7941 46.703 52.8707 46.3696 52.9366 46.0597C53.1237 45.1811 53.226 44.4947 53.2353 44.433L53.0698 44.4087Z" fill="#FCD116"/>
<path d="M45.3827 48.96C45.8423 49.9117 46.48 50.6715 46.8232 51.0436L46.9491 50.9349C46.9498 50.9359 46.9955 50.9887 47.065 51.0635L47.0753 43.6312C46.9032 43.6963 46.77 43.744 46.7569 43.7486L46.7007 43.5911C46.7027 43.5904 46.753 43.5724 46.8315 43.5435C46.4538 43.6608 45.721 43.8699 45.2422 43.8852C44.9863 43.8934 44.2178 43.8852 44.2178 43.8852C44.2178 43.8852 44.2362 44.8109 44.4227 45.7505C44.6672 46.9804 45.0966 48.3672 45.3827 48.96Z" fill="#FCD116"/>
<path d="M49.8145 51.3359C49.8145 51.3359 49.8373 51.314 49.8779 51.2734C49.8594 51.2907 49.8383 51.3106 49.8145 51.3327V51.3359Z" fill="#FCD116"/>
<path d="M49.985 43.7598C49.9763 43.7557 49.9041 43.7224 49.8037 43.6752L49.8139 51.1041C49.8273 51.0917 49.8351 51.0842 49.8358 51.0837L49.9474 51.2023C50.2458 50.8919 50.983 50.0671 51.4965 49.0032C51.7828 48.4105 52.2123 47.0236 52.4561 45.7941C52.6422 44.8545 52.661 43.9287 52.661 43.9287C52.661 43.9287 51.8927 43.937 51.6365 43.9287C51.1006 43.9115 50.2465 43.6519 49.9286 43.5493C50.0037 43.5846 50.0533 43.6074 50.0553 43.6084L49.985 43.7598Z" fill="#FCD116"/>
<path d="M49.8134 51.1045C49.7004 51.2104 49.1752 51.7016 48.9842 51.8623C48.8809 51.9493 48.5848 52.1617 48.4672 52.2458C48.3165 52.1347 47.8589 51.7957 47.6989 51.6615C47.5791 51.5607 47.3803 51.3832 47.2272 51.2318C47.1664 51.1715 47.1103 51.113 47.0646 51.0636C46.9951 50.9888 46.9494 50.936 46.9486 50.9351L46.8227 51.0437L46.8223 51.0442C46.8274 51.0503 46.9518 51.1939 47.11 51.3504C47.2899 51.5283 47.4974 51.7101 47.5917 51.7894C47.7874 51.9537 48.3916 52.3972 48.4171 52.4162L48.4657 52.4519L48.5148 52.4171C48.5328 52.4045 48.9572 52.1036 49.0918 51.9901C49.2488 51.8581 49.6139 51.5193 49.8139 51.3329C49.8375 51.3108 49.8589 51.2909 49.8773 51.2736C49.9184 51.2352 49.9452 51.2102 49.95 51.2056L49.9471 51.2024L49.8355 51.0838C49.8348 51.0845 49.8268 51.0918 49.8134 51.1045Z" fill="#FCD116"/>
<path d="M46.7571 43.7487C46.7702 43.7441 46.9034 43.6965 47.0755 43.6313C47.3311 43.5343 47.6726 43.3985 47.8355 43.3054C47.9665 43.2303 48.3281 42.9924 48.4589 42.9058C48.5916 42.9975 48.9666 43.2551 49.1214 43.3411C49.2587 43.4174 49.5934 43.5766 49.8039 43.6756C49.9043 43.7227 49.9764 43.7562 49.9852 43.7601L50.0554 43.6085C50.0537 43.6077 50.0039 43.5847 49.9288 43.5494C49.7285 43.4556 49.3465 43.275 49.2028 43.195C49.0247 43.0959 48.5131 42.7398 48.508 42.7362L48.4613 42.7036L48.4139 42.735C48.4088 42.7384 47.9057 43.0726 47.7526 43.1601C47.5577 43.2714 47.0677 43.4568 46.8319 43.5436C46.7534 43.5725 46.7031 43.5905 46.7012 43.5912L46.7571 43.7487Z" fill="#FCD116"/>
<path d="M44.0283 43.6859C44.0305 43.6861 44.0781 43.6893 44.161 43.6929C44.2522 43.6968 44.3856 43.7007 44.5497 43.7007C44.9485 43.7007 45.5257 43.6776 46.0976 43.5726C47.0219 43.4032 48.2094 42.6265 48.4675 42.452C48.6809 42.6046 49.5467 43.2015 50.3414 43.4436C51.2835 43.7304 52.4508 43.7034 52.8387 43.6844C52.9133 43.6808 52.9595 43.6774 52.9692 43.6767L52.9566 43.5099C52.9544 43.5102 52.9165 43.5129 52.8504 43.516C52.4938 43.5333 51.3117 43.5639 50.39 43.2837C49.5226 43.0197 48.5283 42.2901 48.5183 42.2826L48.4702 42.2471L48.4211 42.2813C48.4075 42.2908 47.0523 43.228 46.0675 43.4083C45.2749 43.5534 44.4719 43.5389 44.1678 43.526C44.0884 43.5226 44.0424 43.5194 44.0405 43.5194L44.0283 43.6859Z" fill="#FCD116"/>
<path d="M38.9643 41.5881C38.9634 41.5846 38.9179 41.4182 38.9096 41.1817C38.9009 40.9328 38.933 40.6059 39.1016 40.3089C39.2939 39.9703 39.6266 39.7353 40.0906 39.6104C40.8863 39.3963 41.6825 39.8218 42.5254 40.2724C42.8973 40.4713 43.282 40.6771 43.6835 40.8378C44.4462 41.143 45.1275 41.2322 45.4488 41.2582C45.4971 41.2099 45.5489 41.1569 45.6021 41.1003C45.4135 41.0915 44.6256 41.0346 43.7458 40.6825C43.3528 40.5252 42.9724 40.3218 42.6044 40.1249C41.7316 39.6583 40.907 39.2174 40.0473 39.4488C39.5386 39.5856 39.1716 39.8474 38.9566 40.2263C38.7449 40.5991 38.7252 41.0045 38.7473 41.2842C38.7631 41.4843 38.8003 41.6201 38.8039 41.6333L38.9643 41.5881Z" fill="#FCD116"/>
<path d="M47.4672 39.0354L47.3002 39.0288C47.2997 39.0434 47.2378 40.5038 46.7624 41.1948C46.7563 41.2036 46.7502 41.2121 46.7441 41.2208C46.7543 41.2138 46.7643 41.2067 46.7733 41.1994L46.8739 41.3266C46.8827 41.3142 46.8912 41.3023 46.8999 41.2896C47.4028 40.5585 47.4648 39.0971 47.4672 39.0354Z" fill="#FCD116"/>
<path d="M47.9584 40.9838L47.9721 41.002C48.2435 40.3166 48.3203 39.0822 48.3242 39.0183L48.1575 39.0083C48.1266 39.526 47.973 40.9371 47.6374 41.2455C47.494 41.3775 47.2641 41.5586 46.9838 41.6713C46.8033 41.744 46.6181 41.7941 46.4761 41.8259C46.5826 41.7073 46.7233 41.5391 46.8635 41.3408C46.7807 41.4025 46.6669 41.4536 46.5371 41.4954C46.3427 41.7365 46.182 41.8937 46.1798 41.8959L45.998 42.0726L46.2491 42.0388C46.2656 42.0366 46.6589 41.9824 47.0463 41.8264C47.3499 41.7042 47.5968 41.51 47.7506 41.3685C47.8022 41.3211 47.8496 41.2548 47.8926 41.1748L47.8245 41.0834L47.9584 40.9838Z" fill="#FCD116"/>
<path d="M53.2704 40.8468C53.6719 40.6862 54.0564 40.4806 54.4285 40.2815C55.2714 39.8309 56.0676 39.4053 56.8633 39.6194C57.3266 39.7441 57.6593 39.9789 57.8516 40.3167C58.0159 40.6052 58.0509 40.9231 58.0445 41.1701C58.0382 41.4175 57.9903 41.5937 57.9894 41.5974L58.1503 41.6426C58.1542 41.6289 58.1952 41.479 58.2091 41.261C58.2271 40.9829 58.2008 40.5941 57.9974 40.2356C57.7823 39.8567 57.4153 39.5951 56.9066 39.4581C56.047 39.2267 55.2223 39.6673 54.3495 40.1342C53.9816 40.3311 53.6009 40.5345 53.2082 40.6918C52.3281 41.0439 51.5402 41.1008 51.3516 41.1096C51.4048 41.1659 51.4566 41.2192 51.5052 41.2675C51.8262 41.2415 52.5077 41.1523 53.2704 40.8468Z" fill="#FCD116"/>
<path d="M48.4734 41.6739L47.9727 41.0016L47.9591 40.9834L47.8252 41.0833L47.8932 41.1747L48.4717 41.951L49.0613 41.1825C49.0334 41.1304 49.0071 41.0728 48.9823 41.0106L48.4734 41.6739Z" fill="#FCD116"/>
<path d="M50.478 41.8354C50.3363 41.8034 50.1511 41.7535 49.9703 41.6806C49.69 41.5676 49.4601 41.3868 49.3167 41.2548C48.9813 40.9464 48.8275 39.5353 48.7966 39.0176L48.6299 39.0275C48.6338 39.0915 48.7106 40.3254 48.9818 41.0108C49.0064 41.073 49.0329 41.1306 49.0608 41.1826C49.1043 41.2633 49.1517 41.3302 49.2037 41.3778C49.3576 41.5192 49.6042 41.7134 49.9081 41.8357C50.2955 41.9917 50.6887 42.0459 50.7052 42.0481L50.9566 42.0819L50.7748 41.9052C50.7726 41.903 50.6117 41.7458 50.417 41.5044C50.2872 41.4624 50.1732 41.4113 50.0903 41.3494C50.2303 41.5482 50.3713 41.7166 50.478 41.8354Z" fill="#FCD116"/>
<path d="M49.6543 39.0386L49.4873 39.0451C49.4897 39.1069 49.5517 40.5683 50.0546 41.2994C50.0631 41.3118 50.0718 41.3239 50.0803 41.3361L50.1812 41.2095C50.1902 41.2167 50.2002 41.2235 50.2104 41.2306C50.2043 41.2218 50.1982 41.2133 50.1921 41.2046C49.7167 40.5134 49.6548 39.0532 49.6543 39.0386Z" fill="#FCD116"/>
<path d="M45.1479 41.5416L44.9707 41.6947L45.2048 41.6886C45.2458 41.6874 46.0177 41.6636 46.5374 41.4957C46.6672 41.4536 46.7809 41.4028 46.8638 41.3411C46.8682 41.3377 46.873 41.3345 46.8774 41.3314L46.8737 41.327L46.7731 41.1999C46.7639 41.2072 46.7542 41.2142 46.744 41.2213C46.462 41.413 45.7883 41.4845 45.4308 41.509C45.5684 41.3787 45.7679 41.1792 45.9555 40.9549C45.9779 40.9281 46.0007 40.9009 46.0245 40.873C46.3276 40.5181 46.7432 40.0318 46.977 38.5796C47.1141 37.7255 46.9999 36.6022 46.9948 36.5592C46.9943 36.5492 46.9335 36.1465 47.0616 36.0089C47.1452 35.9192 47.4488 36.0128 47.4488 36.0128C47.4488 36.0128 47.1776 35.4475 46.8572 35.2039C46.4812 34.9181 45.5219 34.8741 45.3654 34.9344C45.3977 34.7256 45.4546 34.4916 45.7749 34.3919C45.9249 34.3457 46.1065 34.4136 46.3157 34.4928C46.5318 34.5742 46.8193 34.5975 46.9659 34.6821C47.1975 34.8163 47.5647 35.2236 47.7963 35.3566C47.895 35.4127 48.0231 35.4278 48.2487 35.3821C48.5634 35.3191 48.6307 35.0858 48.823 34.9694C49.1416 34.7762 49.5176 34.8061 49.7315 35.0083C50.2411 35.4902 50.2071 36.6221 50.2054 36.6955C50.1954 36.7752 50.0856 37.7333 50.2205 38.5694C50.4667 40.1001 50.6757 40.5765 50.9987 40.9636C51.1863 41.1887 51.3864 41.3887 51.5239 41.519C51.119 41.4905 50.4762 41.4094 50.21 41.2302C50.1998 41.2234 50.1899 41.2164 50.1809 41.2091L50.08 41.3357L50.0766 41.3401C50.0807 41.3433 50.0853 41.3464 50.0897 41.3496C50.1726 41.4116 50.2866 41.4626 50.4164 41.5046C50.936 41.6728 51.7084 41.6969 51.7495 41.6979L51.9835 41.7044L51.8064 41.5513C51.8044 41.5494 51.6758 41.4376 51.5055 41.2677C51.4571 41.2193 51.4051 41.1663 51.3519 41.1097C51.2777 41.0309 51.2009 40.9456 51.1265 40.8567C50.823 40.4928 50.6252 40.0349 50.385 38.5427C50.2513 37.7122 50.37 36.7218 50.3712 36.7118L50.3717 36.7045C50.3738 36.6493 50.4118 35.3454 49.834 34.7988C49.4675 34.4522 48.8786 34.0473 47.7524 34.1124C47.4782 34.128 47.372 34.2779 47.2517 34.3815C47.1754 34.4478 47.1158 34.4979 47.065 34.4996C46.8072 34.4991 46.577 34.4121 46.3743 34.3358C46.1453 34.25 45.9298 34.1686 45.7249 34.2322C45.1462 34.4121 45.1394 35.1799 45.1394 35.2127V35.4283L45.2842 35.2691C45.2869 35.2664 45.5231 35.0185 46.0216 35.3967C46.7843 35.9766 46.8271 36.5621 46.8276 36.572C46.8288 36.5832 46.9452 37.7207 46.8108 38.5529C46.5845 39.9589 46.1869 40.4245 45.8967 40.7643C45.8722 40.7928 45.8488 40.8205 45.826 40.8479C45.7519 40.9369 45.675 41.022 45.6012 41.1007C45.5479 41.1571 45.4962 41.2103 45.4478 41.2587C45.2786 41.4278 45.1501 41.5399 45.1479 41.5416ZM47.8858 34.8994C47.947 34.8994 47.9966 34.949 47.9966 35.0102C47.9966 35.0715 47.947 35.1211 47.8858 35.1211C47.8245 35.1211 47.775 35.0715 47.775 35.0102C47.775 34.949 47.8245 34.8994 47.8858 34.8994Z" fill="#FCD116"/>
</svg>
