<svg width="97" height="97" viewBox="0 0 97 97" fill="none" xmlns="http://www.w3.org/2000/svg">
<circle cx="48.5" cy="48.5" r="46.5" fill="#D9D9D9" stroke="#B3B3B3" stroke-width="3"/>
<path d="M92.2667 32.7551H4.7334C11.1854 14.8227 28.3452 2 48.5 2C68.6549 2 85.8147 14.8227 92.2667 32.7551Z" fill="#FF9933"/>
<path d="M92.2166 64.3833C85.7265 82.2431 68.603 94.9998 48.5004 94.9998C28.3979 94.9998 11.2744 82.2431 4.78418 64.3833H92.2166Z" fill="#128807"/>
<path d="M95 48.5002C95 54.0787 94.0177 59.428 92.2162 64.3837H4.78377C2.9825 59.428 2 54.0787 2 48.5002C2 42.9739 2.96399 37.6726 4.73335 32.7554H92.2667C94.036 37.6726 95 42.9739 95 48.5002Z" fill="#F7F7F7"/>
<path d="M49.8321 50.0933C50.7015 49.2239 50.7015 47.8142 49.8321 46.9448C48.9627 46.0754 47.553 46.0754 46.6836 46.9448C45.8142 47.8142 45.8142 49.2239 46.6836 50.0933C47.553 50.9627 48.9627 50.9627 49.8321 50.0933Z" fill="#000088"/>
<path d="M49.7542 44.2908L48.8193 46.4216L49.0661 44.1979L51.0323 38.1426L49.7542 44.2908Z" fill="#000088"/>
<path d="M47.4083 53.0339L47.6612 50.7207L46.7657 52.771L45.4482 58.9999L47.4083 53.0339Z" fill="#000088"/>
<path d="M47.4116 44.1115L47.6673 46.4243L46.7692 44.3751L45.4443 38.1479L47.4116 44.1115Z" fill="#000088"/>
<path d="M49.751 52.8562L48.8135 50.7266L49.0631 52.9501L51.0364 59.0029L49.751 52.8562Z" fill="#000088"/>
<path d="M45.2929 45.1282L46.6706 47.0033L44.8684 45.6775L40.6074 40.9473L45.2929 45.1282Z" fill="#000088"/>
<path d="M51.6922 51.5314L49.8154 50.1558L51.1433 51.9565L55.8788 56.2118L51.6922 51.5314Z" fill="#000088"/>
<path d="M43.9666 47.0676L46.0973 48.0027L43.8736 47.7557L37.8184 45.7896L43.9666 47.0676Z" fill="#000088"/>
<path d="M52.7097 49.4137L50.3965 49.1606L52.4468 50.0563L58.6757 51.3738L52.7097 49.4137Z" fill="#000088"/>
<path d="M43.7868 49.4107L46.0996 49.1548L44.0504 50.0529L37.8232 51.3779L43.7868 49.4107Z" fill="#000088"/>
<path d="M52.532 47.071L50.4023 48.0086L52.6258 47.7589L58.6787 45.7856L52.532 47.071Z" fill="#000088"/>
<path d="M44.804 51.5298L46.6791 50.1519L45.3533 51.9541L40.623 56.2153L44.804 51.5298Z" fill="#000088"/>
<path d="M51.2067 45.1305L49.8311 47.0073L51.6318 45.6794L55.8871 40.9438L51.2067 45.1305Z" fill="#000088"/>
<path d="M50.8203 44.8354L49.3633 46.6495L50.1802 44.5667L53.6541 39.2314L50.8203 44.8354Z" fill="#000088"/>
<path d="M46.2798 52.6666L47.126 50.499L45.7277 52.2457L42.835 57.9171L46.2798 52.6666Z" fill="#000088"/>
<path d="M48.6047 44.0527L48.2499 46.3523L47.916 44.1401L48.2569 37.7827L48.6047 44.0527Z" fill="#000088"/>
<path d="M48.5879 53.1053L48.2369 50.8052L47.8994 53.017L48.2299 59.3748L48.5879 53.1053Z" fill="#000088"/>
<path d="M46.2946 44.4827L47.1372 46.6518L45.7419 44.9027L42.8584 39.2266L46.2946 44.4827Z" fill="#000088"/>
<path d="M50.8067 52.3307L49.3525 50.5142L50.1662 52.5985L53.6315 57.9394L50.8067 52.3307Z" fill="#000088"/>
<path d="M44.5081 46.0106L46.3224 47.4678L44.2394 46.6507L38.9043 43.1768L44.5081 46.0106Z" fill="#000088"/>
<path d="M52.3405 50.5506L50.1729 49.7046L51.9196 51.1027L57.5909 53.9954L52.3405 50.5506Z" fill="#000088"/>
<path d="M43.726 48.2261L46.0258 48.5809L43.8135 48.9147L37.4561 48.5739L43.726 48.2261Z" fill="#000088"/>
<path d="M52.7787 48.2422L50.4785 48.5932L52.6903 48.9309L59.0483 48.6004L52.7787 48.2422Z" fill="#000088"/>
<path d="M44.1564 50.5364L46.3255 49.6938L44.5765 51.0893L38.9004 53.9728L44.1564 50.5364Z" fill="#000088"/>
<path d="M52.0039 46.0243L50.1875 47.4785L52.2716 46.6648L57.6126 43.1997L52.0039 46.0243Z" fill="#000088"/>
<path d="M60.7796 48.4192C60.6969 41.5112 55.0098 35.9587 48.102 36.0414C41.1941 36.1245 35.6415 41.8116 35.7246 48.7195C35.8073 55.6273 41.4947 61.18 48.4026 61.0972C55.3101 61.0142 60.8627 55.3267 60.7796 48.4192ZM58.7793 52.0788C58.6668 52.4153 58.5387 52.745 58.3952 53.0664C58.1458 53.6274 57.8508 54.1643 57.5151 54.6718C57.3209 54.966 57.1127 55.2504 56.8919 55.5242C56.5063 56.0025 56.082 56.4482 55.6233 56.8564C55.3628 57.0891 55.0908 57.3089 54.8091 57.516C54.3119 57.8814 53.7832 58.2066 53.2278 58.4861C52.9204 58.6413 52.6052 58.7822 52.2823 58.9083C51.7053 59.134 51.1044 59.313 50.4845 59.4399C50.1531 59.5077 49.8162 59.5611 49.4748 59.5985C49.1166 59.6379 48.7531 59.6604 48.3852 59.6646C48.1154 59.6678 47.848 59.6614 47.583 59.6453C47.2443 59.6253 46.9097 59.5898 46.5794 59.5396C45.9413 59.4425 45.3206 59.2909 44.7222 59.0896C44.4063 58.9833 44.0964 58.863 43.7937 58.7293C43.2029 58.4695 42.6388 58.159 42.1071 57.8038C41.8327 57.6208 41.5667 57.4258 41.3102 57.2192C40.807 56.8147 40.3392 56.3672 39.9134 55.8823C39.698 55.6368 39.4929 55.3819 39.2997 55.1179C38.9171 54.5965 38.5788 54.0404 38.291 53.4552C38.148 53.1657 38.0174 52.8687 37.9003 52.5652C37.6675 51.964 37.4852 51.3374 37.3598 50.6907C37.2985 50.375 37.2505 50.0543 37.2167 49.7295C37.1814 49.3915 37.1612 49.049 37.1572 48.7025C37.1534 48.3932 37.1627 48.0867 37.1839 47.7836V47.7832C37.2067 47.4552 37.2443 47.1316 37.2956 46.8123C37.3986 46.1661 37.5579 45.5382 37.7683 44.9336C37.8769 44.6214 37.9992 44.3155 38.1341 44.0164C38.3994 43.4295 38.714 42.8696 39.0733 42.342C39.2616 42.065 39.4623 41.7971 39.6746 41.5385C40.077 41.0481 40.5207 40.5929 41.0002 40.1778C41.2558 39.9561 41.5223 39.746 41.7982 39.5482C42.3071 39.1829 42.8484 38.8594 43.4166 38.5833C43.7233 38.4338 44.0381 38.2984 44.3599 38.1775C44.9384 37.9602 45.5399 37.7896 46.16 37.6711C46.4971 37.6063 46.84 37.557 47.1874 37.5242C47.4947 37.4943 47.8059 37.4775 48.1201 37.4737C48.43 37.47 48.737 37.4792 49.0406 37.5007C49.3921 37.5253 49.7391 37.5666 50.0811 37.6237C50.6937 37.7256 51.29 37.878 51.8648 38.0769C52.1991 38.1922 52.5261 38.3231 52.8452 38.4689C53.4029 38.7232 53.9361 39.0227 54.4399 39.3628C54.7341 39.5611 55.0181 39.773 55.2914 39.9979C55.7608 40.3836 56.198 40.8072 56.5983 41.2642C56.8322 41.5312 57.0537 41.8091 57.2617 42.0979C57.6148 42.5879 57.9294 43.1083 58.1996 43.6542C58.3571 43.9713 58.4998 44.297 58.6265 44.6303C58.8405 45.1919 59.0101 45.7758 59.1313 46.3768C59.2006 46.7222 59.2538 47.0736 59.2903 47.4299C59.3243 47.7609 59.3439 48.0967 59.3479 48.4358C59.3511 48.7093 59.3445 48.9806 59.328 49.2493C59.3065 49.6062 59.2678 49.9588 59.2129 50.3058C59.1164 50.9145 58.9706 51.5068 58.7793 52.0788Z" fill="#000088"/>
<path d="M47.0743 38.1234C47.2848 37.9129 47.2848 37.5715 47.0743 37.361C46.8638 37.1504 46.5224 37.1504 46.3119 37.361C46.1013 37.5715 46.1013 37.9129 46.3119 38.1234C46.5224 38.3339 46.8638 38.3339 47.0743 38.1234Z" fill="#000088"/>
<path d="M50.3341 59.7313C50.5446 59.5208 50.5446 59.1794 50.3341 58.9689C50.1235 58.7583 49.7822 58.7584 49.5716 58.9689C49.3611 59.1794 49.3611 59.5208 49.5716 59.7313C49.7822 59.9418 50.1235 59.9418 50.3341 59.7313Z" fill="#000088"/>
<path d="M44.1163 39.0429C44.4 38.9526 44.5567 38.6493 44.4664 38.3656C44.376 38.0819 44.0728 37.9252 43.7891 38.0156C43.5054 38.1059 43.3486 38.4092 43.439 38.6929C43.5294 38.9766 43.8326 39.1333 44.1163 39.0429Z" fill="#000088"/>
<path d="M53.1511 58.8405C53.3069 58.5868 53.2277 58.2548 52.974 58.0989C52.7203 57.9431 52.3883 58.0223 52.2324 58.276C52.0766 58.5297 52.1558 58.8617 52.4095 59.0176C52.6632 59.1734 52.9952 59.0942 53.1511 58.8405Z" fill="#000088"/>
<path d="M41.7775 40.4737C42.0356 40.3252 42.1244 39.9956 41.9759 39.7375C41.8274 39.4795 41.4978 39.3907 41.2397 39.5392C40.9817 39.6877 40.8929 40.0173 41.0414 40.2754C41.1899 40.5334 41.5195 40.6222 41.7775 40.4737Z" fill="#000088"/>
<path d="M55.6711 57.1589C55.7095 56.8637 55.5014 56.5931 55.2061 56.5547C54.9109 56.5162 54.6403 56.7244 54.6019 57.0196C54.5634 57.3149 54.7716 57.5854 55.0668 57.6239C55.3621 57.6623 55.6326 57.4542 55.6711 57.1589Z" fill="#000088"/>
<path d="M40.0057 42.3144C40.1474 42.0525 40.0499 41.7253 39.7881 41.5837C39.5262 41.442 39.199 41.5394 39.0573 41.8012C38.9157 42.0631 39.0131 42.3903 39.2749 42.532C39.5368 42.6737 39.864 42.5762 40.0057 42.3144Z" fill="#000088"/>
<path d="M57.6273 55.2053C57.722 54.923 57.5699 54.6174 57.2876 54.5227C57.0053 54.428 56.6997 54.5801 56.605 54.8624C56.5103 55.1447 56.6624 55.4503 56.9447 55.545C57.227 55.6397 57.5326 55.4876 57.6273 55.2053Z" fill="#000088"/>
<path d="M38.6084 44.8357C38.7634 44.5816 38.6831 44.2498 38.429 44.0948C38.1748 43.9397 37.8431 44.02 37.688 44.2742C37.5329 44.5283 37.6133 44.8601 37.8674 45.0151C38.1216 45.1702 38.4533 45.0899 38.6084 44.8357Z" fill="#000088"/>
<path d="M58.7437 53.0182C59.009 52.8829 59.1143 52.5582 58.979 52.2929C58.8436 52.0277 58.5189 51.9224 58.2537 52.0577C57.9885 52.193 57.8831 52.5177 58.0185 52.783C58.1538 53.0482 58.4785 53.1535 58.7437 53.0182Z" fill="#000088"/>
<path d="M37.5214 47.8626C37.8176 47.8319 38.0328 47.567 38.0021 47.2708C37.9714 46.9746 37.7065 46.7594 37.4103 46.7901C37.1141 46.8208 36.8989 47.0858 36.9296 47.382C36.9603 47.6781 37.2253 47.8933 37.5214 47.8626Z" fill="#000088"/>
<path d="M59.378 50.2731C59.6554 50.1651 59.7928 49.8526 59.6848 49.5751C59.5767 49.2976 59.2642 49.1603 58.9868 49.2683C58.7093 49.3763 58.5719 49.6888 58.68 49.9663C58.788 50.2437 59.1005 50.3811 59.378 50.2731Z" fill="#000088"/>
<path d="M37.9005 50.557C38.111 50.3465 38.111 50.0051 37.9005 49.7946C37.6899 49.584 37.3486 49.584 37.138 49.7946C36.9275 50.0051 36.9275 50.3465 37.138 50.557C37.3486 50.7675 37.6899 50.7675 37.9005 50.557Z" fill="#000088"/>
<path d="M59.4273 47.3634C59.6754 47.1988 59.743 46.8642 59.5784 46.6161C59.4137 46.368 59.0791 46.3004 58.831 46.4651C58.5829 46.6297 58.5153 46.9643 58.68 47.2124C58.8446 47.4605 59.1792 47.5281 59.4273 47.3634Z" fill="#000088"/>
<path d="M38.5955 53.375C38.8471 53.2158 38.9221 52.8828 38.7629 52.6311C38.6037 52.3795 38.2707 52.3046 38.0191 52.4637C37.7675 52.6229 37.6925 52.9559 37.8517 53.2076C38.0109 53.4592 38.3439 53.5341 38.5955 53.375Z" fill="#000088"/>
<path d="M58.8654 44.2924C58.9306 44.0018 58.7478 43.7135 58.4573 43.6483C58.1668 43.5832 57.8784 43.7659 57.8133 44.0564C57.7481 44.347 57.9308 44.6353 58.2214 44.7005C58.5119 44.7656 58.8003 44.5829 58.8654 44.2924Z" fill="#000088"/>
<path d="M40.306 55.4902C40.3796 55.2017 40.2054 54.9082 39.9169 54.8346C39.6284 54.761 39.3348 54.9352 39.2612 55.2237C39.1876 55.5122 39.3618 55.8058 39.6503 55.8794C39.9389 55.953 40.2324 55.7787 40.306 55.4902Z" fill="#000088"/>
<path d="M56.9668 42.2605C57.2589 42.2027 57.4488 41.919 57.3909 41.6269C57.3331 41.3349 57.0494 41.145 56.7573 41.2029C56.4653 41.2607 56.2754 41.5444 56.3333 41.8364C56.3911 42.1285 56.6748 42.3184 56.9668 42.2605Z" fill="#000088"/>
<path d="M42.3103 57.5937C42.452 57.3318 42.3546 57.0046 42.0928 56.8629C41.8309 56.7213 41.5037 56.8187 41.362 57.0805C41.2203 57.3424 41.3178 57.6696 41.5796 57.8113C41.8415 57.953 42.1686 57.8555 42.3103 57.5937Z" fill="#000088"/>
<path d="M55.0817 40.2219C55.3388 40.0717 55.4254 39.7416 55.2752 39.4845C55.125 39.2274 54.7948 39.1408 54.5377 39.291C54.2807 39.4412 54.194 39.7714 54.3443 40.0285C54.4945 40.2855 54.8246 40.3722 55.0817 40.2219Z" fill="#000088"/>
<path d="M44.4815 59.2385C44.7682 59.158 44.9353 58.8604 44.8548 58.5737C44.7743 58.287 44.4766 58.1199 44.19 58.2004C43.9033 58.2809 43.7362 58.5786 43.8167 58.8652C43.8972 59.1519 44.1948 59.319 44.4815 59.2385Z" fill="#000088"/>
<path d="M52.463 38.8943C52.7496 38.8138 52.9168 38.5161 52.8362 38.2295C52.7557 37.9428 52.4581 37.7757 52.1714 37.8562C51.8847 37.9367 51.7176 38.2343 51.7981 38.521C51.8786 38.8077 52.1763 38.9748 52.463 38.8943Z" fill="#000088"/>
<path d="M47.6319 59.4928C47.6803 59.199 47.4813 58.9216 47.1875 58.8733C46.8937 58.8249 46.6164 59.0239 46.568 59.3177C46.5197 59.6114 46.7186 59.8888 47.0124 59.9372C47.3062 59.9855 47.5836 59.7866 47.6319 59.4928Z" fill="#000088"/>
<path d="M49.5554 38.2276C49.8531 38.2217 50.0896 37.9756 50.0838 37.6779C50.0779 37.3802 49.8318 37.1437 49.5341 37.1495C49.2364 37.1554 48.9999 37.4015 49.0057 37.6992C49.0116 37.9969 49.2577 38.2334 49.5554 38.2276Z" fill="#000088"/>
</svg>
