<svg width="97" height="97" viewBox="0 0 97 97" fill="none" xmlns="http://www.w3.org/2000/svg">
<circle cx="48.5" cy="48.5" r="46.5" fill="#D9D9D9" stroke="#B3B3B3" stroke-width="3"/>
<path d="M48.5 95C74.1812 95 95 74.1812 95 48.5C95 22.8188 74.1812 2 48.5 2C22.8188 2 2 22.8188 2 48.5C2 74.1812 22.8188 95 48.5 95Z" fill="white" stroke="#494949" stroke-miterlimit="10"/>
<path d="M48.4843 32.0615C55.969 32.0615 62.2799 37.0879 64.2249 43.9494C62.9049 43.1986 61.3493 42.7261 59.3957 42.7261C49.8006 42.7261 49.8006 54.1149 40.2067 54.1149C36.4712 54.1149 34.1896 52.3882 32.2292 50.2796C32.1603 49.6695 32.125 49.0489 32.125 48.4208C32.1256 39.3862 39.4497 32.0615 48.4843 32.0615Z" fill="#CD2E3A"/>
<path d="M59.3957 42.7261C61.3493 42.7261 62.9055 43.1979 64.2249 43.9493C64.6279 45.3704 64.843 46.8702 64.843 48.4202C64.843 57.4548 57.5183 64.7795 48.4837 64.7795C40.0771 64.7795 33.1523 58.4387 32.2285 50.2789C34.189 52.3875 36.4699 54.1142 40.2061 54.1142C49.8012 54.1149 49.8012 42.7261 59.3957 42.7261Z" fill="#0047A0"/>
<path d="M23.4313 21.6633L14.209 35.4009L16.4457 36.9025L25.6681 23.1649L23.4313 21.6633Z" fill="black"/>
<path d="M26.7761 24.0451L17.5537 37.7827L19.7905 39.2843L29.0128 25.5467L26.7761 24.0451Z" fill="black"/>
<path d="M30.2185 26.3L20.9961 40.0376L23.2328 41.5392L32.4552 27.8016L30.2185 26.3Z" fill="black"/>
<path d="M71.4641 23.1625L75.6807 29.4434L77.9174 27.9418L73.7009 21.6609L71.4641 23.1625Z" fill="black"/>
<path d="M76.3401 30.6791L80.5566 36.96L82.7934 35.4584L78.5769 29.1775L76.3401 30.6791Z" fill="black"/>
<path d="M68.1194 25.5432L77.3418 39.2808L79.5785 37.7792L70.3562 24.0416L68.1194 25.5432Z" fill="black"/>
<path d="M64.6771 27.7994L68.8145 33.9624L71.0512 32.4608L66.9138 26.2978L64.6771 27.7994Z" fill="black"/>
<path d="M69.6048 35.1387L73.7422 41.3018L75.9789 39.8002L71.8416 33.6372L69.6048 35.1387Z" fill="black"/>
<path d="M25.6647 73.8384L16.4424 60.1008L14.2056 61.6024L23.428 75.34L25.6647 73.8384Z" fill="black"/>
<path d="M23.9501 63.9203L19.7871 57.7192L17.5504 59.2208L21.7133 65.4219L23.9501 63.9203Z" fill="black"/>
<path d="M28.8944 71.2863L24.7314 65.0852L22.4947 66.5868L26.6576 72.7879L28.8944 71.2863Z" fill="black"/>
<path d="M32.4519 69.2019L23.2295 55.4644L20.9927 56.9659L30.2151 70.7035L32.4519 69.2019Z" fill="black"/>
<path d="M73.6975 75.3373L77.9141 69.0564L75.6773 67.5548L71.4608 73.8357L73.6975 75.3373Z" fill="black"/>
<path d="M78.5735 67.8212L82.79 61.5403L80.5533 60.0387L76.3368 66.3196L78.5735 67.8212Z" fill="black"/>
<path d="M70.3534 72.9562L74.6211 66.5991L72.3843 65.0975L68.1167 71.4546L70.3534 72.9562Z" fill="black"/>
<path d="M75.3466 65.5177L79.6143 59.1606L77.3775 57.6591L73.1098 64.0162L75.3466 65.5177Z" fill="black"/>
<path d="M66.9114 70.7006L71.0488 64.5376L68.8121 63.036L64.6747 69.199L66.9114 70.7006Z" fill="black"/>
<path d="M71.8382 63.361L75.9756 57.198L73.7388 55.6964L69.6015 61.8594L71.8382 63.361Z" fill="black"/>
</svg>
