<svg width="97" height="97" viewBox="0 0 97 97" fill="none" xmlns="http://www.w3.org/2000/svg">
<circle cx="48.5" cy="48.5" r="46.5" fill="#D9D9D9" stroke="#B3B3B3" stroke-width="3"/>
<path d="M48.5 95C74.1812 95 95 74.1812 95 48.5C95 22.8188 74.1812 2 48.5 2C22.8188 2 2 22.8188 2 48.5C2 74.1812 22.8188 95 48.5 95Z" fill="white"/>
<path d="M92.3566 63.999C85.9709 82.0593 68.7485 94.9999 48.4998 94.9999C28.251 94.9999 11.0286 82.0619 4.64551 63.999H92.3566Z" fill="#007A3D"/>
<path d="M92.3566 32.9982H4.64551C11.0286 14.938 28.2536 2 48.4998 2C68.7459 2 85.9709 14.938 92.3566 32.9982Z" fill="black"/>
<path d="M56.1121 48.5L14.219 79.9185C6.63071 71.643 2 60.6133 2 48.5C2 36.3867 6.63071 25.3571 14.2217 17.0815L56.1148 48.5H56.1121Z" fill="#CE1126"/>
</svg>
