<svg width="97" height="97" viewBox="0 0 97 97" fill="none" xmlns="http://www.w3.org/2000/svg">
<circle cx="48.5" cy="48.5" r="46.5" fill="#D9D9D9" stroke="#B3B3B3" stroke-width="3"/>
<path d="M95 48.4996C95 49.7446 94.9511 50.9779 94.8545 52.1982C94.6538 54.7534 94.2462 57.2511 93.6483 59.6737C93.0146 62.244 92.1671 64.7302 91.126 67.1122C89.9706 69.7541 88.5765 72.268 86.9716 74.6269C85.137 77.3228 83.0264 79.8161 80.68 82.0659C77.6879 84.9353 74.3132 87.4085 70.6391 89.4012C64.0568 92.9717 56.5154 94.9998 48.5001 94.9998C40.4848 94.9998 32.9434 92.972 26.3611 89.4012C22.6871 87.4085 19.3124 84.9353 16.3202 82.0659C13.9738 79.8161 11.8633 77.3231 10.0286 74.6269C8.42373 72.268 7.02967 69.7539 5.87428 67.1122C4.89343 64.8685 4.08468 62.5328 3.46378 60.1213C3.42553 59.9722 3.3885 59.8235 3.3517 59.6739C2.75356 57.2513 2.34591 54.7537 2.14548 52.1984C2.0489 50.9784 2 49.7451 2 48.4999C2 47.2411 2.04987 45.994 2.14863 44.7599C2.34761 42.2533 2.74629 39.8031 3.32725 37.4246C3.95518 34.8543 4.79684 32.368 5.83168 29.9856C6.97908 27.3442 8.36515 24.8303 9.96207 22.4709C11.7851 19.7769 13.8836 17.2839 16.2171 15.0324C19.1599 12.1932 22.4762 9.73864 26.085 7.74909C32.7326 4.08517 40.3727 2 48.4999 2C50.3941 2 52.2621 2.11305 54.0967 2.33333C60.1346 3.05783 65.8169 4.93918 70.9148 7.74909C74.5235 9.73864 77.8401 12.1932 80.7827 15.0324C83.1162 17.2836 85.2147 19.7769 87.0377 22.4709C88.6346 24.8303 90.0207 27.3444 91.1681 29.9856C92.2029 32.368 93.0446 34.8543 93.6725 37.4246C94.2537 39.8031 94.6522 42.2536 94.8511 44.7599C94.9501 45.9938 95 47.2409 95 48.4996Z" fill="#F9F9F9"/>
<path d="M70.6393 89.4014C64.057 92.9719 56.5156 94.9999 48.5003 94.9999C40.485 94.9999 32.9436 92.9721 26.3613 89.4014H70.6393Z" fill="#CC0001"/>
<path d="M86.9713 74.627C85.1367 77.3229 83.0261 79.8161 80.6797 82.0659H16.3199C13.9735 79.8161 11.8629 77.3231 10.0283 74.627H86.9713Z" fill="#CC0001"/>
<path d="M93.6482 59.6738C93.0144 62.2441 92.1669 64.7304 91.1258 67.1123H5.87414C4.89329 64.8686 4.08454 62.5329 3.46364 60.1214C3.42539 59.9723 3.38836 59.8237 3.35156 59.6741H93.6482V59.6738Z" fill="#CC0001"/>
<path d="M95 48.4997C95 49.7447 94.9511 50.978 94.8545 52.1982H2.14548C2.0489 50.9782 2 49.7449 2 48.4997C2 47.241 2.04987 45.9938 2.14863 44.7598H94.8514C94.9501 45.9938 95 47.241 95 48.4997Z" fill="#CC0001"/>
<path d="M93.6724 37.4248H3.32715C3.95507 34.8545 4.79674 32.3683 5.83157 29.9858H91.168C92.2028 32.3683 93.0447 34.8545 93.6724 37.4248Z" fill="#CC0001"/>
<path d="M87.0375 22.4707H9.96191C11.7849 19.7767 13.8834 17.2837 16.2169 15.0322H80.7828C83.1161 17.2835 85.2145 19.7767 87.0375 22.4707Z" fill="#CC0001"/>
<path d="M70.9148 7.74909H26.085C32.7326 4.08517 40.3727 2 48.4999 2C50.3941 2 52.2621 2.11305 54.0967 2.33333C60.1346 3.05759 65.8169 4.93894 70.9148 7.74909Z" fill="#CC0001"/>
<path d="M54.097 2.33308V60.1213H3.46378C3.42553 59.9722 3.3885 59.8235 3.3517 59.6739C2.75356 57.2513 2.34591 54.7537 2.14548 52.1984C2.0489 50.9784 2 49.7451 2 48.4999C2 47.2411 2.04987 45.994 2.14863 44.7599C2.34761 42.2533 2.74629 39.8031 3.32725 37.4246C3.95518 34.8543 4.79684 32.368 5.83168 29.9856C6.97908 27.3442 8.36515 24.8303 9.96207 22.4709C11.7851 19.7769 13.8836 17.2839 16.2171 15.0324C19.1599 12.1932 22.4762 9.73864 26.085 7.74909C32.7326 4.08517 40.3727 2 48.4999 2C50.3943 2 52.2623 2.11305 54.097 2.33308Z" fill="#010066"/>
<path d="M46.9153 37.4246L45.9117 36.2559L52.804 36.4793L46.4912 33.7164L52.798 30.9275L45.9114 31.1776L46.9271 29.9857L50.3841 25.9284L44.2884 29.1413L46.0397 22.4719L41.9415 28.0114L40.8871 22.4707L40.653 21.2422L40.4141 22.4707L39.3374 28.0114L35.2392 22.4719L36.9905 29.1413L30.8948 25.9284L34.3513 29.9857L35.367 31.1776L28.4807 30.9275L34.7875 33.7164L28.4746 36.4793L35.367 36.2559L34.3634 37.4246L30.8783 41.4841L36.9905 38.2919L35.2653 44.7602L35.215 44.9502L35.3566 44.7602L39.3374 39.4224L40.3749 44.7602L40.653 46.1911L40.9253 44.7602L41.9415 39.4224L45.9223 44.7602L46.0639 44.9502L46.0136 44.7602L44.2884 38.2919L50.4006 41.4841L46.9153 37.4246Z" fill="#FFCC00"/>
<path d="M29.4819 47.1494C30.8472 47.1494 32.1647 46.9434 33.4044 46.5605C31.1524 47.9178 28.5136 48.6982 25.6924 48.6982C17.4262 48.6982 10.7256 41.9973 10.7256 33.7314C10.7256 25.4655 17.4265 18.7642 25.6924 18.7642C28.8927 18.7642 31.858 19.7685 34.2906 21.4792C32.7997 20.8997 31.1781 20.5821 29.4822 20.5821C22.1461 20.5821 16.1987 26.5294 16.1987 33.8655C16.1985 41.2021 22.1458 47.1494 29.4819 47.1494Z" fill="#FFCC00"/>
</svg>
