<svg width="97" height="97" viewBox="0 0 97 97" fill="none" xmlns="http://www.w3.org/2000/svg">
<circle cx="48.5" cy="48.5" r="46.5" fill="#D9D9D9" stroke="#B3B3B3" stroke-width="3"/>
<path d="M22.4619 47.1003H24.8068V33.4628L46.348 47.1003H54.4973V41.9906L38.8374 32.0351H54.4973V29.0483H22.4619V47.1003Z" fill="white"/>
<path d="M38.7635 17.0452H54.4979V19.975V20.0506V29.048V32.0348H38.8379L54.4979 41.9903V47.1H46.3498L24.8073 33.4625V47.1H22.4625H15.3436H12.9244V33.4625L2.806 39.8686C2.27776 42.6732 2 45.567 2 48.5252C2 74.1928 22.8184 94.9998 48.5 94.9998C74.1816 94.9998 95 74.1928 95 48.5252C95 24.8889 77.3461 5.37451 54.4979 2.43359V7.08973L38.7635 17.0452Z" fill="#00247D"/>
<path d="M46.2747 2.104C38.4564 2.47208 31.1442 4.76979 24.8028 8.53113L24.7979 15.7427L46.2747 2.104Z" fill="#00247D"/>
<path d="M48.5 2.05081C48.6636 2.05081 48.8273 2.05205 48.991 2.05329L49.0741 2H49.0468H46.4378L46.2754 2.1041C47.012 2.0694 47.7535 2.05081 48.5 2.05081Z" fill="white"/>
<path d="M15.3434 15.9424C14.0885 17.2176 12.908 18.5648 11.8057 19.9764H15.3434V15.9424Z" fill="white"/>
<path d="M30.8508 17.0453H25.458L48.9907 2.05326C48.8271 2.05202 48.6634 2.05078 48.4997 2.05078C47.7532 2.05078 47.0117 2.06937 46.2739 2.10407L24.7971 15.7428L24.8021 8.5312C24.006 9.00338 23.226 9.49787 22.4609 10.0147V19.9763H54.4963V17.0453H38.7632L54.4976 7.08987V2.43373C54.2868 2.40647 54.076 2.38044 53.8652 2.35689L30.8508 17.0453Z" fill="white"/>
<path d="M12.9241 47.1003H15.3433V29.0483H6.26898C5.58326 30.5306 4.97318 32.0549 4.4437 33.6177L6.9237 32.0351H12.2718L3.24338 37.8054C3.08218 38.487 2.93586 39.1748 2.80566 39.8689L12.9241 33.4628V47.1003Z" fill="white"/>
<path d="M15.3431 29.0482V47.0989H22.462V29.0482H54.4974V20.0507V19.9751H22.462V10.0146C19.8939 11.7522 17.5094 13.7401 15.3431 15.9423V19.9763H11.8054C9.6317 22.7636 7.76798 25.8049 6.26758 29.0494H15.3431V29.0482Z" fill="#CF142B"/>
<path d="M30.8508 17.0455L53.8639 2.35708C52.2631 2.17366 50.6362 2.0708 48.9907 2.05469L25.458 17.0455H30.8508Z" fill="#CF142B"/>
<path d="M12.2726 32.0352H6.92446L4.44446 33.6178C3.9807 34.986 3.58018 36.3839 3.24414 37.8054L12.2726 32.0352Z" fill="#CF142B"/>
<path d="M54.4976 43.831V47.1004L30.8223 32.0352H36.0662L54.4976 43.831Z" fill="#CF142B"/>
<path d="M73.4684 33.1084L74.6117 36.5203H78.1321L75.2987 38.5961L76.3217 41.9187L73.4002 39.9433L70.5495 42.0575L71.6791 38.5961L68.7676 36.5203H72.3661L73.4684 33.1084Z" fill="white"/>
<path d="M59.1247 47.5093L60.2667 50.9211H63.7883L60.9549 52.997L61.9779 56.3196L59.0565 54.3441L56.2057 56.4584L57.3353 52.997L54.4238 50.9211H58.0223L59.1247 47.5093Z" fill="white"/>
<path d="M73.4602 69.7998L74.7176 73.5562H78.5938L75.474 75.8415L76.5999 79.5L73.3833 77.325L70.2461 79.6524L71.4886 75.8415L68.2832 73.5562H72.245L73.4602 69.7998Z" fill="white"/>
<path d="M85.7513 44.2632L86.7966 47.385H89.8768L87.3732 49.2093L88.3292 52.2184L85.7414 50.3879L83.1485 52.2432L84.1418 49.2093L81.6221 47.385H84.7419L85.7513 44.2632Z" fill="white"/>
<path d="M73.4512 34.7319L74.2225 37.0371H76.4967L74.6478 38.3842L75.3546 40.6038L73.4438 39.2542L71.5305 40.6224L72.2633 38.3842L70.4033 37.0371H72.706L73.4512 34.7319Z" fill="#CF142B"/>
<path d="M59.1065 49.1489L59.8778 51.4541H62.152L60.3044 52.8012L61.0099 55.0221L59.0991 53.6712L57.1858 55.0394L57.9186 52.8012L56.0586 51.4541H58.3613L59.1065 49.1489Z" fill="#CF142B"/>
<path d="M73.4398 71.5903L74.2867 74.1718H76.7828L74.7542 75.6801L75.5292 78.1674L73.4311 76.6542L71.3293 78.1885L72.1353 75.6801L70.0918 74.1718H72.6214L73.4398 71.5903Z" fill="#CF142B"/>
<path d="M85.7503 45.8062L86.4621 47.8771H88.5614L86.8552 49.0879L87.5062 51.0832L85.7429 49.8687L83.9759 51.0993L84.6529 49.0879L82.9355 47.8771H85.0621L85.7503 45.8062Z" fill="#CF142B"/>
</svg>
