<svg width="97" height="97" viewBox="0 0 97 97" fill="none" xmlns="http://www.w3.org/2000/svg">
<circle cx="48.5" cy="48.5" r="46.5" fill="#D9D9D9" stroke="#B3B3B3" stroke-width="3"/>
<path d="M95.0002 48.4999C95.0002 50.5363 94.8693 52.5421 94.6153 54.5098H2.38498C2.13097 52.5421 2 50.5363 2 48.4999C2 22.8188 22.8188 2 48.5001 2C74.1814 2 95.0002 22.8188 95.0002 48.4999Z" fill="#ED2939"/>
<path d="M38.024 48.0777C35.6716 49.1951 33.0421 49.8151 30.2694 49.8151C20.2391 49.8151 12.1104 41.6864 12.1104 31.6611C12.1104 21.6307 20.2391 13.4893 30.2694 13.4893C32.668 13.4893 34.9591 13.7635 37.0553 14.7886H36.9323C27.7375 14.7886 20.2802 22.2587 20.2802 31.4537C20.2802 40.6485 27.7375 48.1072 36.9323 48.1072C37.3014 48.1072 37.6652 48.1034 38.024 48.0777Z" fill="white"/>
<path d="M34.0526 26.9171L31.5452 28.7352L32.5043 31.6524L29.9966 29.864L27.5092 31.6524L28.4312 28.7216L25.9707 26.9269L29.0561 26.9178L29.9865 23.98L30.9857 26.887L34.0526 26.9171Z" fill="white"/>
<path d="M43.5467 19.9219L41.0393 21.7401L41.9984 24.6573L39.4908 22.8691L37.0033 24.6573L37.9256 21.7264L35.4648 19.9318L38.5502 19.9227L39.4809 16.9849L40.4799 19.8919L43.5467 19.9219Z" fill="white"/>
<path d="M52.5497 26.9171L50.0423 28.7352L51.0013 31.6524L48.4937 29.864L46.0062 31.6524L46.9286 28.7216L44.4678 26.9269L47.5531 26.9178L48.4838 23.98L49.4828 26.887L52.5497 26.9171Z" fill="white"/>
<path d="M37.4383 38.3096L34.9309 40.1278L35.89 43.045L33.3824 41.2568L30.8949 43.045L31.8172 40.1144L29.3564 38.3197L32.4418 38.3106L33.3725 35.3726L34.3715 38.2798L37.4383 38.3096Z" fill="white"/>
<path d="M49.1678 38.3096L46.6604 40.1278L47.6195 43.045L45.1119 41.2568L42.6244 43.045L43.5465 40.1144L41.0859 38.3197L44.1713 38.3106L45.102 35.3726L46.101 38.2798L49.1678 38.3096Z" fill="white"/>
<path d="M2.99444 55.2698H94.005C90.732 77.465 71.6045 94.4999 48.4997 94.4999C25.3949 94.4999 6.2675 77.465 2.99444 55.2698Z" fill="#F4F4F4" stroke="#D2D2D2"/>
</svg>
