<svg width="97" height="97" viewBox="0 0 97 97" fill="none" xmlns="http://www.w3.org/2000/svg">
<circle cx="48.5" cy="48.5" r="46.5" fill="#D9D9D9" stroke="#B3B3B3" stroke-width="3"/>
<path d="M48.4997 95C62.2413 95 74.5893 89.0393 83.1019 79.562H13.8975C22.4101 89.0393 34.758 95 48.4997 95Z" fill="#DE1018"/>
<path d="M13.8979 79.5619H83.1023C87.1348 75.0731 90.3055 69.7969 92.3565 63.99H4.64258C6.69354 69.7969 9.86546 75.0743 13.8979 79.5619Z" fill="white"/>
<path d="M48.4997 2C34.758 2 22.4101 7.96068 13.8975 17.438H83.1019C74.5893 7.96068 62.2413 2 48.4997 2Z" fill="#DE1018"/>
<path d="M92.3577 33.0099C90.3067 27.203 87.1348 21.9268 83.1023 17.438H13.8979C9.86546 21.9268 6.69354 27.2042 4.64258 33.0099H92.3577Z" fill="white"/>
<path d="M2 48.5001C2 53.9313 2.93124 59.1455 4.64244 63.9902H92.3576C94.0688 59.1455 95 53.9313 95 48.5001C95 43.0689 94.0688 37.8547 92.3576 33.01H4.64244C2.93124 37.8547 2 43.0689 2 48.5001Z" fill="#00247D"/>
</svg>
