<svg width="97" height="97" viewBox="0 0 97 97" fill="none" xmlns="http://www.w3.org/2000/svg">
<circle cx="48.5" cy="48.5" r="46.5" fill="#D9D9D9" stroke="#B3B3B3" stroke-width="3"/>
<path d="M48.5 95C74.1812 95 95 74.1812 95 48.5C95 22.8188 74.1812 2 48.5 2C22.8188 2 2 22.8188 2 48.5C2 74.1812 22.8188 95 48.5 95Z" fill="#E30917"/>
<path d="M39.5104 67.6989C28.9073 67.6989 20.3114 59.1029 20.3114 48.4999C20.3114 37.8968 28.9073 29.3009 39.5104 29.3009C43.6402 29.3009 47.4601 30.6092 50.5916 32.8265C46.4329 28.4287 40.5429 25.6833 34.0118 25.6833C21.4095 25.6833 11.1953 35.8976 11.1953 48.4999C11.1953 61.1022 21.4095 71.3164 34.0118 71.3164C40.5429 71.3164 46.4329 68.5711 50.5916 64.1733C47.4601 66.3906 43.6402 67.6989 39.5104 67.6989Z" fill="white"/>
<path d="M47.2178 48.4999L53.846 46.2432L53.9432 39.2419L58.1361 44.8482L64.8273 42.778L60.7895 48.4999L64.8273 54.2218L58.1361 52.1516L53.9432 57.7579L53.846 50.7566L47.2178 48.4999Z" fill="white"/>
</svg>
