<svg width="97" height="97" viewBox="0 0 97 97" fill="none" xmlns="http://www.w3.org/2000/svg">
<circle cx="48.5" cy="48.5" r="46.5" fill="#D9D9D9" stroke="#B3B3B3" stroke-width="3"/>
<path d="M92.3538 64H58.0666L24.5469 88.3635C31.543 92.5758 39.7381 95 48.5 95C68.7467 95 85.9703 82.0606 92.3538 64Z" fill="#0C1C8C"/>
<path d="M19.3945 12.2339C14.6515 16.0444 10.6736 20.7676 7.72241 26.1355L38.4422 48.5002L7.69141 70.809C10.6314 76.1757 14.5994 80.9001 19.33 84.7156L56.1754 57.7121H94.0859C94.6848 54.7349 94.9986 51.6547 94.9986 48.5002C94.9986 45.3592 94.6861 42.2915 94.0934 39.3254H56.3254L19.3945 12.2339Z" fill="#007C59"/>
<path d="M5.10992 31.749C3.10112 36.9471 2 42.5953 2 48.5002C2 54.3976 3.09864 60.0384 5.10124 65.2303L28.1169 48.5002L5.10992 31.749Z" fill="black"/>
<path d="M58.0666 33H92.3538C85.9703 14.9394 68.7467 2 48.5 2C39.7381 2 31.543 4.4242 24.5469 8.63648L58.0666 33Z" fill="#E23D28"/>
<path d="M19.3301 84.7142C20.9793 86.0447 22.7227 87.2648 24.5468 88.3622L58.0664 64H92.3537C93.0729 61.9651 93.6544 59.8658 94.0872 57.7119H56.1754L19.3301 84.7142Z" fill="white"/>
<path d="M24.5467 8.63672C22.7463 9.72048 21.0251 10.9233 19.3945 12.2327L56.3255 39.3242H94.0946C93.6606 37.158 93.0778 35.045 92.3537 32.999H58.0664L24.5467 8.63672Z" fill="white"/>
<path d="M7.72292 26.1343C6.73216 27.936 5.85796 29.8109 5.109 31.749L28.1172 48.5002L5.10156 65.2302C5.84432 67.1547 6.71108 69.0184 7.69192 70.809L38.4427 48.5002L7.72292 26.1343Z" fill="#FCB514"/>
</svg>
